<svg width="240" height="120" viewBox="0 0 240 120" fill="none" xmlns="http://www.w3.org/2000/svg">
<g opacity="0.2">
<path opacity="0.2" d="M122.453 117.844C130.174 117.844 136.433 116.336 136.433 114.476C136.433 112.617 130.174 111.109 122.453 111.109C114.732 111.109 108.473 112.617 108.473 114.476C108.473 116.336 114.732 117.844 122.453 117.844Z" fill="#271D24"/>
</g>
<g opacity="0.2">
<path opacity="0.2" d="M122.452 120C135.115 120 145.379 117.527 145.379 114.477C145.379 111.426 135.115 108.953 122.452 108.953C109.79 108.953 99.5254 111.426 99.5254 114.477C99.5254 117.527 109.79 120 122.452 120Z" fill="#271D24"/>
</g>
<path d="M126.096 52.9526H118.015V66.9325H126.096V52.9526Z" fill="#A16552"/>
<path d="M135.915 69.0269V94.7797C135.915 95.6423 135.802 96.5019 135.579 97.3377C135.433 97.8909 135.24 98.4323 134.999 98.9498C134.71 99.5745 134.359 100.166 133.949 100.717C133.577 101.213 133.161 101.674 132.703 102.091C132.619 102.171 132.536 102.249 132.45 102.32C130.644 103.87 128.342 104.723 125.962 104.729H118.158C116.542 104.732 114.951 104.337 113.523 103.581C112.86 103.233 112.238 102.811 111.67 102.32C111.194 101.912 110.76 101.46 110.373 100.969C110.278 100.856 110.192 100.743 110.106 100.624C109.692 100.053 109.341 99.4406 109.056 98.7981C108.848 98.3222 108.675 97.8315 108.538 97.3288C108.321 96.493 108.208 95.6333 108.208 94.7707V69.024C108.208 64.8865 111.56 61.5284 115.698 61.5254H128.41C132.554 61.5284 135.912 64.8865 135.915 69.0269Z" fill="#A16552"/>
<path d="M129.279 67.0814C124.683 68.6102 119.889 68.6608 114.868 67.0219C113.306 66.5043 111.623 67.3491 111.102 68.9077C111.001 69.2081 110.95 69.5264 110.95 69.8417V93.6223C110.95 97.8341 114.365 101.249 118.577 101.249H125.54C129.752 101.249 133.167 97.8341 133.167 93.6223V69.913C133.173 68.2741 131.846 66.9386 130.207 66.9356C129.889 66.9326 129.576 66.9832 129.279 67.0814Z" fill="#F5DCB4"/>
<path d="M135.243 112.618C135.032 112.618 134.797 112.618 134.577 112.618C134.666 112.287 134.788 111.865 134.954 111.321C135.585 109.274 134.886 106.773 134.116 104.89C133.863 104.271 133.598 103.724 133.369 103.278C133.122 102.793 132.908 102.439 132.798 102.228C132.771 102.18 132.741 102.136 132.709 102.091C132.06 101.184 130.799 100.976 129.892 101.624C129.113 102.18 128.833 103.209 129.223 104.084L129.261 104.164L129.333 104.295C129.734 104.988 130.085 105.711 130.383 106.454C130.951 107.838 131.346 109.322 131.1 110.14C130.296 112.772 129.761 114.515 131.219 115.821C131.564 116.127 132.2 116.695 135.305 116.648C136.418 116.6 137.283 115.657 137.233 114.542C137.185 113.471 136.314 112.626 135.243 112.612V112.618Z" fill="#A16552"/>
<path d="M112.702 107.727C112.533 107.293 112.491 106.82 112.58 106.362C112.741 105.389 113.059 104.452 113.52 103.584C113.604 103.423 113.687 103.278 113.77 103.138C113.868 102.977 113.943 102.802 113.993 102.62C114.294 101.549 113.666 100.437 112.595 100.14C111.751 99.9046 110.852 100.241 110.37 100.972C110.356 100.99 110.341 101.008 110.329 101.029C110.061 101.469 109.823 101.927 109.612 102.397C109.255 103.176 108.972 103.988 108.773 104.821C108.428 106.291 108.354 107.971 109.071 109.47C109.445 110.241 109.776 111.032 110.064 111.838C109.814 111.886 109.558 111.933 109.318 111.963C108.205 112.034 107.36 112.992 107.432 114.105C107.503 115.217 108.461 116.062 109.573 115.99C109.668 115.984 109.764 115.973 109.856 115.952C112.931 115.532 113.473 114.875 113.767 114.524C114.606 113.519 114.74 111.978 112.702 107.727Z" fill="#A16552"/>
<path d="M83.3445 28.8447C83.3445 28.8447 81.1345 20.0106 121.997 20.1266C162.86 20.2426 161.578 28.8447 161.578 28.8447C161.578 28.8447 161.097 38.0179 110.43 36.2838C83.2285 35.3558 83.3445 28.8447 83.3445 28.8447Z" fill="#FFEDD9"/>
<path d="M105.311 31.4802C104.945 32.8187 104.755 34.1959 104.749 35.585V35.8735C104.761 37.5481 104.57 39.2197 104.186 40.8527C103.413 40.579 102.619 40.0228 101.86 39.0621C99.8646 36.5427 100.528 32.4707 102.994 31.5159C103.728 31.2036 104.555 31.1887 105.305 31.4683C105.308 31.4713 105.308 31.4772 105.311 31.4802Z" fill="#A16552"/>
<path d="M105.311 31.4802C104.945 32.8187 104.755 34.1959 104.749 35.585V35.8735C104.761 37.5481 104.57 39.2197 104.186 40.8527C103.413 40.579 102.619 40.0228 101.86 39.0621C99.8646 36.5427 100.528 32.4707 102.994 31.5159C103.728 31.2036 104.555 31.1887 105.305 31.4683C105.308 31.4713 105.308 31.4772 105.311 31.4802Z" fill="#F5DCB4"/>
<path d="M142.128 39.0591C141.37 40.0199 140.576 40.5761 139.802 40.8497C139.419 39.2168 139.228 37.5481 139.24 35.8705C139.24 35.7753 139.24 35.6802 139.24 35.582C139.234 34.19 139.044 32.8068 138.675 31.4654C139.425 31.1798 140.257 31.1977 140.995 31.513C143.461 32.4678 144.127 36.5398 142.128 39.0591Z" fill="#A16552"/>
<path d="M142.128 39.0591C141.37 40.0199 140.576 40.5761 139.802 40.8497C139.419 39.2168 139.228 37.5481 139.24 35.8705C139.24 35.7753 139.24 35.6802 139.24 35.582C139.234 34.19 139.044 32.8068 138.675 31.4654C139.425 31.1798 140.257 31.1977 140.995 31.513C143.461 32.4678 144.127 36.5398 142.128 39.0591Z" fill="#F5DCB4"/>
<path d="M134.452 40.9033C133.717 42.0366 133.536 43.4435 133.961 44.7285C134.288 45.6952 134.591 46.7868 134.591 47.5988C134.583 53.5477 128.949 58.3782 121.995 58.3782C115.04 58.3782 109.407 53.5477 109.407 47.6107C109.407 46.7987 109.701 45.7071 110.037 44.7404C110.463 43.4554 110.284 42.0485 109.55 40.9122C108.842 39.8028 108.464 38.5178 108.461 37.2001C108.461 33.2501 111.822 30.0496 115.971 30.0496C117.31 30.0466 118.631 30.3887 119.797 31.046C121.165 31.8223 122.839 31.8223 124.208 31.046C125.377 30.3916 126.691 30.0466 128.033 30.0496C132.182 30.0496 135.543 33.2501 135.543 37.2001C135.543 38.1877 135.326 39.1633 134.913 40.0586C134.779 40.3501 134.624 40.6327 134.452 40.9033Z" fill="#A16552"/>
<path d="M134.452 40.9033C133.717 42.0366 133.536 43.4435 133.961 44.7285C134.288 45.6952 134.591 46.7868 134.591 47.5988C134.583 53.5477 128.949 58.3782 121.995 58.3782C115.04 58.3782 109.407 53.5477 109.407 47.6107C109.407 46.7987 109.701 45.7071 110.037 44.7404C110.463 43.4554 110.284 42.0485 109.55 40.9122C108.842 39.8028 108.464 38.5178 108.461 37.2001C108.461 33.2501 111.822 30.0496 115.971 30.0496C117.31 30.0466 118.631 30.3887 119.797 31.046C121.165 31.8223 122.839 31.8223 124.208 31.046C125.377 30.3916 126.691 30.0466 128.033 30.0496C132.182 30.0496 135.543 33.2501 135.543 37.2001C135.543 38.1877 135.326 39.1633 134.913 40.0586C134.779 40.3501 134.624 40.6327 134.452 40.9033Z" fill="#F5DCB4"/>
<path d="M115.585 48.9287C115.183 48.9287 114.859 49.2529 114.862 49.6545C114.862 49.6842 114.865 49.7169 114.868 49.7467C115.314 52.9323 118.336 55.3981 121.998 55.3981C125.659 55.3981 128.681 52.9323 129.136 49.7467C129.187 49.3511 128.907 48.9882 128.509 48.9347C128.479 48.9317 128.446 48.9287 128.416 48.9287H115.585Z" fill="#4E3F3F"/>
<path d="M117.857 54.2168C120.391 55.7992 123.604 55.7992 126.138 54.2168C125.62 52.4173 123.958 52.8337 121.998 52.8337C120.037 52.8337 118.387 52.4173 117.857 54.2168Z" fill="#E6646E"/>
<path d="M141.852 30.1837C140.362 29.6067 139.178 29.9101 138.348 30.3949C138.146 29.797 137.911 29.2111 137.646 28.637C137.456 28.2176 137.245 27.8042 137.016 27.3967C134.737 23.2265 130.906 19.7642 126.504 18.3008L126.418 15.9331L123.577 17.6405L123.235 17.6048C123.024 17.5869 122.816 17.5721 122.604 17.5631L122.185 15.7725L122.063 15.249C121.92 15.249 121.781 15.249 121.644 15.2639C118.993 15.4751 117.676 17.8874 117.468 18.2978C113.071 19.7672 109.24 23.2235 106.968 27.3937C106.745 27.8012 106.536 28.2146 106.337 28.634C106.072 29.2081 105.84 29.7941 105.638 30.3919L105.531 30.3324C104.707 29.8922 103.562 29.6364 102.134 30.1867C99.0022 31.4003 98.1605 36.5609 100.695 39.7763C101.73 41.085 102.818 41.8019 103.868 42.1202C103.854 42.1796 103.842 42.2391 103.83 42.2986C103.642 43.1672 103.547 44.0535 103.55 44.9399C103.55 51.0792 108.08 56.3618 114.567 58.6878C116.09 59.2321 117.673 59.6039 119.279 59.7913C120.115 59.8925 120.957 59.946 121.798 59.952H121.998C132.182 59.952 140.439 53.2327 140.439 44.9369C140.439 44.0506 140.344 43.1672 140.157 42.3046C140.145 42.2451 140.13 42.1856 140.118 42.1291C141.168 41.8108 142.257 41.091 143.289 39.7822C145.826 36.5579 144.981 31.3973 141.852 30.1837ZM105.311 31.4806C104.945 32.8191 104.755 34.1962 104.749 35.5853V35.8738C104.761 37.5484 104.57 39.2201 104.187 40.853C103.413 40.5794 102.619 40.0232 101.861 39.0624C99.8648 36.5431 100.528 32.4711 102.994 31.5163C103.729 31.2039 104.556 31.1891 105.305 31.4687C105.308 31.4716 105.308 31.4776 105.311 31.4806ZM134.922 40.0529C134.788 40.3474 134.633 40.6329 134.458 40.9066C133.723 42.0398 133.538 43.4468 133.961 44.7317C134.288 45.6984 134.591 46.79 134.591 47.6021C134.583 53.5509 128.949 58.3814 121.995 58.3814C115.04 58.3814 109.407 53.5509 109.407 47.6139C109.407 46.8019 109.701 45.7103 110.037 44.7436C110.463 43.4587 110.284 42.0517 109.55 40.9155C108.842 39.806 108.464 38.5211 108.461 37.2034C108.461 33.2533 111.822 30.0528 115.971 30.0528C117.31 30.0499 118.631 30.3919 119.797 31.0493C121.165 31.8256 122.839 31.8256 124.208 31.0493C125.377 30.3949 126.691 30.0499 128.033 30.0528C132.182 30.0528 135.543 33.2533 135.543 37.2034C135.543 38.1879 135.329 39.1606 134.919 40.0559H134.922V40.0529ZM142.129 39.0594C141.37 40.0202 140.576 40.5764 139.803 40.8501C139.419 39.2171 139.229 37.5484 139.241 35.8708C139.241 35.7757 139.241 35.6805 139.241 35.5823C139.235 34.1903 139.044 32.8072 138.675 31.4657C139.425 31.1801 140.258 31.198 140.995 31.5133C143.461 32.4681 144.128 36.5401 142.129 39.0594Z" fill="#A16552"/>
<path d="M118.741 43.833L118.982 43.3065C119.053 43.1489 119.24 43.0775 119.398 43.1518L121.322 44.0323C121.48 44.1037 121.551 44.2911 121.477 44.4487L121.236 44.9752C121.165 45.1328 120.977 45.2042 120.82 45.1299L118.895 44.2494C118.738 44.178 118.669 43.9936 118.741 43.833Z" fill="#4E3F3F"/>
<path d="M122.756 44.9751L122.515 44.4486C122.444 44.291 122.512 44.1036 122.67 44.0322L124.594 43.1518C124.752 43.0804 124.939 43.1488 125.011 43.3065L125.252 43.8329C125.323 43.9906 125.255 44.178 125.097 44.2494L123.172 45.1298C123.015 45.2041 122.827 45.1357 122.756 44.9751Z" fill="#4E3F3F"/>
<path d="M115.528 40.0494C114.371 40.0792 113.405 39.166 113.375 38.009V37.3278C113.402 36.1678 114.365 35.2517 115.525 35.2784C115.528 35.2784 115.528 35.2784 115.531 35.2784C116.691 35.2457 117.655 36.1618 117.688 37.3189C117.688 37.3189 117.688 37.3189 117.688 37.3219V38.009C117.652 39.166 116.688 40.0822 115.528 40.0494Z" fill="#4E3F3F"/>
<path d="M115.528 35.2788V37.6613C115.555 38.2562 116.058 38.7172 116.655 38.6934C117.215 38.6696 117.661 38.2205 117.688 37.6613V37.3222C117.652 36.1622 116.688 35.249 115.528 35.2788Z" fill="#5D5360"/>
<path d="M115.528 37.3279C115.924 37.3279 116.245 37.0229 116.245 36.6467C116.245 36.2705 115.924 35.9656 115.528 35.9656C115.132 35.9656 114.811 36.2705 114.811 36.6467C114.811 37.0229 115.132 37.3279 115.528 37.3279Z" fill="#4D4040"/>
<path d="M128.467 40.0494C127.307 40.0822 126.343 39.166 126.311 38.009V37.3278C126.337 36.1678 127.301 35.2517 128.458 35.2784C128.461 35.2784 128.464 35.2784 128.467 35.2784C129.627 35.2457 130.591 36.1618 130.623 37.3189C130.623 37.3189 130.623 37.3189 130.623 37.3219V38.009C130.591 39.166 129.624 40.0822 128.467 40.0494Z" fill="#4E3F3F"/>
<path d="M128.467 35.2788V37.6613C128.494 38.2562 128.996 38.7172 129.594 38.6934C130.153 38.6696 130.599 38.2205 130.626 37.6613V37.3222C130.591 36.1622 129.627 35.249 128.467 35.2788Z" fill="#5D5360"/>
<path d="M128.464 37.3279C128.86 37.3279 129.181 37.0229 129.181 36.6467C129.181 36.2705 128.86 35.9656 128.464 35.9656C128.068 35.9656 127.747 36.2705 127.747 36.6467C127.747 37.0229 128.068 37.3279 128.464 37.3279Z" fill="#4D4040"/>
<path d="M138.425 29.8383H105.064V22.4736L121.513 12.5955L138.425 22.4736V29.8383Z" fill="#FFEDD9"/>
<path d="M108.452 7.34863L107.402 20.5998L136.578 22.8098L131.468 3.04163C131.468 3.04163 130.189 -1.25942 125.314 0.367604C120.439 1.99463 108.452 7.34863 108.452 7.34863Z" fill="#FFEDD9"/>
<path d="M136.007 20.5787C131.997 20.311 127.36 20.1593 121.997 20.1355C116.352 20.1177 111.533 20.2753 107.414 20.5549L107.797 15.7036C113.047 15.7036 118.282 15.659 123.526 15.5132C127.134 15.4091 130.906 15.4567 134.624 15.2188L136.007 20.5787Z" fill="#A16552"/>
<path d="M117.345 61.0881H114.416V71.0347H117.345V61.0881Z" fill="#473835"/>
<path d="M129.698 61.0881H126.769V71.0347H129.698V61.0881Z" fill="#473835"/>
<path d="M137.527 90.9426C137.527 91.1836 137.524 91.4275 137.515 91.6684C137.462 94.1402 137.108 96.5941 136.465 98.9796C136.073 100.419 135.576 101.829 134.975 103.194L134.264 104.818L134.109 104.884L130.379 106.466C130.082 105.723 129.731 105 129.33 104.307L129.258 104.176C128.202 104.551 127.087 104.744 125.965 104.741H118.155C116.539 104.744 114.948 104.348 113.52 103.593C113.056 104.461 112.738 105.401 112.58 106.371L108.77 104.83L107.815 101.552C107.568 100.705 107.357 99.8511 107.185 98.9915C106.789 97.0075 106.587 94.9909 106.587 92.9653V90.9545C106.587 86.6773 107.482 82.4476 109.213 78.5362L112.152 71.933C112.39 71.3976 112.92 71.0496 113.505 71.0496H130.629C131.215 71.0525 131.748 71.3976 131.986 71.933L134.91 78.5362C136.644 82.4476 137.539 86.6773 137.536 90.9545L137.527 90.9426Z" fill="#473835"/>
<path d="M128.497 76.0166H115.879V85.3236H128.497V76.0166Z" fill="#271D24"/>
<path d="M137.527 90.9277H106.587V92.409H137.527V90.9277Z" fill="#271D24"/>
<path d="M121.007 91.6685V98.9796C122.316 98.9796 123.374 97.9178 123.374 96.612C123.374 96.612 123.374 96.612 123.374 96.609V91.6685H121.007Z" fill="#271D24"/>
<path d="M137.515 91.6685C137.462 94.1402 137.108 96.5941 136.465 98.9796C132.497 98.9796 129.279 95.7613 129.279 91.7934V91.6685H137.515Z" fill="#271D24"/>
<path d="M114.844 91.668V91.7929C114.844 95.7608 111.629 98.9792 107.661 98.9792H107.185C106.789 96.9952 106.587 94.9786 106.587 92.953V91.665H114.844V91.668Z" fill="#271D24"/>
<path d="M115.528 74.0359C116.182 74.0359 116.712 73.5059 116.712 72.852C116.712 72.1982 116.182 71.6682 115.528 71.6682C114.874 71.6682 114.344 72.1982 114.344 72.852C114.344 73.5059 114.874 74.0359 115.528 74.0359Z" fill="#F9AB6D"/>
<path d="M128.235 74.0359C128.889 74.0359 129.419 73.5059 129.419 72.852C129.419 72.1982 128.889 71.6682 128.235 71.6682C127.581 71.6682 127.051 72.1982 127.051 72.852C127.051 73.5059 127.581 74.0359 128.235 74.0359Z" fill="#F9AB6D"/>
<path d="M158.571 39.4846C167.003 39.4846 173.839 32.649 173.839 24.2168C173.839 15.7846 167.003 8.94897 158.571 8.94897C150.139 8.94897 143.303 15.7846 143.303 24.2168C143.303 32.649 150.139 39.4846 158.571 39.4846Z" fill="#FFD54F"/>
<path d="M158.571 35.5314C164.82 35.5314 169.886 30.4656 169.886 24.2166C169.886 17.9677 164.82 12.9019 158.571 12.9019C152.322 12.9019 147.256 17.9677 147.256 24.2166C147.256 30.4656 152.322 35.5314 158.571 35.5314Z" fill="#FAF4E6"/>
<path d="M134.338 64.678L149.615 54.7701L158.874 39.187L162.539 38.1995" stroke="#A16552" stroke-width="4.28571" stroke-miterlimit="10" stroke-linecap="round" stroke-linejoin="round"/>
<path d="M82.2678 38.6931C90.7 38.6931 97.5356 31.8575 97.5356 23.4253C97.5356 14.9931 90.7 8.15747 82.2678 8.15747C73.8356 8.15747 67 14.9931 67 23.4253C67 31.8575 73.8356 38.6931 82.2678 38.6931Z" fill="#FFD54F"/>
<path d="M82.2677 34.7404C88.5166 34.7404 93.5825 29.6746 93.5825 23.4256C93.5825 17.1766 88.5166 12.1108 82.2677 12.1108C76.0187 12.1108 70.9529 17.1766 70.9529 23.4256C70.9529 29.6746 76.0187 34.7404 82.2677 34.7404Z" fill="#F3BA2F"/>
<path d="M83.8026 28.6102V30.3681L82.2708 31.2694L80.7835 30.3681V28.6102L82.2708 29.5115L83.8026 28.6102ZM75.6021 22.5245L77.0893 23.4258V26.4449L79.6562 27.9767V29.7346L75.6021 27.3461V22.5245ZM88.9395 22.5245V27.3461L84.8377 29.7346V27.9767L87.4046 26.4449V23.4258L88.9395 22.5245ZM84.8407 20.139L86.3725 21.0403V22.7982L83.8056 24.33V27.3937L82.3183 28.295L80.8311 27.3937V24.33L78.172 22.7982V21.0403L79.7038 20.139L82.2708 21.6709L84.8407 20.139ZM78.172 24.0594L79.6592 24.9606V26.7185L78.172 25.8172V24.0594ZM86.3725 24.0594V25.8172L84.8853 26.7185V24.9606L86.3725 24.0594ZM77.0893 18.6072L78.6211 19.5085L77.0893 20.4097V22.1676L75.6021 21.2663V19.5085L77.0893 18.6072ZM87.4522 18.6072L88.9841 19.5085V21.2663L87.4522 22.1676V20.4097L85.965 19.5085L87.4522 18.6072ZM82.2708 18.6072L83.8026 19.5085L82.2708 20.4097L80.7835 19.5085L82.2708 18.6072ZM82.2708 15.5881L86.3725 17.9766L84.8853 18.8779L82.3183 17.346L79.7038 18.8779L78.2166 17.9766L82.2708 15.5881Z" fill="#4D4040"/>
<path d="M109.594 64.678L94.3173 54.7701L85.0578 39.187L81.3933 38.1995" stroke="#A16552" stroke-width="4.28571" stroke-miterlimit="10" stroke-linecap="round" stroke-linejoin="round"/>
<path d="M158.119 25.5138C158.119 25.5138 158.208 24.2675 156.614 22.8992C154.336 20.942 154.074 20.5108 155.963 20.8171C157.852 21.1235 159.226 22.7059 159.226 22.7059" fill="#FFCA28"/>
<path d="M154.142 28.9551L154.083 28.1609L152.512 28.2769C152.349 28.2888 152.227 28.4316 152.239 28.5922L152.253 28.8004C152.265 28.964 152.408 29.0859 152.569 29.074L154.142 28.9551Z" fill="#AC752C"/>
<path d="M154.143 28.955L154.113 28.5564L152.248 28.6932L152.257 28.7973C152.269 28.9609 152.411 29.0829 152.572 29.071L154.143 28.955Z" fill="#7D551F"/>
<path d="M161.081 26.2364C160.802 25.936 160.496 25.704 160.147 25.4898C159.814 25.2846 159.454 25.121 159.103 24.9514C158.794 24.7997 158.512 24.6272 158.175 24.5618C158.161 24.5826 158.146 24.6064 158.131 24.6272C158.116 24.648 158.098 24.6688 158.083 24.6926C158.048 24.7432 158.012 24.7908 157.973 24.8384C157.967 24.8443 157.964 24.8503 157.958 24.8562C157.943 24.8771 157.926 24.8979 157.911 24.9187C157.893 24.9395 157.875 24.9603 157.857 24.9841C157.821 25.0317 157.78 25.0793 157.741 25.1239C157.622 25.2637 157.5 25.4006 157.372 25.5314C157.352 25.5552 157.331 25.5761 157.307 25.5969C157.271 25.6326 157.238 25.6683 157.2 25.701C157.173 25.7278 157.149 25.7515 157.122 25.7753C157.096 25.7991 157.072 25.8229 157.045 25.8467C157.039 25.8527 157.033 25.8586 157.027 25.8616C156.989 25.8973 156.95 25.933 156.908 25.9687C156.899 25.9776 156.89 25.9865 156.879 25.9925C156.864 26.0074 156.849 26.0222 156.831 26.0341L156.78 26.0758C156.739 26.1115 156.7 26.1442 156.658 26.1799C156.602 26.2275 156.539 26.275 156.48 26.3197C156.432 26.3554 156.382 26.394 156.334 26.4297C156.325 26.4357 156.316 26.4446 156.307 26.4505C156.266 26.4803 156.227 26.5071 156.186 26.5368L156.183 26.5398C156.117 26.5844 156.049 26.632 155.98 26.6736C155.84 26.7658 155.698 26.8521 155.549 26.9354C155.281 27.0871 155.005 27.2209 154.722 27.3399C154.6 27.3934 154.478 27.441 154.353 27.4856C154.353 27.4856 154.353 27.4856 154.35 27.4856C154.288 27.5094 154.225 27.5303 154.16 27.5511C154.103 27.5689 154.047 27.5868 153.99 27.6046C153.913 27.6284 153.839 27.6492 153.761 27.6701C153.761 27.6701 153.741 27.679 153.705 27.6968C153.696 27.7028 153.684 27.7087 153.669 27.7147C153.663 27.7177 153.657 27.7236 153.651 27.7266C153.645 27.7296 153.639 27.7355 153.63 27.7385C153.455 27.8485 153.318 28.0121 153.238 28.2025C153.235 28.2084 153.232 28.2144 153.232 28.2203C153.184 28.3482 153.166 28.488 153.178 28.6249C153.184 28.7022 153.196 28.7795 153.217 28.8569C153.217 28.8569 153.217 28.8569 153.217 28.8598C153.232 28.9134 153.253 28.9669 153.28 29.0175C153.372 29.19 153.529 29.312 153.711 29.3982C154.08 29.5707 154.561 29.6035 154.853 29.6064C157.354 29.5648 159.692 28.3661 161.186 26.3613C161.156 26.3167 161.12 26.278 161.081 26.2364Z" fill="#FFB300"/>
<path d="M159.107 24.9485C158.797 24.7968 158.515 24.6243 158.179 24.5588C158.164 24.5797 158.149 24.6035 158.134 24.6243C158.119 24.6451 158.101 24.6659 158.086 24.6897C158.072 24.7105 158.054 24.7314 158.039 24.7552C158.018 24.7819 157.997 24.8087 157.979 24.8384C157.973 24.8444 157.97 24.8503 157.964 24.8563C157.95 24.8771 157.932 24.8979 157.917 24.9187C157.899 24.9396 157.881 24.9604 157.863 24.9842C157.845 25.008 157.828 25.0258 157.81 25.0496C157.792 25.0734 157.768 25.1032 157.747 25.124C157.712 25.1656 157.673 25.2073 157.637 25.2519C157.631 25.2608 157.622 25.2668 157.616 25.2757C157.599 25.2965 157.581 25.3143 157.563 25.3352C157.524 25.3768 157.486 25.4214 157.444 25.4631C157.423 25.4869 157.399 25.5107 157.378 25.5345C157.355 25.5583 157.337 25.5791 157.313 25.5999C157.277 25.6356 157.242 25.6683 157.206 25.704C157.179 25.7278 157.155 25.7546 157.129 25.7784C157.102 25.8022 157.078 25.826 157.051 25.8497C157.045 25.8557 157.039 25.8616 157.033 25.8646C156.995 25.9003 156.956 25.936 156.914 25.9717C156.906 25.9806 156.897 25.9895 156.885 25.9955L156.837 26.0371L156.787 26.0788C156.745 26.1145 156.706 26.1472 156.665 26.1829C156.626 26.2126 156.59 26.2424 156.552 26.2721C156.531 26.29 156.507 26.3078 156.486 26.3257C156.439 26.3614 156.388 26.4 156.34 26.4357C156.331 26.4417 156.323 26.4506 156.314 26.4565C156.272 26.4863 156.233 26.513 156.192 26.5428L156.189 26.5458C156.156 26.5696 156.123 26.5874 156.091 26.6112C156.058 26.632 156.022 26.6588 155.986 26.6826C155.936 26.7153 155.885 26.7451 155.835 26.7778L155.751 26.8254C155.686 26.867 155.621 26.9027 155.552 26.9414C155.508 26.9652 155.463 26.9919 155.418 27.0157C155.35 27.0514 155.282 27.0871 155.216 27.1198C155.171 27.1436 155.124 27.1644 155.076 27.1882C155.008 27.221 154.936 27.2537 154.862 27.2864C154.817 27.3072 154.773 27.3251 154.725 27.3459C154.645 27.3786 154.565 27.4113 154.484 27.4411L154.392 27.4768C154.38 27.4827 154.368 27.4857 154.356 27.4916C154.356 27.4916 154.356 27.4916 154.353 27.4916C154.291 27.5154 154.229 27.5363 154.163 27.5571C154.107 27.5749 154.05 27.5928 153.994 27.6106C153.916 27.6344 153.842 27.6552 153.765 27.6761C153.765 27.6761 153.744 27.685 153.708 27.7028C153.699 27.7088 153.687 27.7147 153.672 27.7207C153.666 27.7236 153.66 27.7296 153.654 27.7326C153.649 27.7355 153.643 27.7415 153.634 27.7445C153.458 27.8545 153.321 28.0181 153.241 28.2085C153.238 28.2144 153.235 28.2204 153.235 28.2263C153.187 28.3542 153.17 28.494 153.182 28.6309C153.187 28.7082 153.199 28.7855 153.22 28.8629H153.235C153.967 28.8688 154.699 28.7736 155.406 28.5833C155.502 28.5565 155.597 28.5297 155.695 28.5C157.361 27.9854 158.812 26.9384 159.832 25.5226C159.868 25.475 159.901 25.4244 159.934 25.3738C159.666 25.2162 159.383 25.0853 159.107 24.9485Z" fill="#FFD54F"/>
<path d="M161.403 26.0639L159.835 25.5107L157.961 24.8533C157.967 24.8474 157.97 24.8414 157.976 24.8355C157.997 24.8087 158.018 24.7819 158.036 24.7522C158.054 24.7314 158.069 24.7105 158.083 24.6867C158.101 24.6659 158.116 24.6451 158.131 24.6213C158.173 24.5648 158.211 24.5083 158.25 24.4518C158.277 24.4131 158.301 24.3774 158.324 24.3387C158.372 24.2644 158.422 24.187 158.467 24.1097C158.485 24.0829 158.5 24.0561 158.515 24.0324C158.521 24.0234 158.524 24.0175 158.53 24.0086C158.556 23.961 158.583 23.9164 158.61 23.8688C158.637 23.8212 158.663 23.7676 158.693 23.72C158.723 23.6635 158.753 23.604 158.782 23.5445C158.806 23.497 158.833 23.4464 158.854 23.3988C158.878 23.3512 158.904 23.2917 158.928 23.2412C158.937 23.2233 158.943 23.2055 158.952 23.1906C158.967 23.1549 158.985 23.1192 158.997 23.0865C159 23.0835 159 23.0805 159 23.0776C159.02 23.024 159.044 22.9735 159.065 22.9199C159.071 22.908 159.077 22.8961 159.08 22.8842L159.092 22.8545C159.107 22.8188 159.118 22.7801 159.133 22.7444C159.145 22.7147 159.157 22.6849 159.169 22.6552C159.181 22.6254 159.193 22.5957 159.202 22.566L159.211 22.5422C159.217 22.5243 159.223 22.5035 159.229 22.4856C159.234 22.4678 159.24 22.447 159.246 22.4262C159.288 22.2983 159.327 22.1704 159.362 22.0395C159.38 21.974 159.398 21.9086 159.416 21.8432C159.44 21.748 159.464 21.6558 159.481 21.5606L159.487 21.5308C159.487 21.5219 159.49 21.516 159.49 21.5071C159.514 21.397 159.532 21.2869 159.55 21.1739C159.556 21.1382 159.562 21.0996 159.568 21.0609C159.574 21.0222 159.577 20.9865 159.583 20.9479C159.588 20.9032 159.594 20.8586 159.597 20.814C159.6 20.7872 159.603 20.7605 159.606 20.7337C159.612 20.6861 159.615 20.6355 159.621 20.5879C159.627 20.5433 159.63 20.4987 159.633 20.4571C159.639 20.3797 159.642 20.3024 159.645 20.2251C159.648 20.1864 159.648 20.1477 159.648 20.1061C159.648 20.0912 159.648 20.0763 159.648 20.0615C159.648 20.0466 159.648 20.0317 159.648 20.0169C159.648 19.9871 159.648 19.9574 159.651 19.9276C159.651 19.8919 159.651 19.8592 159.651 19.8265C159.651 19.7135 159.645 19.6004 159.639 19.4874C159.639 19.4815 159.639 19.4755 159.639 19.4696C159.633 19.3655 159.624 19.2643 159.615 19.1602V19.1572C159.594 18.7319 159.431 17.7325 159.508 17.0305C159.544 16.7093 159.63 16.4475 159.803 16.3315C159.823 16.3166 159.847 16.3047 159.871 16.2929H159.874C159.901 16.2839 159.925 16.278 159.951 16.272H159.954C160.195 16.2304 160.43 16.3018 160.641 16.4118C161.067 16.6379 161.385 17.0424 161.421 17.087C163.241 19.8116 163.232 23.3572 161.403 26.0639Z" fill="#FFD770"/>
<path d="M159.835 25.5137C161.263 23.5327 161.772 20.9271 160.989 18.4167C160.799 17.801 160.534 17.2121 160.201 16.6588C160.154 16.5815 160.103 16.5012 160.052 16.4238C160.02 16.3733 159.987 16.3257 159.954 16.2781C159.927 16.284 159.901 16.29 159.877 16.2989C159.877 16.2989 159.877 16.2989 159.874 16.2989C159.85 16.3078 159.826 16.3227 159.806 16.3376C159.63 16.4536 159.544 16.7153 159.511 17.0366C159.434 17.7385 159.597 18.7379 159.618 19.1633V19.1663C159.627 19.2704 159.636 19.3745 159.642 19.4756C159.642 19.4816 159.642 19.4875 159.642 19.4935C159.648 19.6065 159.651 19.7195 159.654 19.8325C159.654 19.8415 159.654 19.8534 159.654 19.8653V19.9366C159.654 19.9664 159.654 19.9961 159.651 20.0259C159.651 20.0407 159.651 20.0556 159.651 20.0705C159.651 20.0854 159.651 20.1002 159.651 20.1151C159.651 20.1538 159.651 20.1954 159.648 20.2341C159.645 20.3114 159.639 20.3917 159.636 20.4661C159.633 20.5107 159.63 20.5553 159.624 20.597C159.621 20.6446 159.615 20.6951 159.609 20.7427C159.606 20.7695 159.603 20.7963 159.6 20.823C159.594 20.8676 159.591 20.9123 159.585 20.9569C159.579 20.9955 159.574 21.0312 159.571 21.0699C159.565 21.1056 159.559 21.1443 159.553 21.1829C159.535 21.293 159.514 21.406 159.493 21.5161C159.493 21.525 159.49 21.5309 159.49 21.5399L159.484 21.5696C159.463 21.6648 159.443 21.76 159.419 21.8522C159.401 21.9176 159.383 21.9831 159.365 22.0485C159.33 22.1794 159.291 22.3073 159.249 22.4352C159.243 22.456 159.237 22.4738 159.231 22.4947C159.226 22.5155 159.22 22.5333 159.214 22.5512L159.205 22.575C159.193 22.6047 159.184 22.6345 159.172 22.6642C159.16 22.694 159.148 22.7237 159.136 22.7534C159.121 22.7891 159.11 22.8248 159.095 22.8635L159.083 22.8932C159.08 22.9051 159.074 22.917 159.068 22.9289C159.047 22.9825 159.026 23.033 159.002 23.0866C159.002 23.0896 158.999 23.0925 158.999 23.0955C158.985 23.1312 158.97 23.1669 158.955 23.1996C158.949 23.2175 158.94 23.2323 158.931 23.2502C158.904 23.3037 158.88 23.3573 158.857 23.4078C158.83 23.4584 158.809 23.506 158.785 23.5536C158.756 23.6101 158.726 23.6696 158.696 23.7291C158.669 23.7767 158.643 23.8272 158.613 23.8778C158.586 23.9283 158.559 23.97 158.532 24.0176C158.527 24.0265 158.524 24.0354 158.518 24.0414C158.503 24.0681 158.485 24.0949 158.47 24.1187C158.425 24.196 158.375 24.2704 158.327 24.3477C158.3 24.3834 158.277 24.4221 158.253 24.4608C158.214 24.5173 158.176 24.5738 158.134 24.6303C158.119 24.6511 158.101 24.672 158.086 24.6958C158.071 24.7166 158.054 24.7374 158.039 24.7612C158.018 24.788 157.997 24.8147 157.979 24.8445C157.973 24.8504 157.97 24.8564 157.964 24.8623L159.835 25.5137Z" fill="#FFEA8C"/>
<path d="M157.961 24.8563C157.961 24.8563 159.648 25.4899 160.317 26.1591C161.37 27.2151 161.778 27.5363 161.165 30.716C161.141 30.832 161.123 30.948 161.111 31.067C161.052 31.5964 160.992 32.9349 163.074 29.8355C165.576 26.1086 162.027 25.0616 162.027 25.0616C160.719 24.6808 159.336 24.6392 157.961 24.8563Z" fill="#FFCA28"/>
</svg>
