<svg width="240" height="120" viewBox="0 0 240 120" fill="none" xmlns="http://www.w3.org/2000/svg">
<g opacity="0.2">
<path opacity="0.2" d="M131.207 106.338C139.11 106.338 145.518 104.796 145.518 102.894C145.518 100.991 139.11 99.4492 131.207 99.4492C123.303 99.4492 116.896 100.991 116.896 102.894C116.896 104.796 123.303 106.338 131.207 106.338Z" fill="#271D24"/>
</g>
<g opacity="0.2">
<path opacity="0.2" d="M131.206 110.717C149.146 110.717 163.689 107.214 163.689 102.893C163.689 98.5719 149.146 95.0691 131.206 95.0691C113.267 95.0691 98.7241 98.5719 98.7241 102.893C98.7241 107.214 113.267 110.717 131.206 110.717Z" fill="#271D24"/>
</g>
<path d="M155.518 63.8212C158.373 63.8212 160.688 61.5067 160.688 58.6516C160.688 55.7965 158.373 53.4819 155.518 53.4819C152.663 53.4819 150.349 55.7965 150.349 58.6516C150.349 61.5067 152.663 63.8212 155.518 63.8212Z" fill="#FFD54F"/>
<path d="M155.519 62.4846C157.636 62.4846 159.352 60.7686 159.352 58.6517C159.352 56.5349 157.636 54.8188 155.519 54.8188C153.402 54.8188 151.686 56.5349 151.686 58.6517C151.686 60.7686 153.402 62.4846 155.519 62.4846Z" fill="#FAF4E6"/>
<path d="M155.613 59.1091C155.613 59.1091 155.421 58.7319 154.72 58.6127C153.719 58.4407 153.566 58.3603 154.168 58.1218C154.77 57.8833 155.444 58.1024 155.444 58.1024" fill="#FFCA28"/>
<path d="M155.055 60.8007L154.9 60.5789L154.465 60.8867C154.42 60.9172 154.409 60.981 154.44 61.0254L154.481 61.0836C154.512 61.128 154.575 61.1391 154.62 61.1086L155.055 60.8007Z" fill="#AC752C"/>
<path d="M155.055 60.8004L154.978 60.6895L154.459 61.0528L154.478 61.0805C154.509 61.1249 154.573 61.136 154.617 61.1055L155.055 60.8004Z" fill="#7D551F"/>
<path d="M156.6 58.8014C156.467 58.7626 156.337 58.7487 156.198 58.7459C156.065 58.7431 155.932 58.7598 155.801 58.7709C155.685 58.782 155.574 58.7792 155.463 58.818C155.463 58.8263 155.463 58.8347 155.46 58.8458C155.457 58.8568 155.457 58.8652 155.457 58.8735C155.455 58.8929 155.455 58.9151 155.452 58.9345C155.452 58.9373 155.452 58.9401 155.452 58.9428C155.452 58.9511 155.449 58.9595 155.449 58.9678C155.449 58.9761 155.446 58.9872 155.446 58.9955C155.443 59.0149 155.441 59.0371 155.438 59.0565C155.427 59.1176 155.416 59.1786 155.402 59.2396C155.399 59.2507 155.396 59.259 155.394 59.2701C155.391 59.2867 155.385 59.3034 155.38 59.32C155.377 59.3311 155.374 59.3422 155.371 59.3533C155.369 59.3644 155.366 59.3755 155.36 59.3866C155.36 59.3893 155.357 59.3921 155.357 59.3949C155.352 59.4115 155.346 59.4282 155.341 59.4476C155.338 59.4504 155.338 59.4559 155.338 59.4587C155.335 59.467 155.335 59.4725 155.333 59.4781L155.324 59.4975C155.319 59.5142 155.313 59.5308 155.308 59.5474C155.299 59.5724 155.291 59.5946 155.28 59.6195C155.272 59.639 155.266 59.6584 155.258 59.6778C155.255 59.6806 155.255 59.6861 155.252 59.6889C155.247 59.7055 155.238 59.7194 155.233 59.736C155.233 59.736 155.233 59.736 155.233 59.7388C155.222 59.7638 155.211 59.7887 155.197 59.8137C155.172 59.8636 155.144 59.9135 155.116 59.9634C155.064 60.055 155.008 60.1409 154.947 60.2241C154.922 60.2602 154.894 60.2963 154.864 60.3295C154.85 60.3462 154.836 60.3656 154.819 60.3822C154.806 60.3961 154.794 60.4127 154.781 60.4266C154.761 60.446 154.745 60.4654 154.725 60.4848C154.725 60.4848 154.72 60.4904 154.714 60.5015C154.711 60.5043 154.711 60.5098 154.709 60.5126C154.709 60.5154 154.706 60.5181 154.706 60.5181C154.706 60.5209 154.703 60.5237 154.703 60.5265C154.67 60.5902 154.659 60.6596 154.67 60.7289C154.67 60.7317 154.67 60.7345 154.67 60.7345C154.678 60.7788 154.697 60.8232 154.725 60.862C154.739 60.8842 154.758 60.9036 154.778 60.9231C154.792 60.9369 154.806 60.948 154.822 60.9591C154.878 60.9924 154.947 61.0007 155.014 60.9952C155.152 60.9813 155.296 60.9064 155.382 60.8565C156.101 60.41 156.572 59.6556 156.658 58.8125C156.636 58.8125 156.619 58.8069 156.6 58.8014Z" fill="#FFB300"/>
<path d="M155.802 58.7705C155.685 58.7816 155.574 58.7788 155.463 58.8176C155.463 58.8259 155.463 58.8343 155.46 58.8454C155.458 58.8565 155.458 58.8648 155.458 58.8731C155.458 58.8814 155.455 58.8925 155.455 58.9008C155.455 58.9119 155.452 58.923 155.452 58.9341C155.452 58.9369 155.452 58.9397 155.452 58.9424C155.452 58.9508 155.449 58.9591 155.449 58.9674C155.449 58.9757 155.447 58.9868 155.447 58.9951C155.447 59.0034 155.444 59.0145 155.441 59.0229C155.438 59.034 155.438 59.045 155.436 59.0561C155.433 59.0756 155.43 59.0922 155.424 59.1116C155.424 59.1144 155.424 59.1172 155.422 59.1227C155.419 59.131 155.419 59.1393 155.416 59.1504C155.413 59.1699 155.408 59.1893 155.402 59.2087C155.399 59.2198 155.397 59.2309 155.394 59.242C155.391 59.2531 155.388 59.2614 155.386 59.2725C155.383 59.2891 155.377 59.3058 155.372 59.3224C155.369 59.3335 155.366 59.3446 155.363 59.3557C155.361 59.3668 155.358 59.3779 155.352 59.389C155.352 59.3917 155.35 59.3945 155.35 59.3973C155.344 59.4139 155.338 59.4306 155.333 59.45C155.33 59.4527 155.33 59.4583 155.33 59.4611L155.325 59.4805L155.316 59.4999C155.311 59.5165 155.305 59.5332 155.3 59.5498C155.294 59.5665 155.289 59.5803 155.283 59.5942C155.28 59.6025 155.277 59.6108 155.272 59.6219C155.264 59.6413 155.258 59.6607 155.247 59.6802C155.244 59.6829 155.244 59.6885 155.241 59.6913C155.236 59.7079 155.227 59.7218 155.222 59.7384C155.222 59.7384 155.222 59.7384 155.222 59.7412C155.216 59.7523 155.211 59.7661 155.205 59.7772C155.2 59.7883 155.194 59.8022 155.186 59.8161C155.178 59.8355 155.166 59.8521 155.158 59.8688L155.142 59.8965C155.13 59.9187 155.117 59.9409 155.105 59.9658C155.097 59.9797 155.089 59.9963 155.078 60.0102C155.064 60.0324 155.05 60.0546 155.036 60.0768C155.028 60.0906 155.017 60.1073 155.008 60.1211C154.995 60.1433 154.978 60.1655 154.964 60.1877C154.953 60.2016 154.945 60.2154 154.936 60.2293C154.92 60.2543 154.9 60.2765 154.884 60.2986L154.861 60.3264C154.859 60.3291 154.856 60.3319 154.853 60.3375C154.839 60.3541 154.825 60.3735 154.809 60.3902C154.795 60.404 154.784 60.4207 154.77 60.4345C154.75 60.4539 154.734 60.4734 154.714 60.4928C154.714 60.4928 154.709 60.4983 154.703 60.5094C154.701 60.5122 154.701 60.5177 154.698 60.5205C154.698 60.5233 154.695 60.5261 154.695 60.5261C154.695 60.5288 154.692 60.5316 154.692 60.5344C154.659 60.5982 154.648 60.6675 154.659 60.7368C154.659 60.7396 154.659 60.7424 154.659 60.7424C154.667 60.7868 154.687 60.8311 154.714 60.87C154.728 60.8922 154.748 60.9116 154.767 60.931L154.77 60.9282C154.983 60.8034 155.18 60.6481 155.352 60.4678C155.374 60.4429 155.399 60.4179 155.422 60.3929C155.815 59.9547 156.057 59.3973 156.107 58.8093C156.109 58.7899 156.109 58.7677 156.109 58.7483C156.012 58.7511 155.907 58.7622 155.802 58.7705Z" fill="#FFD54F"/>
<path d="M156.664 58.6956L156.112 58.8066L155.452 58.9397C155.452 58.9369 155.452 58.9341 155.452 58.9314C155.452 58.9203 155.455 58.9092 155.455 58.8981C155.455 58.8898 155.458 58.8787 155.458 58.8703C155.458 58.862 155.46 58.8509 155.46 58.8426C155.463 58.8204 155.463 58.7955 155.466 58.7733C155.466 58.7566 155.466 58.7428 155.469 58.7261C155.469 58.6956 155.471 58.6651 155.471 58.6346C155.471 58.6235 155.471 58.6124 155.471 58.6041C155.471 58.6013 155.471 58.5985 155.471 58.5958C155.471 58.5764 155.471 58.5597 155.471 58.5403C155.471 58.5209 155.469 58.5015 155.469 58.4821C155.469 58.4599 155.466 58.4377 155.463 58.4155C155.463 58.3961 155.46 58.3794 155.458 58.36C155.455 58.3406 155.455 58.3212 155.452 58.3018C155.452 58.2962 155.449 58.2879 155.449 58.2824C155.446 58.2685 155.446 58.2574 155.444 58.2436V58.2408C155.441 58.2214 155.438 58.2019 155.435 58.1853C155.435 58.1798 155.435 58.177 155.433 58.1714L155.43 58.1603C155.427 58.1465 155.424 58.1354 155.421 58.1215C155.419 58.1104 155.419 58.0993 155.416 58.091C155.413 58.0799 155.413 58.0688 155.41 58.0577L155.408 58.0494C155.405 58.0439 155.405 58.0355 155.402 58.03C155.399 58.0244 155.399 58.0161 155.396 58.0106C155.385 57.9662 155.374 57.9218 155.363 57.8775C155.358 57.8553 155.352 57.8331 155.344 57.8109C155.335 57.7804 155.324 57.7471 155.313 57.7166L155.311 57.7055C155.311 57.7027 155.308 57.7 155.308 57.6972C155.294 57.6611 155.283 57.6251 155.269 57.589C155.263 57.5779 155.261 57.5641 155.255 57.553C155.25 57.5419 155.244 57.5308 155.241 57.5169C155.236 57.503 155.23 57.4892 155.222 57.4753C155.219 57.467 155.213 57.4587 155.211 57.4504C155.205 57.4365 155.197 57.4198 155.188 57.406C155.183 57.3921 155.175 57.3782 155.169 57.3644C155.158 57.3394 155.144 57.3172 155.133 57.295C155.127 57.2839 155.119 57.2729 155.114 57.259C155.111 57.2534 155.108 57.2507 155.105 57.2451C155.103 57.2396 155.1 57.2368 155.097 57.2313C155.091 57.2229 155.086 57.2146 155.083 57.2063C155.078 57.1952 155.072 57.1869 155.066 57.1758C155.047 57.1425 155.025 57.112 155.005 57.0787C155.005 57.0759 155.003 57.0759 155.003 57.0732C154.983 57.0454 154.964 57.0149 154.942 56.9872C154.861 56.8679 154.639 56.6045 154.54 56.3881C154.492 56.2883 154.473 56.1968 154.503 56.133C154.506 56.1247 154.512 56.1163 154.517 56.1108C154.523 56.1025 154.528 56.0969 154.537 56.0914C154.601 56.0387 154.681 56.0165 154.761 56.0137C154.925 56.0054 155.089 56.0664 155.105 56.0747C156.109 56.5601 156.725 57.5918 156.664 58.6956Z" fill="#FFD770"/>
<path d="M156.112 58.8093C156.181 57.9856 155.876 57.1397 155.213 56.5462C155.05 56.402 154.872 56.2744 154.678 56.1718C154.65 56.1579 154.623 56.1441 154.595 56.1302C154.578 56.1219 154.559 56.1135 154.542 56.1052C154.537 56.1108 154.528 56.1191 154.523 56.1246C154.517 56.133 154.512 56.1385 154.509 56.1468C154.478 56.2106 154.498 56.3021 154.545 56.402C154.645 56.6211 154.867 56.8818 154.947 57.001C154.969 57.0288 154.989 57.0593 155.008 57.087C155.008 57.0898 155.011 57.0898 155.011 57.0926C155.033 57.1258 155.052 57.1564 155.072 57.1896C155.075 57.1924 155.075 57.1952 155.077 57.198L155.088 57.2174C155.094 57.2257 155.1 57.234 155.102 57.2423C155.105 57.2479 155.108 57.2506 155.111 57.2562C155.113 57.259 155.116 57.2645 155.119 57.2701C155.127 57.2812 155.133 57.2922 155.138 57.3061C155.152 57.3283 155.163 57.3533 155.174 57.3754C155.18 57.3893 155.188 57.4032 155.194 57.4171C155.202 57.4309 155.208 57.4476 155.216 57.4614C155.219 57.4697 155.224 57.4781 155.227 57.4864C155.233 57.5003 155.241 57.5141 155.247 57.528C155.252 57.5391 155.258 57.553 155.26 57.564C155.263 57.5751 155.272 57.589 155.274 57.6001C155.288 57.6362 155.302 57.6722 155.313 57.7083C155.313 57.711 155.316 57.7138 155.316 57.7166L155.319 57.7277C155.33 57.7582 155.341 57.7887 155.349 57.822C155.355 57.8442 155.363 57.8663 155.369 57.8885C155.38 57.9329 155.391 57.9773 155.402 58.0217C155.405 58.03 155.405 58.0355 155.407 58.0411C155.407 58.0466 155.41 58.0549 155.413 58.0605L155.416 58.0688C155.419 58.0799 155.421 58.091 155.421 58.1021C155.421 58.1132 155.424 58.1243 155.427 58.1326C155.43 58.1465 155.432 58.1576 155.435 58.1714L155.438 58.1825C155.438 58.1853 155.438 58.1908 155.441 58.1964C155.443 58.2158 155.446 58.2352 155.449 58.2519V58.2546C155.452 58.2685 155.452 58.2796 155.455 58.2934C155.455 58.299 155.457 58.3045 155.457 58.3129C155.46 58.3323 155.46 58.3517 155.463 58.3711C155.466 58.3905 155.466 58.4072 155.468 58.4266C155.471 58.4488 155.471 58.4709 155.474 58.4931C155.474 58.5125 155.474 58.532 155.477 58.5514C155.477 58.5708 155.477 58.5874 155.477 58.6068C155.477 58.6096 155.477 58.6124 155.477 58.6152C155.477 58.6263 155.477 58.6346 155.477 58.6457C155.477 58.6762 155.477 58.7067 155.474 58.7372C155.474 58.7538 155.471 58.7677 155.471 58.7843C155.471 58.8093 155.468 58.8315 155.466 58.8537C155.466 58.862 155.463 58.8731 155.463 58.8814C155.463 58.8897 155.46 58.9008 155.46 58.9091C155.46 58.9202 155.457 58.9313 155.457 58.9424C155.457 58.9452 155.457 58.948 155.457 58.9508L156.112 58.8093Z" fill="#FFEA8C"/>
<path d="M155.452 58.9425C155.452 58.9425 156.051 58.8344 156.362 58.912C156.853 59.0341 157.025 59.059 157.399 60.088C157.413 60.1268 157.427 60.1628 157.443 60.1989C157.518 60.3625 157.735 60.7619 157.798 59.5C157.876 57.9829 156.664 58.2936 156.664 58.2936C156.223 58.4128 155.815 58.643 155.452 58.9425Z" fill="#FFCA28"/>
<path d="M75.6331 98.9383H75.5443L74.1049 98.8524C73.2979 98.8246 72.6655 98.1451 72.6933 97.3381C72.721 96.531 73.4005 95.8987 74.2075 95.9264C74.2297 95.9264 74.2547 95.9292 74.2769 95.9319H74.3324L75.1644 88.771C75.2004 88.4631 75.3336 88.1747 75.5416 87.9473L83.7869 79.0141C84.3666 78.4483 85.2929 78.4594 85.8587 79.039C86.3829 79.5743 86.4161 80.4174 85.9391 80.9943L78.0182 89.578L77.0808 97.6376C77.0032 98.3781 76.3764 98.9356 75.6331 98.9383Z" fill="#A16552"/>
<path d="M77.0394 105.123C78.8882 105.123 80.3869 103.624 80.3869 101.775C80.3869 99.9267 78.8882 98.428 77.0394 98.428C75.1906 98.428 73.6919 99.9267 73.6919 101.775C73.6919 103.624 75.1906 105.123 77.0394 105.123Z" fill="#FFD54F"/>
<path d="M77.0393 104.258C78.4102 104.258 79.5215 103.146 79.5215 101.775C79.5215 100.405 78.4102 99.2932 77.0393 99.2932C75.6685 99.2932 74.5571 100.405 74.5571 101.775C74.5571 103.146 75.6685 104.258 77.0393 104.258Z" fill="#FAF4E6"/>
<path d="M76.9086 102.048C76.9086 102.048 76.9585 101.778 76.6479 101.44C76.2014 100.955 76.1543 100.855 76.5592 100.971C76.9641 101.085 77.222 101.465 77.222 101.465" fill="#FFCA28"/>
<path d="M75.9549 102.696L75.9632 102.521L75.6193 102.508C75.5833 102.505 75.5528 102.532 75.5528 102.569L75.55 102.613C75.5472 102.649 75.575 102.679 75.611 102.679L75.9549 102.696Z" fill="#AC752C"/>
<path d="M75.9548 102.696L75.9575 102.607L75.5471 102.591V102.613C75.5443 102.649 75.572 102.68 75.6081 102.68L75.9548 102.696Z" fill="#7D551F"/>
<path d="M77.5356 102.277C77.4829 102.205 77.4219 102.147 77.3525 102.091C77.286 102.039 77.2111 101.994 77.139 101.947C77.0752 101.906 77.0197 101.861 76.9476 101.839C76.9448 101.845 76.9393 101.847 76.9365 101.853C76.9337 101.859 76.9282 101.861 76.9254 101.867C76.9171 101.878 76.906 101.886 76.8977 101.897L76.8949 101.9C76.8921 101.903 76.8866 101.908 76.8838 101.911C76.8811 101.914 76.8755 101.92 76.87 101.925C76.8616 101.933 76.8505 101.945 76.8422 101.953C76.8117 101.981 76.784 102.006 76.7507 102.033C76.7452 102.039 76.7396 102.042 76.7341 102.047C76.7257 102.053 76.7174 102.061 76.7091 102.067C76.7035 102.072 76.698 102.075 76.6897 102.08C76.6814 102.086 76.6786 102.089 76.6703 102.094L76.6675 102.097C76.6592 102.103 76.6481 102.111 76.6398 102.116C76.637 102.119 76.6342 102.119 76.6342 102.122C76.6314 102.125 76.6259 102.128 76.6231 102.13L76.612 102.139C76.6009 102.144 76.5926 102.153 76.5815 102.158C76.5677 102.166 76.5538 102.175 76.5399 102.183C76.5288 102.189 76.5177 102.197 76.5039 102.202C76.5011 102.202 76.4983 102.205 76.4983 102.205C76.49 102.211 76.4789 102.216 76.4706 102.222C76.4539 102.23 76.4401 102.238 76.4234 102.247C76.3902 102.263 76.3569 102.277 76.3236 102.294C76.2626 102.319 76.1988 102.344 76.1322 102.361C76.1045 102.369 76.0768 102.377 76.049 102.383C76.0352 102.385 76.0213 102.388 76.0046 102.391C75.9908 102.394 75.9797 102.397 75.9658 102.399C75.9492 102.402 75.9325 102.405 75.9131 102.408C75.9131 102.408 75.9076 102.41 75.8993 102.413C75.8965 102.413 75.8937 102.416 75.8909 102.416C75.8882 102.416 75.8882 102.419 75.8854 102.419C75.8826 102.419 75.8826 102.422 75.8798 102.422C75.8382 102.441 75.805 102.474 75.7828 102.513C75.7828 102.513 75.7828 102.516 75.78 102.516C75.7661 102.544 75.7606 102.571 75.7578 102.602C75.7578 102.618 75.7578 102.635 75.7606 102.654C75.7634 102.666 75.7661 102.679 75.7689 102.691C75.7855 102.729 75.8161 102.76 75.8521 102.785C75.927 102.832 76.0324 102.851 76.0962 102.86C76.6425 102.915 77.1834 102.713 77.5578 102.313C77.5494 102.299 77.5439 102.288 77.5356 102.277Z" fill="#FFB300"/>
<path d="M77.1392 101.947C77.0754 101.906 77.0199 101.861 76.9478 101.839C76.945 101.845 76.9395 101.847 76.9367 101.853C76.9339 101.859 76.9284 101.861 76.9256 101.867C76.9228 101.872 76.9173 101.875 76.9145 101.881C76.909 101.886 76.9034 101.892 76.8979 101.897L76.8951 101.9C76.8923 101.903 76.8868 101.908 76.884 101.911C76.8812 101.914 76.8757 101.92 76.8701 101.925C76.8646 101.931 76.8618 101.933 76.8563 101.939C76.8507 101.944 76.8452 101.95 76.8396 101.953C76.8313 101.961 76.8202 101.969 76.8119 101.978C76.8091 101.981 76.8091 101.981 76.8064 101.983C76.8008 101.986 76.798 101.992 76.7925 101.994C76.7842 102.003 76.7731 102.011 76.762 102.019C76.7564 102.025 76.7509 102.028 76.7453 102.033C76.7398 102.039 76.7343 102.042 76.7287 102.047C76.7204 102.053 76.7121 102.061 76.7037 102.067C76.6982 102.072 76.6927 102.075 76.6843 102.08C76.6788 102.086 76.6732 102.089 76.6649 102.094L76.6621 102.097C76.6538 102.103 76.6427 102.111 76.6344 102.116C76.6316 102.119 76.6289 102.119 76.6289 102.122L76.6178 102.13L76.6067 102.139C76.5956 102.144 76.5873 102.153 76.5762 102.158C76.5678 102.164 76.5595 102.169 76.5484 102.175C76.5429 102.177 76.5373 102.18 76.5318 102.183C76.5207 102.189 76.5096 102.197 76.4957 102.202C76.493 102.202 76.4902 102.205 76.4902 102.205C76.4819 102.211 76.4708 102.216 76.4625 102.222C76.4541 102.225 76.4486 102.23 76.4403 102.233C76.432 102.236 76.4236 102.241 76.4153 102.247C76.4042 102.252 76.3931 102.258 76.3793 102.263L76.3598 102.272C76.346 102.28 76.3293 102.286 76.3127 102.291C76.3016 102.297 76.2905 102.3 76.2822 102.305C76.2655 102.311 76.2517 102.316 76.235 102.322C76.2239 102.324 76.2128 102.33 76.2018 102.333C76.1851 102.338 76.1685 102.344 76.1518 102.349C76.1407 102.352 76.1324 102.355 76.1213 102.358C76.1019 102.363 76.0853 102.369 76.0659 102.372L76.0437 102.377C76.0409 102.377 76.0381 102.377 76.0353 102.38C76.0215 102.383 76.0076 102.385 75.991 102.388C75.9771 102.391 75.966 102.394 75.9521 102.397C75.9355 102.399 75.9189 102.402 75.8995 102.405C75.8995 102.405 75.8939 102.408 75.8856 102.41C75.8828 102.41 75.88 102.413 75.8773 102.413C75.8745 102.413 75.8745 102.416 75.8717 102.416C75.8689 102.416 75.8689 102.419 75.8662 102.419C75.8246 102.438 75.7913 102.471 75.7691 102.51C75.7691 102.51 75.7691 102.513 75.7663 102.513C75.7525 102.541 75.7469 102.569 75.7441 102.599C75.7441 102.616 75.7441 102.632 75.7469 102.652H75.7497C75.9105 102.671 76.0714 102.668 76.2295 102.646C76.2517 102.643 76.2739 102.641 76.2933 102.635C76.6705 102.566 77.0116 102.374 77.2695 102.091C77.2778 102.083 77.2862 102.072 77.2945 102.061C77.2529 102.019 77.1946 101.983 77.1392 101.947Z" fill="#FFD54F"/>
<path d="M77.6104 102.25L77.2831 102.089L76.8921 101.898L76.8949 101.895C76.9004 101.889 76.906 101.884 76.9115 101.878C76.9143 101.873 76.9198 101.87 76.9226 101.864C76.9281 101.859 76.9309 101.856 76.9337 101.85C76.9448 101.839 76.9531 101.828 76.9642 101.817C76.9697 101.809 76.9781 101.803 76.9836 101.795C76.9975 101.781 77.0086 101.764 77.0197 101.748C77.0252 101.742 77.028 101.737 77.0308 101.731C77.0308 101.728 77.0335 101.728 77.0335 101.726C77.0391 101.717 77.0474 101.706 77.0557 101.698C77.064 101.69 77.0696 101.678 77.0779 101.667C77.0862 101.656 77.0946 101.642 77.1029 101.631C77.1084 101.62 77.1167 101.612 77.1223 101.601C77.1278 101.59 77.1362 101.579 77.1417 101.568C77.1445 101.565 77.1472 101.559 77.1472 101.556C77.1528 101.548 77.1556 101.543 77.1611 101.534C77.1611 101.534 77.1611 101.534 77.1611 101.531C77.1667 101.52 77.1722 101.509 77.1805 101.498C77.1805 101.495 77.1833 101.493 77.1833 101.49L77.1861 101.484C77.1888 101.476 77.1944 101.468 77.1972 101.462C77.1999 101.457 77.2027 101.451 77.2083 101.443C77.2138 101.434 77.2138 101.432 77.2166 101.423L77.2194 101.418C77.2221 101.415 77.2221 101.409 77.2249 101.407C77.2277 101.404 77.2277 101.398 77.2304 101.396C77.2415 101.368 77.2554 101.343 77.2665 101.315C77.272 101.301 77.2776 101.287 77.2831 101.274C77.2915 101.254 77.297 101.235 77.3053 101.213L77.3081 101.207C77.3081 101.204 77.3081 101.204 77.3109 101.201C77.3192 101.179 77.3247 101.154 77.3331 101.129C77.3358 101.121 77.3386 101.113 77.3386 101.104C77.3414 101.096 77.3414 101.088 77.3442 101.079C77.3469 101.071 77.3497 101.06 77.3497 101.052C77.3497 101.046 77.3525 101.041 77.3525 101.035C77.3553 101.024 77.358 101.013 77.358 101.005C77.3608 100.996 77.3608 100.985 77.3636 100.977C77.3663 100.96 77.3691 100.944 77.3719 100.927C77.3747 100.919 77.3747 100.91 77.3747 100.902C77.3747 100.899 77.3747 100.896 77.3747 100.894C77.3747 100.891 77.3747 100.888 77.3747 100.882C77.3747 100.877 77.3774 100.869 77.3774 100.863C77.3774 100.855 77.3802 100.849 77.3802 100.841C77.383 100.816 77.3858 100.791 77.3858 100.766V100.763C77.3858 100.741 77.3885 100.719 77.3885 100.694C77.3941 100.6 77.3858 100.378 77.419 100.228C77.4357 100.159 77.4606 100.103 77.5022 100.084C77.5078 100.081 77.5133 100.078 77.5189 100.078C77.5244 100.078 77.53 100.075 77.5355 100.075C77.5882 100.073 77.6381 100.095 77.6825 100.123C77.7685 100.184 77.8295 100.278 77.8351 100.289C78.1706 100.935 78.0763 101.706 77.6104 102.25Z" fill="#FFD770"/>
<path d="M77.2833 102.089C77.6438 101.692 77.8213 101.14 77.7159 100.572C77.691 100.433 77.6466 100.297 77.5884 100.17C77.58 100.15 77.5717 100.134 77.5634 100.114C77.5578 100.103 77.5523 100.092 77.5468 100.081C77.5412 100.081 77.5357 100.081 77.5301 100.084C77.5246 100.087 77.519 100.087 77.5135 100.089C77.4719 100.112 77.4469 100.164 77.4303 100.234C77.3942 100.386 77.4053 100.605 77.3998 100.7C77.3998 100.722 77.397 100.744 77.397 100.769V100.772C77.3942 100.797 77.3942 100.822 77.3914 100.847C77.3914 100.849 77.3914 100.852 77.3914 100.852L77.3887 100.869C77.3887 100.874 77.3859 100.883 77.3859 100.888C77.3859 100.891 77.3859 100.894 77.3859 100.899C77.3859 100.902 77.3859 100.905 77.3859 100.908C77.3859 100.916 77.3831 100.924 77.3831 100.932C77.3803 100.949 77.3776 100.966 77.3748 100.982C77.372 100.991 77.372 101.002 77.3693 101.01C77.3665 101.021 77.3637 101.032 77.3637 101.041C77.3637 101.046 77.3609 101.052 77.3609 101.057C77.3582 101.068 77.3554 101.077 77.3554 101.085C77.3526 101.093 77.3498 101.102 77.3498 101.11C77.3471 101.118 77.3443 101.127 77.3443 101.135C77.3387 101.16 77.3304 101.182 77.3221 101.207C77.3221 101.21 77.3221 101.21 77.3193 101.213L77.3166 101.218C77.311 101.238 77.3027 101.26 77.2944 101.279C77.2888 101.293 77.2833 101.307 77.2777 101.321C77.2666 101.349 77.2555 101.376 77.2417 101.401C77.2389 101.407 77.2389 101.41 77.2361 101.412C77.2334 101.415 77.2334 101.421 77.2306 101.423L77.2278 101.429C77.225 101.434 77.2223 101.443 77.2195 101.448C77.2167 101.454 77.2139 101.459 77.2084 101.468C77.2056 101.476 77.2001 101.482 77.1973 101.49L77.1945 101.495C77.1945 101.498 77.1918 101.501 77.1918 101.504C77.1862 101.515 77.1807 101.526 77.1723 101.537C77.1723 101.537 77.1723 101.537 77.1723 101.54C77.1696 101.548 77.164 101.554 77.1585 101.562C77.1557 101.565 77.1557 101.568 77.1529 101.573C77.1446 101.584 77.1391 101.595 77.1335 101.606C77.128 101.618 77.1196 101.626 77.1141 101.637C77.1058 101.648 77.0975 101.662 77.0891 101.673C77.0836 101.684 77.0753 101.692 77.067 101.703C77.0586 101.715 77.0531 101.723 77.0448 101.731C77.0448 101.734 77.042 101.734 77.042 101.737C77.0392 101.742 77.0337 101.748 77.0309 101.753C77.0198 101.77 77.0059 101.784 76.9948 101.801C76.9893 101.809 76.981 101.814 76.9754 101.823C76.9643 101.834 76.956 101.845 76.9449 101.856C76.9421 101.862 76.9366 101.864 76.9338 101.87C76.9311 101.875 76.9255 101.878 76.9227 101.884C76.9172 101.889 76.9116 101.895 76.9061 101.9L76.9033 101.903L77.2833 102.089Z" fill="#FFEA8C"/>
<path d="M76.8921 101.897C76.8921 101.897 77.2443 102.078 77.3719 102.241C77.5744 102.499 77.6548 102.58 77.4412 103.256C77.4329 103.281 77.4274 103.306 77.4218 103.331C77.3941 103.445 77.3497 103.736 77.8794 103.112C78.5201 102.363 77.774 102.044 77.774 102.044C77.4967 101.931 77.1972 101.886 76.8921 101.897Z" fill="#FFCA28"/>
<path d="M72.6129 105.667C74.7373 105.667 76.4596 103.945 76.4596 101.82C76.4596 99.6959 74.7373 97.9736 72.6129 97.9736C70.4884 97.9736 68.7661 99.6959 68.7661 101.82C68.7661 103.945 70.4884 105.667 72.6129 105.667Z" fill="#FFD54F"/>
<path d="M72.6128 104.671C74.1874 104.671 75.4639 103.395 75.4639 101.82C75.4639 100.245 74.1874 98.969 72.6128 98.969C71.0382 98.969 69.7617 100.245 69.7617 101.82C69.7617 103.395 71.0382 104.671 72.6128 104.671Z" fill="#FAF4E6"/>
<path d="M72.7292 102.147C72.7292 102.147 72.549 101.89 72.022 101.87C71.2649 101.845 71.1456 101.801 71.5672 101.562C71.9859 101.324 72.5074 101.418 72.5074 101.418" fill="#FFCA28"/>
<path d="M72.4879 103.451L72.352 103.304L72.0608 103.573C72.0303 103.601 72.0303 103.648 72.0581 103.678L72.0941 103.717C72.1219 103.748 72.169 103.748 72.1995 103.72L72.4879 103.451Z" fill="#AC752C"/>
<path d="M72.4879 103.451L72.4186 103.376L72.0747 103.698L72.0913 103.717C72.1191 103.748 72.1662 103.748 72.1967 103.72L72.4879 103.451Z" fill="#7D551F"/>
<path d="M73.4254 101.823C73.3227 101.809 73.2257 101.812 73.1231 101.823C73.026 101.834 72.9289 101.859 72.8319 101.881C72.7459 101.901 72.6655 101.912 72.5878 101.95C72.5878 101.956 72.5878 101.964 72.5878 101.97C72.5878 101.975 72.5878 101.984 72.5878 101.989C72.5878 102.003 72.5906 102.02 72.5906 102.036C72.5906 102.039 72.5906 102.039 72.5906 102.042C72.5906 102.048 72.5906 102.056 72.5906 102.061C72.5906 102.067 72.5906 102.075 72.5906 102.084C72.5906 102.1 72.5906 102.114 72.5906 102.131C72.5906 102.178 72.5878 102.222 72.5822 102.269C72.5822 102.278 72.5795 102.286 72.5795 102.292C72.5795 102.303 72.5767 102.317 72.5739 102.328C72.5739 102.336 72.5712 102.344 72.5712 102.355C72.5712 102.364 72.5684 102.372 72.5684 102.38C72.5684 102.383 72.5684 102.383 72.5684 102.386C72.5656 102.4 72.5656 102.414 72.5628 102.425C72.5628 102.427 72.5628 102.43 72.5601 102.433C72.5601 102.439 72.5573 102.444 72.5573 102.45L72.5545 102.466C72.5517 102.48 72.549 102.494 72.5462 102.505C72.5434 102.525 72.5379 102.541 72.5323 102.561C72.5296 102.574 72.524 102.591 72.5212 102.605C72.5212 102.608 72.5185 102.611 72.5185 102.613C72.5157 102.624 72.5129 102.638 72.5074 102.649C72.5018 102.669 72.4963 102.688 72.488 102.708C72.4741 102.746 72.4602 102.788 72.4436 102.827C72.4158 102.899 72.3826 102.968 72.3437 103.038C72.3271 103.068 72.3105 103.096 72.2938 103.124C72.2855 103.137 72.2772 103.151 72.2661 103.168C72.2578 103.179 72.2494 103.193 72.2411 103.204C72.23 103.221 72.2189 103.237 72.2078 103.254C72.2078 103.254 72.2051 103.259 72.1995 103.268C72.1995 103.271 72.1967 103.273 72.1967 103.276C72.1967 103.279 72.1967 103.279 72.194 103.282C72.194 103.284 72.194 103.284 72.1912 103.287C72.1746 103.337 72.1718 103.39 72.1884 103.44C72.1884 103.443 72.1884 103.443 72.1912 103.445C72.2023 103.479 72.2217 103.509 72.2439 103.534C72.2578 103.548 72.2716 103.562 72.2883 103.573C72.2994 103.581 72.3132 103.59 72.3243 103.595C72.3687 103.614 72.4186 103.614 72.4685 103.603C72.5684 103.578 72.6682 103.509 72.7265 103.465C73.2118 103.063 73.4836 102.458 73.4614 101.828C73.4531 101.826 73.4392 101.826 73.4254 101.823Z" fill="#FFB300"/>
<path d="M72.8345 101.881C72.7485 101.901 72.6681 101.912 72.5904 101.951C72.5904 101.956 72.5904 101.965 72.5904 101.97C72.5904 101.976 72.5904 101.984 72.5904 101.99C72.5904 101.995 72.5904 102.003 72.5904 102.009C72.5904 102.017 72.5904 102.026 72.5904 102.034C72.5904 102.037 72.5904 102.037 72.5904 102.04C72.5904 102.045 72.5904 102.053 72.5904 102.059C72.5904 102.065 72.5904 102.073 72.5904 102.081C72.5904 102.087 72.5904 102.095 72.5904 102.103C72.5904 102.112 72.5904 102.12 72.5904 102.128C72.5904 102.142 72.5904 102.156 72.5876 102.17C72.5876 102.173 72.5876 102.175 72.5876 102.178C72.5876 102.184 72.5876 102.192 72.5876 102.198C72.5876 102.212 72.5849 102.228 72.5849 102.242C72.5849 102.25 72.5848 102.259 72.5821 102.267C72.5793 102.275 72.5793 102.284 72.5793 102.289C72.5793 102.303 72.5765 102.314 72.5738 102.325C72.5738 102.334 72.571 102.342 72.571 102.353C72.571 102.364 72.5682 102.37 72.5682 102.378C72.5682 102.381 72.5682 102.381 72.5682 102.383C72.5654 102.397 72.5627 102.411 72.5627 102.422C72.5627 102.425 72.5627 102.428 72.5599 102.431L72.5571 102.447L72.5543 102.464C72.5516 102.478 72.5488 102.492 72.546 102.503C72.5432 102.514 72.5405 102.525 72.5377 102.539C72.5349 102.544 72.5349 102.553 72.5322 102.558C72.5294 102.572 72.5238 102.589 72.5211 102.603C72.5211 102.605 72.5183 102.608 72.5183 102.611C72.5155 102.622 72.5127 102.636 72.5072 102.647C72.5044 102.655 72.5016 102.666 72.4989 102.675C72.4961 102.683 72.4933 102.694 72.4906 102.705C72.485 102.719 72.4795 102.733 72.4767 102.747L72.4684 102.769C72.4628 102.788 72.4545 102.805 72.449 102.824C72.4434 102.836 72.4379 102.849 72.4351 102.86C72.4268 102.877 72.4184 102.897 72.4129 102.913C72.4074 102.924 72.4018 102.935 72.3963 102.949C72.3879 102.966 72.3796 102.985 72.3685 103.002C72.363 103.013 72.3574 103.024 72.3519 103.035C72.3408 103.055 72.3297 103.074 72.3186 103.093L72.3047 103.116C72.302 103.118 72.302 103.121 72.2992 103.124C72.2909 103.138 72.2825 103.152 72.2715 103.168C72.2631 103.179 72.2548 103.193 72.2465 103.204C72.2354 103.221 72.2243 103.238 72.2132 103.254C72.2132 103.254 72.2104 103.26 72.2049 103.268C72.2049 103.271 72.2021 103.274 72.2021 103.276C72.2021 103.279 72.2021 103.279 72.1993 103.282C72.1966 103.285 72.1993 103.285 72.1966 103.288C72.1799 103.338 72.1772 103.39 72.1938 103.44C72.1938 103.443 72.1938 103.443 72.1966 103.446C72.2077 103.479 72.2271 103.509 72.2493 103.534C72.2631 103.548 72.277 103.562 72.2936 103.573L72.2964 103.57C72.4406 103.457 72.571 103.324 72.6791 103.174C72.693 103.154 72.7097 103.132 72.7235 103.113C72.9704 102.75 73.0896 102.314 73.0674 101.876C73.0674 101.862 73.0647 101.845 73.0647 101.832C72.9842 101.845 72.9093 101.865 72.8345 101.881Z" fill="#FFD54F"/>
<path d="M73.4615 101.74L73.0677 101.878L72.5962 102.045C72.5962 102.042 72.5962 102.042 72.5962 102.039C72.5962 102.031 72.5962 102.023 72.5962 102.014C72.5962 102.009 72.5962 102 72.5962 101.995C72.5962 101.989 72.5962 101.981 72.5962 101.975C72.5962 101.959 72.5934 101.939 72.5934 101.923C72.5934 101.912 72.5906 101.901 72.5906 101.89C72.5879 101.867 72.5851 101.845 72.5823 101.823C72.5823 101.815 72.5795 101.806 72.5795 101.801C72.5795 101.798 72.5795 101.795 72.5795 101.792C72.5768 101.779 72.574 101.765 72.574 101.754C72.5712 101.74 72.5684 101.726 72.5657 101.712C72.5629 101.695 72.5601 101.679 72.5546 101.665C72.5518 101.651 72.549 101.637 72.5463 101.623C72.5435 101.609 72.5407 101.596 72.5352 101.579C72.5352 101.573 72.5324 101.571 72.5324 101.565C72.5296 101.557 72.5268 101.546 72.5241 101.537V101.535C72.5213 101.521 72.5157 101.507 72.513 101.493C72.513 101.49 72.5102 101.487 72.5102 101.485L72.5074 101.476C72.5047 101.468 72.5019 101.457 72.4991 101.449C72.4963 101.44 72.4936 101.432 72.4908 101.426C72.488 101.421 72.4852 101.41 72.4825 101.404L72.4797 101.399C72.4769 101.393 72.4769 101.39 72.4741 101.385C72.4714 101.379 72.4714 101.376 72.4686 101.371C72.4575 101.34 72.4436 101.307 72.4298 101.277C72.4242 101.26 72.4159 101.246 72.4104 101.229C72.3993 101.207 72.3909 101.185 72.3798 101.163L72.3771 101.157C72.3771 101.155 72.3743 101.155 72.3743 101.152C72.3604 101.127 72.3466 101.102 72.3327 101.077C72.3272 101.069 72.3244 101.06 72.3188 101.052C72.3133 101.044 72.3077 101.035 72.305 101.027C72.2994 101.019 72.2939 101.008 72.2883 100.999C72.2856 100.994 72.28 100.988 72.2772 100.983C72.2717 100.972 72.2634 100.963 72.2578 100.952C72.2523 100.944 72.2467 100.933 72.2384 100.924C72.2273 100.908 72.2162 100.894 72.2051 100.877C72.1996 100.869 72.194 100.861 72.1857 100.852C72.1829 100.849 72.1802 100.847 72.1774 100.844C72.1746 100.841 72.1718 100.838 72.1691 100.836C72.1635 100.83 72.1607 100.825 72.1552 100.819C72.1497 100.813 72.1441 100.805 72.1386 100.8C72.1219 100.777 72.1025 100.755 72.0831 100.736L72.0803 100.733C72.0637 100.714 72.0443 100.694 72.0276 100.675C71.9555 100.594 71.7669 100.425 71.6726 100.273C71.6283 100.203 71.6033 100.139 71.6199 100.09C71.6227 100.084 71.6255 100.076 71.6283 100.07C71.631 100.065 71.6366 100.059 71.6393 100.054C71.6809 100.006 71.7364 99.9842 71.7974 99.9731C71.9167 99.9509 72.0443 99.9786 72.0581 99.9842C72.8375 100.22 73.3949 100.919 73.4615 101.74Z" fill="#FFD770"/>
<path d="M73.0646 101.878C73.0341 101.263 72.7234 100.672 72.1743 100.3C72.0384 100.209 71.8942 100.134 71.7416 100.078C71.7195 100.07 71.6973 100.062 71.6751 100.056C71.6612 100.051 71.6474 100.048 71.6335 100.042C71.6279 100.048 71.6252 100.053 71.6224 100.059C71.6196 100.064 71.6168 100.07 71.6141 100.078C71.5974 100.128 71.6224 100.195 71.6668 100.261C71.7611 100.411 71.9524 100.583 72.0218 100.663C72.0412 100.683 72.0578 100.702 72.0745 100.722L72.0772 100.725C72.0966 100.747 72.1161 100.766 72.1327 100.788C72.1355 100.791 72.1355 100.794 72.1382 100.794L72.1493 100.808C72.1549 100.813 72.1577 100.819 72.1632 100.824C72.166 100.827 72.1688 100.83 72.1715 100.833C72.1743 100.835 72.1771 100.838 72.1799 100.841C72.1854 100.849 72.1937 100.858 72.1993 100.866C72.2104 100.883 72.2215 100.899 72.2325 100.913C72.2381 100.921 72.2464 100.933 72.252 100.941C72.2575 100.952 72.2658 100.96 72.2714 100.971C72.2741 100.977 72.2797 100.982 72.2825 100.988C72.288 100.996 72.2936 101.007 72.2991 101.016C72.3047 101.024 72.3102 101.032 72.313 101.041C72.3157 101.049 72.3241 101.057 72.3268 101.066C72.3407 101.091 72.3546 101.116 72.3684 101.141C72.3684 101.143 72.3712 101.143 72.3712 101.146L72.374 101.152C72.3851 101.174 72.3962 101.196 72.4045 101.218C72.4128 101.235 72.4184 101.249 72.4239 101.265C72.4378 101.296 72.4489 101.329 72.4627 101.36C72.4655 101.365 72.4655 101.368 72.4683 101.373C72.4711 101.379 72.4711 101.382 72.4738 101.387L72.4766 101.393C72.4794 101.401 72.4822 101.407 72.4849 101.415C72.4877 101.423 72.4905 101.429 72.4932 101.437C72.496 101.446 72.4988 101.457 72.5016 101.465L72.5043 101.473C72.5043 101.476 72.5071 101.479 72.5071 101.482C72.5127 101.496 72.5154 101.509 72.5182 101.523V101.526C72.521 101.534 72.5238 101.545 72.5265 101.554C72.5265 101.559 72.5293 101.562 72.5293 101.568C72.5321 101.581 72.5376 101.595 72.5404 101.612C72.5432 101.629 72.5459 101.64 72.5487 101.654C72.5515 101.67 72.5543 101.687 72.5598 101.701C72.5626 101.715 72.5654 101.728 72.5681 101.742C72.5709 101.756 72.5709 101.77 72.5737 101.781C72.5737 101.784 72.5737 101.787 72.5737 101.789C72.5737 101.798 72.5765 101.803 72.5765 101.812C72.5792 101.834 72.582 101.856 72.5848 101.878C72.5848 101.889 72.5875 101.9 72.5875 101.912C72.5903 101.928 72.5903 101.948 72.5903 101.964C72.5903 101.97 72.5903 101.978 72.5903 101.984C72.5903 101.989 72.5903 101.998 72.5903 102.003C72.5903 102.011 72.5903 102.02 72.5903 102.028C72.5903 102.031 72.5903 102.031 72.5903 102.034L73.0646 101.878Z" fill="#FFEA8C"/>
<path d="M72.5933 102.042C72.5933 102.042 73.0231 101.901 73.2617 101.929C73.6361 101.97 73.7664 101.97 74.1464 102.691C74.1602 102.719 74.1741 102.744 74.1908 102.769C74.2629 102.883 74.4625 103.154 74.3821 102.217C74.2878 101.091 73.4253 101.443 73.4253 101.443C73.1091 101.574 72.829 101.784 72.5933 102.042Z" fill="#FFCA28"/>
<path d="M78.5008 112.436H71.215C70.5327 112.436 69.9559 111.937 69.856 111.263L68.7217 103.609H80.9913L79.857 111.263C79.7627 111.937 79.183 112.436 78.5008 112.436Z" fill="#C8653B"/>
<path d="M81.9541 102.841H81.735C81.7904 99.0882 78.7951 96.0014 75.0455 95.9459C71.2958 95.8904 68.2062 98.8857 68.1507 102.635C68.1507 102.702 68.1507 102.771 68.1507 102.838H67.9316C67.9289 98.9662 71.0656 95.8294 74.9373 95.8267C78.809 95.8239 81.9457 98.9606 81.9485 102.832C81.9485 102.835 81.9485 102.835 81.9485 102.838H81.9541V102.841Z" fill="#C8C8C8"/>
<path d="M68.0089 102.075H81.876C82.1728 102.075 82.4113 102.316 82.4113 102.61V103.071C82.4113 103.368 82.17 103.606 81.876 103.606H68.0089C67.7121 103.606 67.4736 103.365 67.4736 103.071V102.61C67.4736 102.314 67.7149 102.075 68.0089 102.075Z" fill="#9C4F2E"/>
<path d="M148.835 45.4559C150.194 57.7699 139.302 64.1016 131.997 72.1889C131.942 68.2257 131.95 64.2597 131.867 60.2993C133.744 52.5697 142.575 48.2321 141.069 38.8552C141.463 45.761 135.628 49.6271 131.653 54.403C131.531 52.1593 131.354 49.9211 131.093 47.6885C130.364 41.3263 128.952 35.0195 126.17 28.832C126.29 29.1454 126.403 29.4616 126.511 29.7778C126.378 29.4644 126.24 29.151 126.098 28.8376C126.661 30.3269 127.149 31.8273 127.568 33.3305C128.297 36.2398 128.722 39.224 128.924 42.2693C123.455 37.2105 114.38 38.478 109.569 32.26C114.383 39.7066 124.198 38.3615 129.013 45.8081C129.03 45.7776 129.046 45.7471 129.063 45.7194C129.182 53.5155 128.07 61.6305 126.969 69.74C125.402 68.3144 123.502 67.3188 121.486 66.4701C117.742 62.2157 123.685 57.157 119.043 52.9747C122.368 56.7493 117.37 61.2117 118.188 65.1971C113.51 63.4665 108.831 61.7359 106.626 56.8353C109.96 66.8223 121.73 66.0042 126.353 74.3411C125.147 83.682 124.279 92.9341 125.677 101.598C125.776 102.208 126.129 102.752 126.647 103.09C128.131 104.064 131.487 105.611 135.536 103.296C136.274 102.874 136.584 101.97 136.288 101.171C135.944 100.242 135.625 99.3019 135.328 98.3534C134.036 94.2015 133.284 89.9416 132.724 85.6372C132.657 85.1186 132.635 84.6027 132.652 84.0897C132.763 80.7865 134.513 77.6609 136.249 74.9207C139.158 70.3279 142.986 66.3897 145.817 61.7414C147.218 59.445 148.352 56.9712 148.926 54.3336C149.231 52.9386 149.378 51.5131 149.37 50.0875C149.364 48.5039 149.007 47.0173 148.835 45.4559Z" fill="#525000"/>
<path d="M165.911 28.1357C165.919 27.9443 165.928 27.7502 165.933 27.556C166.288 14.2492 156.093 3.18321 143.163 2.83931C141.252 2.78939 139.386 2.97798 137.597 3.37458C135.229 1.34166 132.244 0.0908489 128.972 0.00487293C121.589 -0.19204 115.346 5.60163 114.284 13.259C113.238 12.9678 112.145 12.7959 111.019 12.7654C105.032 12.6073 99.7926 16.3847 97.4601 21.901C89.9359 22.2477 83.8205 28.7985 83.6041 36.9995C83.3767 45.5583 89.653 52.6666 97.6238 52.8773C98.1008 52.8912 98.5751 52.8773 99.041 52.8385C98.9689 61.2614 105.187 68.206 113.063 68.4141C117.21 68.525 120.993 66.7445 123.705 63.8102C127.269 66.2813 131.534 67.7706 136.152 67.8926C144.42 68.1117 151.805 63.8934 156.146 57.3426C157.624 57.9416 159.219 58.2938 160.888 58.3382C168.859 58.549 175.507 51.7846 175.734 43.2258C175.92 36.2479 171.774 30.2296 165.911 28.1357Z" fill="#6A8922"/>
<path d="M136.696 2.66485C132.877 4.96679 130.112 9.07977 129.435 13.9416C128.389 13.6504 127.297 13.4784 126.171 13.4479C120.183 13.287 114.944 17.0672 112.611 22.5836C105.087 22.9275 98.9717 29.481 98.7526 37.6821C98.5251 46.2408 104.801 53.3519 112.775 53.5627C113.252 53.5765 113.723 53.5599 114.192 53.5266C114.145 58.8793 116.644 63.6357 120.491 66.4452C118.297 67.7681 115.759 68.4948 113.066 68.4226C105.19 68.2146 98.9717 61.2672 99.0438 52.8471C98.5778 52.8832 98.1036 52.897 97.6265 52.8832C89.6557 52.6724 83.3767 45.5613 83.6041 37.0026C83.8232 28.8016 89.9359 22.2507 97.4629 21.9041C99.7954 16.3877 105.037 12.6103 111.022 12.7684C112.148 12.7962 113.241 12.9709 114.286 13.2621C115.349 5.60468 121.592 -0.186225 128.975 0.00791459C131.842 0.0827969 134.491 1.05349 136.696 2.66485Z" fill="#597221"/>
<path opacity="0.1" d="M175.662 44.3938C174.897 52.3923 168.493 58.5438 160.888 58.3413C159.218 58.2969 157.624 57.9475 156.146 57.3456C151.802 63.8965 144.42 68.1148 136.152 67.8957C131.534 67.7737 127.269 66.2844 123.705 63.8133C120.992 66.7475 117.21 68.5281 113.063 68.4171C105.187 68.2091 98.9687 61.2617 99.0408 52.8416C98.5749 52.8777 98.1006 52.8915 97.6236 52.8777C89.6528 52.6669 83.3738 45.5558 83.6012 36.9971C83.701 33.3029 84.9935 29.9443 87.0763 27.3345C87.0375 27.7172 87.0153 28.1027 87.0042 28.4938C86.7768 37.0525 92.4761 45.9469 100.447 46.1577C100.924 46.1715 99.981 46.1937 100.447 46.1577C100.375 54.5778 108.59 59.7031 116.466 59.9111C120.612 60.0192 124.395 58.2415 127.108 55.3072C130.672 57.7783 134.937 59.2676 139.555 59.3897C147.823 59.6088 155.208 55.3904 159.549 48.8396C161.027 49.4386 162.621 49.7909 164.291 49.8352C168.823 49.96 172.922 47.8273 175.662 44.3938Z" fill="#010101"/>
<path d="M96.0097 42.4889C100.299 42.4889 103.775 39.0121 103.775 34.7233C103.775 30.4345 100.299 26.9578 96.0097 26.9578C91.7209 26.9578 88.2441 30.4345 88.2441 34.7233C88.2441 39.0121 91.7209 42.4889 96.0097 42.4889Z" fill="#FFD54F"/>
<path d="M96.0097 40.4782C99.1881 40.4782 101.765 37.9017 101.765 34.7234C101.765 31.545 99.1881 28.9685 96.0097 28.9685C92.8314 28.9685 90.2549 31.545 90.2549 34.7234C90.2549 37.9017 92.8314 40.4782 96.0097 40.4782Z" fill="#FAF4E6"/>
<path d="M95.779 35.3836C95.779 35.3836 95.8234 34.7512 95.0136 34.0551C93.8543 33.0595 93.7212 32.8404 94.6835 32.9957C95.6459 33.151 96.3448 33.9553 96.3448 33.9553" fill="#FFCA28"/>
<path d="M93.7573 37.1337L93.7268 36.7288L92.9281 36.787C92.8449 36.7925 92.7839 36.8647 92.7894 36.9479L92.7977 37.0532C92.8033 37.1364 92.8754 37.1975 92.9586 37.1919L93.7573 37.1337Z" fill="#AC752C"/>
<path d="M93.7573 37.1334L93.7434 36.9309L92.7949 37.0002L92.7977 37.0529C92.8032 37.1361 92.8754 37.1972 92.9586 37.1916L93.7573 37.1334Z" fill="#7D551F"/>
<path d="M97.2881 35.7494C97.1466 35.5969 96.9913 35.4776 96.8138 35.3694C96.6446 35.264 96.4616 35.1836 96.2841 35.0949C96.126 35.0172 95.9846 34.9312 95.8126 34.8979C95.8043 34.909 95.796 34.9201 95.7904 34.9312C95.7821 34.9423 95.7738 34.9534 95.7655 34.9645C95.7488 34.9895 95.7294 35.0144 95.71 35.0394C95.7072 35.0422 95.7044 35.0449 95.7017 35.0477C95.6933 35.0588 95.685 35.0699 95.6767 35.0782C95.6684 35.0893 95.6601 35.1004 95.649 35.1115C95.6296 35.1365 95.6101 35.1587 95.5907 35.1836C95.5297 35.2557 95.4687 35.3223 95.4021 35.3916C95.391 35.4027 95.3799 35.4138 95.3689 35.4249C95.3522 35.4415 95.3328 35.461 95.3162 35.4776C95.3023 35.4915 95.2912 35.5026 95.2773 35.5136C95.2635 35.5247 95.2524 35.5386 95.2385 35.5497C95.2357 35.5525 95.233 35.5552 95.2302 35.558C95.2108 35.5774 95.1914 35.5941 95.1692 35.6135C95.1636 35.6163 95.1608 35.6218 95.1553 35.6246C95.147 35.6329 95.1387 35.6385 95.1303 35.6468L95.1054 35.669C95.0832 35.6856 95.0638 35.705 95.0416 35.7217C95.0111 35.7466 94.9806 35.7688 94.9501 35.7938C94.9251 35.8132 94.9001 35.8326 94.8752 35.8492C94.8696 35.852 94.8669 35.8548 94.8613 35.8603C94.8391 35.8742 94.8197 35.8908 94.8003 35.9047C94.8003 35.9047 94.8003 35.9047 94.7975 35.9075C94.7643 35.9297 94.731 35.9546 94.6949 35.9768C94.6228 36.024 94.5507 36.0683 94.4758 36.1099C94.3399 36.1876 94.1985 36.2569 94.0543 36.3152C93.9932 36.3429 93.9295 36.3651 93.8657 36.39C93.8352 36.4011 93.8019 36.4122 93.7686 36.4233C93.7409 36.4316 93.7131 36.4427 93.6826 36.4511C93.6438 36.4622 93.605 36.4732 93.5661 36.4843C93.5661 36.4843 93.555 36.4899 93.5384 36.4982C93.5328 36.501 93.5273 36.5038 93.5218 36.5065C93.519 36.5093 93.5162 36.5093 93.5134 36.5121C93.5107 36.5149 93.5079 36.5176 93.5023 36.5176C93.4136 36.5731 93.3443 36.6563 93.3027 36.7534C93.3027 36.7561 93.2999 36.7589 93.2999 36.7617C93.2749 36.8282 93.2666 36.8976 93.2722 36.9669C93.2749 37.0057 93.2805 37.0473 93.2916 37.0862C93.2999 37.1139 93.3082 37.1416 93.3221 37.1666C93.3692 37.2554 93.4496 37.3164 93.5412 37.3607C93.7298 37.4495 93.9738 37.4661 94.1208 37.4661C95.3938 37.4439 96.5836 36.8366 97.3435 35.816C97.3269 35.791 97.3075 35.7716 97.2881 35.7494Z" fill="#FFB300"/>
<path d="M96.2838 35.0949C96.1257 35.0172 95.9842 34.9312 95.8123 34.8979C95.8039 34.909 95.7956 34.9201 95.7901 34.9312C95.7818 34.9423 95.7734 34.9534 95.7651 34.9645C95.7568 34.9756 95.7485 34.9867 95.7402 34.9978C95.7291 35.0117 95.7207 35.0255 95.7097 35.0394C95.7069 35.0422 95.7041 35.0449 95.7013 35.0477C95.693 35.0588 95.6847 35.0699 95.6764 35.0782C95.6681 35.0893 95.6597 35.1004 95.6486 35.1115C95.6403 35.1226 95.6292 35.1337 95.6209 35.1448C95.6126 35.1559 95.5987 35.1725 95.5904 35.1836C95.571 35.2058 95.5543 35.2252 95.5349 35.2474C95.5322 35.2502 95.5294 35.2557 95.5238 35.2585C95.5155 35.2696 95.5072 35.2779 95.4961 35.289C95.4767 35.3112 95.4573 35.3334 95.4351 35.3528C95.424 35.3639 95.4129 35.3778 95.4018 35.3888C95.3907 35.3999 95.3796 35.411 95.3685 35.4221C95.3519 35.4388 95.3325 35.4582 95.3158 35.4748C95.302 35.4887 95.2909 35.4998 95.277 35.5109C95.2631 35.522 95.252 35.5358 95.2382 35.5469C95.2354 35.5497 95.2326 35.5525 95.2299 35.5553C95.2104 35.5747 95.191 35.5913 95.1688 35.6107C95.1633 35.6135 95.1605 35.619 95.155 35.6218L95.13 35.644L95.105 35.6662C95.0829 35.6828 95.0634 35.7022 95.0413 35.7189C95.0218 35.7355 95.0024 35.7494 94.983 35.7633C94.9719 35.7716 94.9608 35.7799 94.9497 35.791C94.9248 35.8104 94.8998 35.8298 94.8749 35.8465C94.8693 35.8492 94.8665 35.852 94.861 35.8576C94.8388 35.8714 94.8194 35.8881 94.8 35.9019C94.8 35.9019 94.8 35.9019 94.7972 35.9047C94.7806 35.9158 94.7639 35.9269 94.7473 35.938C94.7306 35.9491 94.7112 35.9629 94.6946 35.974C94.6696 35.9907 94.6447 36.0045 94.6169 36.0212L94.5753 36.0461C94.542 36.0656 94.5088 36.085 94.4755 36.1072C94.4533 36.121 94.4311 36.1321 94.4061 36.1432C94.3701 36.1626 94.3368 36.1793 94.3035 36.1959C94.2813 36.207 94.2564 36.2181 94.2314 36.2292C94.1954 36.2458 94.1593 36.2625 94.1233 36.2791C94.1011 36.2902 94.0789 36.2985 94.0539 36.3096C94.0123 36.3263 93.9735 36.3429 93.9319 36.3595L93.8847 36.3762C93.8792 36.379 93.8709 36.3817 93.8681 36.3817C93.8376 36.3928 93.8043 36.4039 93.771 36.415C93.7433 36.4233 93.7128 36.4344 93.6851 36.4427C93.6462 36.4538 93.6074 36.4649 93.5686 36.476C93.5686 36.476 93.5575 36.4816 93.5408 36.4899C93.5353 36.4927 93.5297 36.4954 93.5242 36.4982C93.5214 36.501 93.5187 36.501 93.5159 36.5038C93.5131 36.5065 93.5103 36.5093 93.5048 36.5093C93.416 36.5648 93.3467 36.648 93.3051 36.745C93.3051 36.7478 93.3023 36.7506 93.3023 36.7534C93.2774 36.8199 93.269 36.8893 93.2746 36.9586C93.2774 36.9974 93.2829 37.039 93.294 37.0779H93.2996C93.6712 37.0806 94.0428 37.0335 94.4034 36.9336C94.4533 36.9198 94.5004 36.9059 94.5504 36.892C95.399 36.6286 96.1368 36.0988 96.6554 35.3778C96.672 35.3528 96.6914 35.3278 96.7081 35.3029C96.5666 35.2308 96.4224 35.1642 96.2838 35.0949Z" fill="#FFD54F"/>
<path d="M97.4512 35.6637L96.6552 35.3836L95.7012 35.048C95.7039 35.0452 95.7067 35.0424 95.7095 35.0397C95.7206 35.0258 95.7317 35.0119 95.74 34.9981C95.7483 34.987 95.7566 34.9759 95.765 34.9648C95.7733 34.9537 95.7816 34.9426 95.7899 34.9315C95.8121 34.9038 95.8315 34.8733 95.8509 34.8455C95.8648 34.8261 95.8759 34.8067 95.8898 34.7873C95.9147 34.7485 95.9397 34.7096 95.9619 34.6708C95.9702 34.6569 95.9785 34.6431 95.9868 34.632C95.9896 34.6292 95.9924 34.6236 95.9952 34.6209C96.009 34.5959 96.0229 34.5737 96.0368 34.5488C96.0506 34.5238 96.0645 34.4988 96.0784 34.4739C96.095 34.4434 96.1089 34.4156 96.1227 34.3851C96.1366 34.3602 96.1477 34.3352 96.1588 34.3103C96.1699 34.2853 96.1837 34.2576 96.1976 34.2298C96.2004 34.2215 96.2059 34.2132 96.2087 34.2049C96.217 34.1882 96.2253 34.1688 96.2309 34.1522L96.2337 34.1494C96.2448 34.1217 96.2559 34.0967 96.2669 34.069C96.2697 34.0634 96.2725 34.0579 96.2753 34.0523L96.2808 34.0385C96.2891 34.019 96.2947 34.0024 96.3002 33.983C96.3058 33.9691 96.3113 33.9525 96.3169 33.9386C96.3224 33.9247 96.328 33.9081 96.3335 33.8915L96.3363 33.8804C96.3391 33.8721 96.3418 33.861 96.3446 33.8526C96.3474 33.8443 96.3502 33.8332 96.3529 33.8221C96.3751 33.7583 96.3945 33.6918 96.4139 33.6252C96.4223 33.5919 96.4306 33.5587 96.4417 33.5254C96.4555 33.4782 96.4639 33.4311 96.475 33.3812L96.4777 33.3673C96.4777 33.3645 96.4805 33.359 96.4805 33.3562C96.4916 33.3007 96.5027 33.2425 96.511 33.187C96.5138 33.1676 96.5166 33.1482 96.5193 33.1288C96.5221 33.1094 96.5249 33.0899 96.5277 33.0705C96.5304 33.0483 96.5332 33.0262 96.536 33.004C96.5387 32.9901 96.5387 32.9762 96.5415 32.9624C96.5443 32.9374 96.5471 32.9124 96.5471 32.8875C96.5498 32.8653 96.5498 32.8431 96.5526 32.8209C96.5554 32.7821 96.5582 32.7433 96.5582 32.7017C96.5582 32.6823 96.5609 32.6628 96.5609 32.6407C96.5609 32.6323 96.5609 32.624 96.5609 32.6185C96.5609 32.6101 96.5609 32.6046 96.5609 32.5963C96.5609 32.5824 96.5609 32.5658 96.5609 32.5519C96.5609 32.5353 96.5609 32.5159 96.5609 32.4992C96.5609 32.441 96.5582 32.3855 96.5554 32.3273C96.5554 32.3245 96.5554 32.3217 96.5554 32.3189C96.5526 32.2662 96.5471 32.2135 96.5443 32.1609V32.1581C96.5332 31.9418 96.45 31.4342 96.4888 31.0764C96.5055 30.9128 96.5498 30.7797 96.6386 30.7214C96.6497 30.7131 96.6608 30.7076 96.6746 30.702C96.6885 30.6965 96.7024 30.6937 96.7135 30.6909C96.7135 30.6909 96.7135 30.6909 96.7162 30.6909C96.8383 30.6688 96.9575 30.7048 97.0657 30.7631C97.282 30.8795 97.4457 31.0848 97.4623 31.107C98.3858 32.4826 98.3803 34.2853 97.4512 35.6637Z" fill="#FFD770"/>
<path d="M96.6526 35.3837C97.3792 34.3742 97.6372 33.0513 97.2406 31.7727C97.1435 31.4593 97.0076 31.1598 96.8412 30.8797C96.8162 30.8409 96.7913 30.7993 96.7663 30.7604C96.7497 30.7355 96.733 30.7105 96.7164 30.6855C96.7025 30.6883 96.6887 30.6911 96.6776 30.6966C96.6665 30.7022 96.6526 30.7077 96.6415 30.7161C96.5528 30.7743 96.5084 30.9074 96.4918 31.0711C96.4529 31.4288 96.5361 31.9364 96.5472 32.1527V32.1555C96.5528 32.2082 96.5555 32.2608 96.5583 32.3135C96.5583 32.3163 96.5583 32.3191 96.5583 32.3219C96.5611 32.3801 96.5639 32.4356 96.5639 32.4938C96.5639 32.4994 96.5639 32.5049 96.5639 32.5105V32.5465C96.5639 32.5604 96.5639 32.577 96.5639 32.5909C96.5639 32.5992 96.5639 32.6048 96.5639 32.6131C96.5639 32.6214 96.5639 32.6269 96.5639 32.6353C96.5639 32.6547 96.5639 32.6769 96.5611 32.6963C96.5583 32.7351 96.5583 32.7767 96.5555 32.8155C96.5528 32.8377 96.5528 32.8599 96.55 32.8821C96.5472 32.9071 96.5444 32.932 96.5444 32.957C96.5417 32.9708 96.5417 32.9847 96.5389 32.9986C96.5361 33.0208 96.5334 33.043 96.5306 33.0651C96.5278 33.0846 96.525 33.104 96.5223 33.1234C96.5195 33.1428 96.5167 33.1622 96.5139 33.1816C96.5056 33.2371 96.4945 33.2953 96.4834 33.3508C96.4834 33.3536 96.4807 33.3591 96.4807 33.3619L96.4779 33.3758C96.4668 33.4257 96.4557 33.4728 96.4446 33.52C96.4363 33.5533 96.428 33.5865 96.4169 33.6198C96.3975 33.6864 96.378 33.7502 96.3559 33.8167C96.3531 33.8278 96.3503 33.8362 96.3475 33.8472C96.3448 33.8583 96.342 33.8667 96.3392 33.875L96.3364 33.8861C96.3309 33.9027 96.3253 33.9166 96.3198 33.9332C96.3143 33.9499 96.3087 33.9637 96.3032 33.9776C96.2948 33.997 96.2893 34.0137 96.2837 34.0331L96.2782 34.0469C96.2754 34.0525 96.2727 34.058 96.2699 34.0636C96.2588 34.0913 96.2477 34.1163 96.2366 34.144C96.2366 34.1468 96.2366 34.1468 96.2338 34.1468C96.2255 34.1634 96.2172 34.1828 96.2116 34.1995C96.2089 34.2078 96.2033 34.2161 96.2005 34.2244C96.1867 34.2522 96.1756 34.2799 96.1617 34.3049C96.1478 34.3326 96.1368 34.3548 96.1257 34.3797C96.1118 34.4103 96.0952 34.438 96.0813 34.4685C96.0674 34.4935 96.0536 34.5184 96.0397 34.5434C96.0258 34.5683 96.012 34.5905 95.9981 34.6155C95.9953 34.621 95.9925 34.6238 95.9898 34.6266C95.9814 34.6404 95.9731 34.6543 95.9648 34.6654C95.9426 34.7042 95.9177 34.7431 95.8927 34.7819C95.8788 34.8013 95.8677 34.8207 95.8539 34.8401C95.8345 34.8706 95.815 34.8984 95.7929 34.9261C95.7845 34.9372 95.7762 34.9483 95.7679 34.9594C95.7596 34.9705 95.7512 34.9816 95.7429 34.9927C95.7318 35.0065 95.7235 35.0204 95.7124 35.0343C95.7096 35.037 95.7069 35.0398 95.7041 35.0426L96.6526 35.3837Z" fill="#FFEA8C"/>
<path d="M95.6987 35.0478C95.6987 35.0478 96.5557 35.3695 96.8968 35.7107C97.4321 36.2459 97.6401 36.4123 97.3267 38.0265C97.3156 38.0847 97.3045 38.1457 97.299 38.204C97.2685 38.473 97.238 39.1525 98.2974 37.5772C99.5704 35.6829 97.7649 35.1477 97.7649 35.1477C97.1021 34.9591 96.3976 34.9369 95.6987 35.0478Z" fill="#FFCA28"/>
<path d="M102.496 27.6887C102.496 27.6887 96.9053 33.8929 98.9077 42.7484C103.182 47.9375 108.587 32.9388 108.587 32.9388L102.496 27.6887Z" fill="#6A8922"/>
<g opacity="0.2">
<path opacity="0.2" d="M92.3904 118.435C97.9919 118.435 102.533 117.341 102.533 115.992C102.533 114.643 97.9919 113.549 92.3904 113.549C86.789 113.549 82.248 114.643 82.248 115.992C82.248 117.341 86.789 118.435 92.3904 118.435Z" fill="#271D24"/>
</g>
<g opacity="0.2">
<path opacity="0.2" d="M92.3895 120C101.575 120 109.022 118.206 109.022 115.992C109.022 113.779 101.575 111.985 92.3895 111.985C83.2038 111.985 75.7573 113.779 75.7573 115.992C75.7573 118.206 83.2038 120 92.3895 120Z" fill="#271D24"/>
</g>
<path d="M95.0334 71.3594H89.1704V81.5018H95.0334V71.3594Z" fill="#A16552"/>
<path d="M102.156 83.0218V101.704C102.156 102.33 102.072 102.954 101.912 103.559C101.806 103.961 101.665 104.352 101.49 104.729C101.282 105.181 101.027 105.611 100.727 106.013C100.458 106.374 100.153 106.707 99.8232 107.012C99.7621 107.07 99.7011 107.126 99.6401 107.178C98.3283 108.302 96.6615 108.923 94.9336 108.926H89.2731C88.0999 108.928 86.9462 108.64 85.9117 108.093C85.4291 107.841 84.9798 107.536 84.5666 107.178C84.2199 106.884 83.9065 106.554 83.6264 106.199C83.5571 106.116 83.4933 106.036 83.4323 105.95C83.1327 105.536 82.8776 105.093 82.6696 104.624C82.517 104.277 82.3922 103.922 82.2952 103.556C82.1371 102.952 82.0566 102.328 82.0566 101.701V83.0218C82.0566 80.0182 84.4889 77.5831 87.4898 77.5803H96.7142C99.7178 77.5803 102.156 80.0154 102.156 83.0218Z" fill="#A16552"/>
<path d="M97.3407 81.607C94.0071 82.7164 90.5292 82.7525 86.8877 81.5627C85.7561 81.1855 84.533 81.7984 84.1559 82.9327C84.0838 83.1518 84.0449 83.3793 84.0449 83.6122V100.866C84.0449 103.922 86.5216 106.399 89.5779 106.399H94.6311C97.6874 106.399 100.164 103.922 100.164 100.866V83.6649C100.167 82.4751 99.2072 81.5072 98.0174 81.5044C97.7845 81.5017 97.557 81.5377 97.3407 81.607Z" fill="#F5DCB4"/>
<path d="M101.67 114.644C101.518 114.644 101.349 114.644 101.188 114.644C101.252 114.405 101.34 114.098 101.462 113.704C101.92 112.22 101.412 110.403 100.852 109.036C100.669 108.59 100.478 108.19 100.309 107.866C100.131 107.514 99.9757 107.256 99.8953 107.103C99.8759 107.07 99.8537 107.036 99.8287 107.003C99.3573 106.346 98.4448 106.193 97.7875 106.665C97.2217 107.07 97.0193 107.816 97.3022 108.451L97.3299 108.509L97.3826 108.603C97.6738 109.105 97.9289 109.63 98.1453 110.17C98.5585 111.174 98.8442 112.251 98.6667 112.844C98.0843 114.755 97.696 116.02 98.7527 116.965C99.0023 117.187 99.4654 117.6 101.717 117.564C102.525 117.528 103.151 116.846 103.115 116.036C103.082 115.26 102.447 114.647 101.67 114.636V114.644Z" fill="#A16552"/>
<path d="M85.3154 111.097C85.1933 110.781 85.1628 110.44 85.2266 110.107C85.3431 109.402 85.5733 108.72 85.9089 108.091C85.9699 107.974 86.0281 107.869 86.0891 107.769C86.1585 107.652 86.214 107.525 86.25 107.394C86.4663 106.618 86.0143 105.811 85.2377 105.595C84.6248 105.423 83.973 105.667 83.6236 106.199C83.6125 106.213 83.6014 106.227 83.5931 106.241C83.3989 106.56 83.2242 106.892 83.0717 107.234C82.811 107.799 82.6085 108.387 82.4615 108.992C82.2091 110.06 82.1564 111.277 82.6778 112.364C82.9496 112.922 83.1909 113.496 83.3989 114.081C83.2187 114.117 83.0328 114.151 82.8553 114.173C82.0483 114.223 81.4353 114.919 81.4853 115.726C81.5352 116.533 82.2313 117.146 83.0384 117.096C83.1077 117.09 83.1771 117.082 83.2436 117.068C85.4734 116.763 85.8673 116.286 86.0808 116.031C86.6965 115.299 86.7936 114.181 85.3154 111.097Z" fill="#A16552"/>
<path d="M64.0153 53.8702C64.0153 53.8702 62.4122 47.4608 92.0573 47.5468C121.702 47.6327 120.773 53.8702 120.773 53.8702C120.773 53.8702 120.424 60.5236 83.665 59.2672C63.9321 58.5933 64.0153 53.8702 64.0153 53.8702Z" fill="#FFEDD9"/>
<path d="M79.9544 55.7812C79.6881 56.7519 79.5522 57.7531 79.5467 58.7571V58.9651C79.555 60.1799 79.4191 61.3946 79.139 62.5761C78.5788 62.3792 78.0019 61.9743 77.45 61.2754C76.0022 59.4477 76.4848 56.494 78.2709 55.8006C78.8034 55.576 79.4052 55.5621 79.9461 55.7674C79.9516 55.7757 79.9516 55.7785 79.9544 55.7812Z" fill="#A16552"/>
<path d="M79.9544 55.7812C79.6881 56.7519 79.5522 57.7531 79.5467 58.7571V58.9651C79.555 60.1799 79.4191 61.3946 79.139 62.5761C78.5788 62.3792 78.0019 61.9743 77.45 61.2754C76.0022 59.4477 76.4848 56.494 78.2709 55.8006C78.8034 55.576 79.4052 55.5621 79.9461 55.7674C79.9516 55.7757 79.9516 55.7785 79.9544 55.7812Z" fill="#F5DCB4"/>
<path d="M106.665 61.278C106.116 61.9741 105.539 62.379 104.976 62.5787C104.696 61.3945 104.56 60.1825 104.568 58.9677C104.568 58.8984 104.568 58.8291 104.568 58.7597C104.565 57.7502 104.427 56.7462 104.158 55.7727C104.701 55.5675 105.306 55.5786 105.841 55.806C107.63 56.4994 108.113 59.4503 106.665 61.278Z" fill="#A16552"/>
<path d="M106.665 61.278C106.116 61.9741 105.539 62.379 104.976 62.5787C104.696 61.3945 104.56 60.1825 104.568 58.9677C104.568 58.8984 104.568 58.8291 104.568 58.7597C104.565 57.7502 104.427 56.7462 104.158 55.7727C104.701 55.5675 105.306 55.5786 105.841 55.806C107.63 56.4994 108.113 59.4503 106.665 61.278Z" fill="#F5DCB4"/>
<path d="M101.096 62.6177C100.564 63.4414 100.433 64.462 100.738 65.3911C100.977 66.0927 101.196 66.8832 101.196 67.4739C101.19 71.7894 97.1023 75.295 92.0575 75.295C87.0126 75.295 82.9246 71.7921 82.9246 67.4822C82.9246 66.8915 83.1382 66.1011 83.3822 65.3994C83.6901 64.4675 83.5597 63.4469 83.0272 62.6232C82.5142 61.8189 82.2396 60.8843 82.2368 59.9302C82.2368 57.0653 84.6747 54.7439 87.6866 54.7439C88.6573 54.7411 89.6141 54.9908 90.4628 55.465C91.4557 56.028 92.6704 56.028 93.6633 55.465C94.5092 54.988 95.466 54.7411 96.4367 54.7439C99.4459 54.7439 101.886 57.0653 101.886 59.9302C101.886 60.6458 101.728 61.353 101.429 62.0047C101.332 62.2155 101.221 62.4207 101.096 62.6177Z" fill="#A16552"/>
<path d="M101.096 62.6177C100.564 63.4414 100.433 64.462 100.738 65.3911C100.977 66.0927 101.196 66.8832 101.196 67.4739C101.19 71.7894 97.1023 75.295 92.0575 75.295C87.0126 75.295 82.9246 71.7921 82.9246 67.4822C82.9246 66.8915 83.1382 66.1011 83.3822 65.3994C83.6901 64.4675 83.5597 63.4469 83.0272 62.6232C82.5142 61.8189 82.2396 60.8843 82.2368 59.9302C82.2368 57.0653 84.6747 54.7439 87.6866 54.7439C88.6573 54.7411 89.6141 54.9908 90.4628 55.465C91.4557 56.028 92.6704 56.028 93.6633 55.465C94.5092 54.988 95.466 54.7411 96.4367 54.7439C99.4459 54.7439 101.886 57.0653 101.886 59.9302C101.886 60.6458 101.728 61.353 101.429 62.0047C101.332 62.2155 101.221 62.4207 101.096 62.6177Z" fill="#F5DCB4"/>
<path d="M87.4065 68.439C87.1153 68.439 86.8823 68.6747 86.8823 68.9659C86.8823 68.9881 86.8851 69.0103 86.8879 69.0325C87.2124 71.3427 89.4034 73.1316 92.0603 73.1316C94.7172 73.1316 96.9082 71.3427 97.241 69.0325C97.2771 68.744 97.0746 68.4806 96.7862 68.4445C96.764 68.4417 96.7418 68.439 96.7196 68.439H87.4065Z" fill="#4E3F3F"/>
<path d="M89.0537 72.2747C90.8925 73.4229 93.2222 73.4229 95.0609 72.2747C94.6838 70.9684 93.4801 71.2707 92.0573 71.2707C90.6346 71.2707 89.4392 70.9712 89.0537 72.2747Z" fill="#E6646E"/>
<path d="M106.462 54.8411C105.384 54.4223 104.524 54.6442 103.922 54.9937C103.775 54.561 103.606 54.1339 103.414 53.7179C103.276 53.4128 103.123 53.1133 102.957 52.8165C101.304 49.7907 98.5221 47.278 95.3327 46.2186L95.2689 44.499L93.2083 45.7388L92.9587 45.7138C92.8061 45.6999 92.6536 45.6888 92.5011 45.6833L92.196 44.3853L92.1072 44.0054C92.0046 44.0054 91.902 44.0054 91.8022 44.0165C89.8802 44.169 88.9233 45.919 88.7736 46.2186C85.5841 47.2863 82.8052 49.7935 81.155 52.8165C80.9941 53.1133 80.8416 53.4128 80.6974 53.7179C80.506 54.1339 80.3368 54.5582 80.1898 54.9937L80.1122 54.9493C79.5131 54.6303 78.6839 54.4445 77.6494 54.8439C75.378 55.7258 74.765 59.4672 76.6066 61.7996C77.3582 62.7481 78.1486 63.2696 78.9085 63.4997C78.8974 63.5413 78.8891 63.5857 78.8808 63.6301C78.7449 64.2597 78.6756 64.9031 78.6783 65.5465C78.6783 70.0006 81.9648 73.8335 86.6713 75.5198C87.7779 75.9136 88.9233 76.1826 90.091 76.3213C90.6983 76.3934 91.3085 76.435 91.9186 76.4378H92.0629C99.4512 76.4378 105.442 71.5621 105.442 65.5438C105.442 64.9003 105.372 64.2597 105.237 63.6329C105.228 63.5913 105.217 63.5469 105.209 63.5053C105.972 63.2751 106.759 62.7537 107.508 61.8024C109.347 59.4644 108.731 55.7203 106.462 54.8411ZM79.9541 55.7813C79.6879 56.752 79.552 57.7532 79.5464 58.7572V58.9652C79.5547 60.18 79.4188 61.3947 79.1387 62.5762C78.5785 62.3793 78.0016 61.9744 77.4497 61.2755C76.002 59.4478 76.4846 56.4941 78.2706 55.8007C78.8031 55.5761 79.405 55.5622 79.9458 55.7674C79.9513 55.7758 79.9513 55.7785 79.9541 55.7813ZM101.434 61.9993C101.337 62.2129 101.223 62.4209 101.099 62.6178C100.566 63.4415 100.433 64.4593 100.738 65.3912C100.977 66.0929 101.196 66.8833 101.196 67.4741C101.19 71.7895 97.1022 75.2951 92.0573 75.2951C87.0125 75.2951 82.9244 71.7923 82.9244 67.4824C82.9244 66.8916 83.138 66.1012 83.3821 65.3995C83.6899 64.4677 83.5596 63.4471 83.0271 62.6233C82.514 61.8191 82.2394 60.8844 82.2366 59.9304C82.2366 57.0654 84.6745 54.7441 87.6864 54.7441C88.6571 54.7413 89.6139 54.9909 90.4626 55.4651C91.4555 56.0281 92.6702 56.0281 93.6631 55.4651C94.509 54.9881 95.4658 54.7413 96.4365 54.7441C99.4457 54.7441 101.886 57.0654 101.886 59.9304C101.886 60.6459 101.731 61.3503 101.431 61.9993H101.434ZM106.665 61.2782C106.116 61.9744 105.539 62.3793 104.976 62.579C104.696 61.3947 104.56 60.1827 104.568 58.968C104.568 58.8986 104.568 58.8293 104.568 58.76C104.565 57.7504 104.427 56.7465 104.158 55.773C104.701 55.5678 105.306 55.5789 105.841 55.8063C107.63 56.4996 108.113 59.4505 106.665 61.2782Z" fill="#A16552"/>
<path d="M89.6972 64.745L89.8719 64.3623C89.9246 64.2485 90.0605 64.1958 90.1742 64.2485L91.572 64.8864C91.6858 64.9391 91.7385 65.075 91.6858 65.1887L91.511 65.5715C91.4583 65.6852 91.3224 65.7379 91.2087 65.6852L89.8109 65.0473C89.6944 64.9946 89.6445 64.8587 89.6972 64.745Z" fill="#4E3F3F"/>
<path d="M92.6093 65.5714L92.4345 65.1887C92.3818 65.075 92.4318 64.9391 92.5482 64.8864L93.946 64.2485C94.0597 64.1958 94.1956 64.2457 94.2483 64.3622L94.4231 64.7449C94.4758 64.8586 94.4258 64.9945 94.3094 65.0472L92.9116 65.6851C92.7951 65.7378 92.6619 65.6879 92.6093 65.5714Z" fill="#4E3F3F"/>
<path d="M87.365 61.9991C86.5246 62.0213 85.8257 61.3585 85.8008 60.5181V60.0244C85.8202 59.1841 86.5191 58.5185 87.3594 58.5379H87.3622C88.2026 58.5157 88.9042 59.1786 88.9264 60.0189V60.5181C88.907 61.3585 88.2053 62.0213 87.365 61.9991Z" fill="#4E3F3F"/>
<path d="M87.3647 58.5375V60.2654C87.3842 60.698 87.7503 61.0336 88.1829 61.0142C88.5878 60.9976 88.9123 60.6731 88.9317 60.2654V60.0186C88.9068 59.1782 88.2079 58.5126 87.3647 58.5375Z" fill="#5D5360"/>
<path d="M87.3647 60.0218C87.6526 60.0218 87.8861 59.8007 87.8861 59.5281C87.8861 59.2554 87.6526 59.0344 87.3647 59.0344C87.0767 59.0344 86.8433 59.2554 86.8433 59.5281C86.8433 59.8007 87.0767 60.0218 87.3647 60.0218Z" fill="#4D4040"/>
<path d="M96.7527 61.9991C95.9123 62.0213 95.2107 61.3585 95.1885 60.5181V60.0244C95.2079 59.1841 95.9068 58.5185 96.7471 58.5379C96.7499 58.5379 96.7499 58.5379 96.7527 58.5379C97.593 58.5157 98.2947 59.1786 98.3169 60.0189V60.5181C98.2919 61.3585 97.593 62.0213 96.7527 61.9991Z" fill="#4E3F3F"/>
<path d="M96.7524 58.5375V60.2654C96.7719 60.698 97.138 61.0309 97.5706 61.0142C97.9755 60.9976 98.3 60.6731 98.3194 60.2654V60.0186C98.2945 59.1782 97.5928 58.5126 96.7524 58.5375Z" fill="#5D5360"/>
<path d="M96.7499 60.0218C97.0379 60.0218 97.2713 59.8007 97.2713 59.5281C97.2713 59.2554 97.0379 59.0344 96.7499 59.0344C96.462 59.0344 96.2285 59.2554 96.2285 59.5281C96.2285 59.8007 96.462 60.0218 96.7499 60.0218Z" fill="#4D4040"/>
<path d="M103.978 54.5884H79.7739V49.2468L91.7079 42.0803L103.978 49.2468V54.5884Z" fill="#FFEDD9"/>
<path d="M82.2339 38.275L81.4712 47.8877L102.638 49.4907L98.9326 35.1494C98.9326 35.1494 98.0035 32.0293 94.4674 33.2108C90.9286 34.3895 82.2339 38.275 82.2339 38.275Z" fill="#FFEDD9"/>
<path d="M102.222 47.8712C99.3124 47.677 95.9483 47.5661 92.0572 47.5494C87.9608 47.5384 84.4663 47.6521 81.4766 47.8545L81.7567 44.335C85.5646 44.335 89.3642 44.3018 93.1665 44.1992C95.7846 44.1243 98.5192 44.1575 101.218 43.9856L102.222 47.8712Z" fill="#A16552"/>
<path d="M88.685 77.261H86.5605V84.4774H88.685V77.261Z" fill="#473835"/>
<path d="M97.6459 77.261H95.5215V84.4774H97.6459V77.261Z" fill="#473835"/>
<path d="M103.326 98.9186C103.326 99.0934 103.323 99.2709 103.318 99.4456C103.279 101.237 103.024 103.021 102.555 104.751C102.269 105.797 101.909 106.817 101.476 107.807L100.96 108.986L100.849 109.033L98.1425 110.181C97.9261 109.641 97.6738 109.117 97.3798 108.615L97.3271 108.52C96.5588 108.792 95.7518 108.931 94.9392 108.931H89.2731C88.0999 108.933 86.9462 108.645 85.9117 108.099C85.5761 108.728 85.3459 109.41 85.2294 110.115L82.4643 108.997L81.771 106.62C81.5907 106.005 81.4382 105.386 81.3134 104.762C81.0249 103.323 80.8807 101.858 80.8779 100.391V98.9325C80.8779 95.829 81.5269 92.7589 82.7833 89.9217L84.916 85.1292C85.088 84.7409 85.4735 84.4885 85.8978 84.4885H98.32C98.7471 84.4885 99.1298 84.7409 99.3045 85.1292L101.426 89.9217C102.685 92.7589 103.334 95.829 103.332 98.9325L103.326 98.9186Z" fill="#473835"/>
<path d="M96.7752 88.0916H87.6201V94.8448H96.7752V88.0916Z" fill="#271D24"/>
<path d="M103.326 98.9104H80.8779V99.9865H103.326V98.9104Z" fill="#271D24"/>
<path d="M91.3389 99.4459V104.749C92.2874 104.749 93.0584 103.98 93.0584 103.029C93.0584 103.029 93.0584 103.029 93.0584 103.026V99.4431H91.3389V99.4459Z" fill="#271D24"/>
<path d="M103.318 99.4453C103.279 101.237 103.024 103.02 102.555 104.751C99.676 104.751 97.3408 102.416 97.3408 99.5368V99.4453H103.318Z" fill="#271D24"/>
<path d="M86.8713 99.4453V99.5368C86.8713 102.416 84.5388 104.748 81.66 104.751H81.3134C81.0249 103.311 80.8807 101.847 80.8779 100.38V99.4453H86.8713Z" fill="#271D24"/>
<path d="M87.3646 86.6551C87.8395 86.6551 88.2244 86.2701 88.2244 85.7953C88.2244 85.3205 87.8395 84.9355 87.3646 84.9355C86.8898 84.9355 86.5049 85.3205 86.5049 85.7953C86.5049 86.2701 86.8898 86.6551 87.3646 86.6551Z" fill="#F9AB6D"/>
<path d="M96.5839 86.6551C97.0587 86.6551 97.4436 86.2701 97.4436 85.7953C97.4436 85.3205 97.0587 84.9355 96.5839 84.9355C96.109 84.9355 95.7241 85.3205 95.7241 85.7953C95.7241 86.2701 96.109 86.6551 96.5839 86.6551Z" fill="#F9AB6D"/>
<path d="M118.594 61.5886C124.711 61.5886 129.671 56.6293 129.671 50.5116C129.671 44.3939 124.711 39.4346 118.594 39.4346C112.476 39.4346 107.517 44.3939 107.517 50.5116C107.517 56.6293 112.476 61.5886 118.594 61.5886Z" fill="#FFD54F"/>
<path d="M118.593 58.7209C123.127 58.7209 126.802 55.0454 126.802 50.5116C126.802 45.9777 123.127 42.3022 118.593 42.3022C114.059 42.3022 110.384 45.9777 110.384 50.5116C110.384 55.0454 114.059 58.7209 118.593 58.7209Z" fill="#FAF4E6"/>
<path d="M101.013 79.8652L112.095 72.6765L118.813 61.372L121.472 60.6565" stroke="#A16552" stroke-width="4.28571" stroke-miterlimit="10" stroke-linecap="round" stroke-linejoin="round"/>
<path d="M118.264 51.4516C118.264 51.4516 118.327 50.5475 117.171 49.5546C115.518 48.1346 115.329 47.8212 116.699 48.0431C118.07 48.265 119.068 49.4132 119.068 49.4132" fill="#FFCA28"/>
<path d="M115.379 53.9502L115.338 53.3733L114.198 53.4565C114.079 53.4648 113.99 53.5674 114.001 53.6867L114.012 53.8365C114.02 53.9557 114.123 54.0417 114.242 54.0334L115.379 53.9502Z" fill="#AC752C"/>
<path d="M115.38 53.9505L115.357 53.6621L114.004 53.762L114.009 53.8368C114.018 53.9561 114.12 54.0421 114.24 54.0337L115.38 53.9505Z" fill="#7D551F"/>
<path d="M120.416 51.9761C120.214 51.7598 119.992 51.5906 119.739 51.4325C119.498 51.2827 119.237 51.1662 118.982 51.0414C118.758 50.9305 118.552 50.8057 118.308 50.7585C118.297 50.7752 118.286 50.7891 118.275 50.8057C118.264 50.8223 118.253 50.8362 118.239 50.8528C118.214 50.8889 118.186 50.925 118.158 50.9582C118.156 50.9638 118.153 50.9666 118.147 50.9721C118.136 50.986 118.125 51.0026 118.111 51.0165C118.1 51.0303 118.086 51.047 118.072 51.0636C118.045 51.0997 118.017 51.133 117.989 51.1662C117.903 51.2661 117.815 51.3659 117.72 51.463C117.704 51.4796 117.69 51.4963 117.673 51.5101C117.648 51.5351 117.623 51.5601 117.595 51.585C117.576 51.6044 117.559 51.6211 117.54 51.6377C117.521 51.6544 117.504 51.6738 117.485 51.6904C117.482 51.6932 117.476 51.6987 117.473 51.7015C117.446 51.7265 117.415 51.7542 117.387 51.7792C117.379 51.7847 117.374 51.7903 117.368 51.7958C117.357 51.8069 117.346 51.818 117.332 51.8263L117.296 51.8568C117.265 51.8818 117.238 51.9067 117.207 51.9317C117.166 51.9678 117.121 52.001 117.077 52.0343C117.041 52.0593 117.007 52.087 116.971 52.1147C116.963 52.1203 116.958 52.1258 116.952 52.1286C116.922 52.1508 116.894 52.1702 116.863 52.1896L116.86 52.1924C116.813 52.2257 116.763 52.259 116.714 52.2895C116.611 52.356 116.508 52.4198 116.4 52.4781C116.206 52.589 116.006 52.6861 115.801 52.7721C115.712 52.8109 115.624 52.8442 115.532 52.8774C115.488 52.8941 115.441 52.9107 115.393 52.9246C115.352 52.9385 115.313 52.9523 115.271 52.9634C115.216 52.9801 115.16 52.9967 115.105 53.0106C115.105 53.0106 115.088 53.0161 115.063 53.03C115.055 53.0355 115.047 53.0383 115.038 53.0438C115.033 53.0466 115.03 53.0494 115.024 53.0522C115.019 53.0549 115.016 53.0577 115.011 53.0605C114.883 53.1409 114.783 53.2574 114.725 53.3961C114.722 53.4016 114.722 53.4044 114.719 53.4099C114.686 53.5042 114.672 53.6041 114.681 53.7039C114.683 53.7594 114.694 53.8176 114.708 53.8731C114.719 53.9119 114.733 53.9508 114.753 53.9868C114.819 54.1116 114.933 54.2004 115.066 54.2642C115.335 54.3917 115.685 54.4139 115.893 54.4139C117.706 54.3834 119.404 53.5153 120.488 52.0593C120.469 52.0371 120.444 52.0066 120.416 51.9761Z" fill="#FFB300"/>
<path d="M118.982 51.0436C118.757 50.9327 118.552 50.8079 118.308 50.7607C118.297 50.7774 118.286 50.7912 118.275 50.8079C118.264 50.8245 118.253 50.8384 118.239 50.855C118.228 50.8717 118.217 50.8855 118.203 50.9022C118.189 50.9216 118.172 50.941 118.158 50.9604C118.155 50.966 118.153 50.9687 118.147 50.9743C118.136 50.9882 118.125 51.0048 118.111 51.0187C118.1 51.0325 118.086 51.0492 118.072 51.0658C118.061 51.0825 118.047 51.0963 118.033 51.113C118.02 51.1296 118.003 51.1518 117.989 51.1684C117.964 51.1989 117.936 51.2294 117.909 51.26C117.903 51.2655 117.898 51.2711 117.895 51.2766C117.881 51.2905 117.87 51.3043 117.856 51.321C117.828 51.3515 117.798 51.382 117.77 51.4125C117.753 51.4291 117.739 51.4458 117.723 51.4624C117.706 51.4791 117.692 51.4957 117.676 51.5096C117.651 51.5345 117.626 51.5595 117.598 51.5844C117.579 51.6011 117.562 51.6205 117.543 51.6371C117.523 51.6538 117.507 51.6732 117.487 51.6898C117.484 51.6926 117.479 51.6982 117.476 51.7009C117.448 51.7259 117.418 51.7536 117.39 51.7786C117.382 51.7841 117.376 51.7897 117.371 51.7952L117.335 51.8257L117.299 51.8562C117.268 51.8812 117.24 51.9062 117.21 51.9311C117.182 51.9533 117.154 51.9727 117.129 51.9949C117.113 52.0088 117.096 52.0199 117.082 52.0337C117.046 52.0587 117.013 52.0864 116.977 52.1142C116.968 52.1197 116.963 52.1253 116.957 52.128C116.927 52.1502 116.899 52.1696 116.869 52.1891L116.866 52.1918C116.844 52.2085 116.819 52.2223 116.794 52.239C116.769 52.2556 116.744 52.2723 116.719 52.2889C116.683 52.3111 116.647 52.3333 116.611 52.3582L116.55 52.3943C116.503 52.4248 116.453 52.4525 116.405 52.4803C116.372 52.4969 116.339 52.5163 116.308 52.533C116.258 52.5607 116.209 52.5856 116.161 52.6078C116.128 52.6245 116.095 52.6411 116.059 52.6578C116.009 52.6827 115.956 52.7049 115.903 52.7299C115.87 52.7437 115.837 52.7576 115.804 52.7742C115.745 52.7992 115.687 52.8214 115.629 52.8436L115.562 52.8685C115.554 52.8713 115.546 52.8741 115.537 52.8796C115.493 52.8963 115.446 52.9129 115.399 52.9268C115.357 52.9406 115.318 52.9545 115.277 52.9656C115.221 52.9823 115.166 52.9989 115.11 53.0128C115.11 53.0128 115.094 53.0183 115.069 53.0322C115.06 53.0377 115.052 53.0405 115.044 53.046C115.038 53.0488 115.035 53.0516 115.03 53.0544C115.024 53.0571 115.022 53.0599 115.016 53.0627C114.888 53.1431 114.789 53.2596 114.73 53.3983C114.728 53.4038 114.728 53.4066 114.725 53.4121C114.691 53.5064 114.678 53.6063 114.686 53.7061C114.689 53.7616 114.7 53.8198 114.714 53.8753H114.725C115.257 53.8781 115.787 53.8115 116.3 53.6728C116.369 53.6534 116.439 53.634 116.508 53.6118C117.717 53.2374 118.771 52.4803 119.509 51.4513C119.534 51.4153 119.559 51.3792 119.584 51.3432C119.387 51.235 119.182 51.1407 118.982 51.0436Z" fill="#FFD54F"/>
<path d="M120.646 51.8508L119.509 51.4515L118.15 50.9744C118.153 50.9689 118.155 50.9661 118.161 50.9606C118.175 50.9412 118.192 50.9217 118.205 50.9023C118.216 50.8857 118.228 50.8718 118.241 50.8552C118.255 50.8385 118.264 50.8247 118.277 50.808C118.308 50.7664 118.336 50.7276 118.366 50.686C118.386 50.6583 118.402 50.6305 118.422 50.6056C118.458 50.5501 118.494 50.4974 118.524 50.4392C118.535 50.4198 118.547 50.4003 118.56 50.3809C118.563 50.3754 118.569 50.3698 118.571 50.3643C118.591 50.331 118.61 50.2977 118.63 50.2617C118.649 50.2284 118.669 50.1896 118.691 50.1535C118.713 50.1119 118.735 50.0703 118.755 50.0259C118.771 49.9899 118.791 49.9538 118.807 49.9205C118.824 49.8873 118.843 49.8429 118.863 49.8068C118.868 49.793 118.874 49.7819 118.879 49.7708C118.89 49.7458 118.902 49.7209 118.913 49.6959C118.913 49.6931 118.915 49.6931 118.915 49.6903C118.932 49.6515 118.949 49.6155 118.963 49.5766C118.965 49.5683 118.971 49.56 118.974 49.5517L118.982 49.5295C118.993 49.5018 119.001 49.4768 119.012 49.4491C119.021 49.4269 119.029 49.4047 119.037 49.3853C119.046 49.3631 119.054 49.3409 119.062 49.3187L119.068 49.3021C119.073 49.2882 119.076 49.2743 119.082 49.2605C119.087 49.2466 119.09 49.2327 119.096 49.2189C119.126 49.1273 119.154 49.033 119.182 48.9387C119.195 48.8916 119.207 48.8445 119.22 48.7973C119.237 48.728 119.254 48.6614 119.268 48.5921L119.273 48.5699C119.273 48.5643 119.276 48.5588 119.276 48.5532C119.293 48.4728 119.306 48.3924 119.32 48.312C119.326 48.2842 119.329 48.2565 119.331 48.2315C119.334 48.2038 119.34 48.1788 119.342 48.1511C119.348 48.1178 119.351 48.0873 119.354 48.054C119.356 48.0346 119.359 48.0152 119.359 47.9958C119.365 47.9597 119.367 47.9265 119.37 47.8904C119.373 47.8571 119.376 47.8266 119.379 47.7933C119.381 47.7351 119.384 47.6824 119.387 47.6241C119.39 47.5964 119.39 47.5659 119.39 47.5382C119.39 47.5271 119.39 47.516 119.39 47.5049C119.39 47.4938 119.39 47.4827 119.39 47.4716C119.39 47.4494 119.39 47.4272 119.392 47.4078C119.392 47.3829 119.392 47.3579 119.392 47.3329C119.392 47.2497 119.39 47.1693 119.384 47.0861C119.384 47.0806 119.384 47.0778 119.384 47.0722C119.379 46.9974 119.373 46.9225 119.367 46.8476V46.8448C119.351 46.5342 119.234 45.8131 119.29 45.3028C119.315 45.0698 119.379 44.8785 119.503 44.7953C119.52 44.7842 119.537 44.7758 119.553 44.7675C119.573 44.762 119.592 44.7564 119.612 44.7537H119.614C119.789 44.7232 119.961 44.7731 120.113 44.8563C120.421 45.0199 120.654 45.3139 120.679 45.3472C121.98 47.3163 121.974 49.8873 120.646 51.8508Z" fill="#FFD770"/>
<path d="M119.509 51.4514C120.543 50.012 120.915 48.1233 120.346 46.3012C120.208 45.8546 120.016 45.4275 119.775 45.0254C119.739 44.9671 119.703 44.9117 119.667 44.8534C119.645 44.8174 119.62 44.7813 119.595 44.748C119.575 44.7508 119.556 44.7564 119.537 44.7619C119.52 44.7702 119.503 44.7786 119.487 44.7897C119.359 44.8729 119.298 45.0642 119.273 45.2972C119.215 45.8075 119.334 46.5314 119.351 46.8392V46.842C119.359 46.9169 119.365 46.9917 119.367 47.0666C119.367 47.0722 119.367 47.0749 119.367 47.0805C119.373 47.1637 119.376 47.2441 119.376 47.3273C119.376 47.3356 119.376 47.344 119.376 47.3495V47.3994C119.376 47.4216 119.376 47.4438 119.373 47.4632C119.373 47.4743 119.373 47.4854 119.373 47.4965C119.373 47.5076 119.373 47.5187 119.373 47.5298C119.373 47.5575 119.373 47.588 119.37 47.6158C119.367 47.674 119.365 47.7295 119.362 47.7849C119.359 47.8182 119.356 47.8487 119.354 47.882C119.351 47.9181 119.348 47.9541 119.343 47.9874C119.34 48.0068 119.337 48.0262 119.337 48.0456C119.334 48.0789 119.329 48.1094 119.326 48.1427C119.32 48.1704 119.318 48.1982 119.315 48.2231C119.312 48.2481 119.306 48.2786 119.304 48.3036C119.29 48.384 119.276 48.4644 119.259 48.5449C119.259 48.5504 119.257 48.556 119.257 48.5615L119.251 48.5837C119.237 48.653 119.22 48.7224 119.204 48.7889C119.193 48.8361 119.179 48.8832 119.165 48.9304C119.137 49.0247 119.11 49.119 119.079 49.2105C119.073 49.2243 119.071 49.2382 119.065 49.2521C119.06 49.266 119.057 49.2798 119.051 49.2937L119.046 49.3103C119.037 49.3325 119.029 49.3547 119.021 49.3769C119.012 49.3991 119.004 49.4213 118.996 49.4407C118.985 49.4656 118.976 49.4934 118.965 49.5211L118.957 49.5433C118.954 49.5516 118.949 49.5599 118.946 49.5683C118.932 49.6071 118.915 49.6431 118.899 49.682C118.899 49.6847 118.896 49.6847 118.896 49.6875C118.885 49.7125 118.874 49.7374 118.863 49.7624C118.857 49.7735 118.852 49.7874 118.846 49.7984C118.827 49.8373 118.81 49.8761 118.791 49.9122C118.771 49.951 118.755 49.9843 118.738 50.0175C118.716 50.0591 118.696 50.1008 118.674 50.1451C118.655 50.1812 118.635 50.2172 118.613 50.2533C118.591 50.2893 118.574 50.3198 118.555 50.3559C118.552 50.3615 118.547 50.367 118.544 50.3725C118.533 50.392 118.522 50.4114 118.508 50.4308C118.474 50.489 118.438 50.5417 118.405 50.5972C118.386 50.6249 118.369 50.6527 118.35 50.6776C118.322 50.7192 118.291 50.7608 118.261 50.7997C118.25 50.8163 118.239 50.8302 118.225 50.8468C118.214 50.8634 118.203 50.8773 118.189 50.8939C118.175 50.9134 118.158 50.9328 118.144 50.9522C118.142 50.9577 118.139 50.9605 118.133 50.9661L119.509 51.4514Z" fill="#FFEA8C"/>
<path d="M118.15 50.9741C118.15 50.9741 119.373 51.4317 119.858 51.9199C120.624 52.6853 120.918 52.9211 120.471 55.2258C120.455 55.309 120.441 55.395 120.432 55.4809C120.388 55.8637 120.346 56.8344 121.855 54.5879C123.669 51.8838 121.095 51.1239 121.095 51.1239C120.152 50.8466 119.146 50.816 118.15 50.9741Z" fill="#FFCA28"/>
<path d="M145.931 50.0675C150.219 50.0675 153.696 46.5908 153.696 42.302C153.696 38.0131 150.219 34.5364 145.931 34.5364C141.642 34.5364 138.165 38.0131 138.165 42.302C138.165 46.5908 141.642 50.0675 145.931 50.0675Z" fill="#FFD54F"/>
<path d="M145.931 48.0568C149.109 48.0568 151.685 45.4803 151.685 42.302C151.685 39.1237 149.109 36.5471 145.931 36.5471C142.752 36.5471 140.176 39.1237 140.176 42.302C140.176 45.4803 142.752 48.0568 145.931 48.0568Z" fill="#FAF4E6"/>
<path d="M145.7 42.9619C145.7 42.9619 145.745 42.3296 144.935 41.6335C143.776 40.6378 143.643 40.4187 144.605 40.574C145.567 40.7293 146.266 41.5336 146.266 41.5336" fill="#FFCA28"/>
<path d="M143.679 44.712L143.648 44.3071L142.849 44.3654C142.766 44.3709 142.705 44.443 142.711 44.5262L142.719 44.6316C142.725 44.7148 142.797 44.7758 142.88 44.7703L143.679 44.712Z" fill="#AC752C"/>
<path d="M143.679 44.7117L143.665 44.5093L142.716 44.5786L142.719 44.6313C142.725 44.7145 142.797 44.7755 142.88 44.77L143.679 44.7117Z" fill="#7D551F"/>
<path d="M147.209 43.3278C147.068 43.1752 146.913 43.056 146.735 42.9478C146.566 42.8424 146.383 42.762 146.205 42.6732C146.047 42.5956 145.906 42.5096 145.734 42.4763C145.726 42.4874 145.717 42.4985 145.712 42.5096C145.706 42.5207 145.695 42.5318 145.687 42.5429C145.67 42.5678 145.651 42.5928 145.631 42.6178C145.629 42.6205 145.626 42.6233 145.623 42.6261C145.615 42.6372 145.606 42.6483 145.598 42.6566C145.59 42.6649 145.581 42.6788 145.57 42.6899C145.551 42.7148 145.532 42.737 145.512 42.762C145.451 42.8341 145.39 42.9007 145.324 42.97C145.312 42.9811 145.301 42.9922 145.29 43.0033C145.274 43.0199 145.254 43.0393 145.238 43.056C145.224 43.0698 145.213 43.0809 145.199 43.092C145.185 43.1031 145.174 43.117 145.16 43.1281C145.157 43.1308 145.154 43.1336 145.152 43.1364C145.132 43.1558 145.113 43.1724 145.091 43.1919C145.085 43.1946 145.082 43.2002 145.077 43.203C145.068 43.2113 145.06 43.2168 145.052 43.2251L145.027 43.2473C145.005 43.264 144.985 43.2834 144.963 43.3C144.932 43.325 144.902 43.3472 144.871 43.3721C144.847 43.3916 144.822 43.411 144.797 43.4276C144.791 43.4304 144.788 43.4331 144.783 43.4387C144.761 43.4526 144.741 43.4692 144.722 43.4831C144.722 43.4831 144.722 43.4831 144.719 43.4858C144.686 43.508 144.652 43.533 144.616 43.5552C144.544 43.6023 144.472 43.6467 144.397 43.6883C144.261 43.766 144.12 43.8353 143.976 43.8935C143.915 43.9213 143.851 43.9435 143.787 43.9684C143.757 43.9795 143.723 43.9906 143.69 44.0017C143.662 44.01 143.635 44.0211 143.604 44.0294C143.565 44.0405 143.526 44.0516 143.488 44.0627C143.488 44.0627 143.476 44.0683 143.46 44.0766C143.454 44.0794 143.449 44.0821 143.443 44.0849C143.44 44.0877 143.438 44.0877 143.435 44.0905C143.432 44.0932 143.429 44.096 143.424 44.096C143.335 44.1515 143.266 44.2347 143.224 44.3317C143.224 44.3345 143.221 44.3373 143.221 44.3401C143.196 44.4066 143.188 44.476 143.194 44.5453C143.196 44.5841 143.202 44.6257 143.213 44.6645C143.221 44.6923 143.23 44.72 143.243 44.745C143.291 44.8337 143.371 44.8947 143.463 44.9391C143.651 45.0279 143.895 45.0445 144.042 45.0445C145.315 45.0223 146.505 44.4149 147.265 43.3943C147.248 43.3694 147.229 43.3499 147.209 43.3278Z" fill="#FFB300"/>
<path d="M146.205 42.6732C146.047 42.5956 145.906 42.5096 145.734 42.4763C145.725 42.4874 145.717 42.4985 145.711 42.5096C145.706 42.5207 145.695 42.5318 145.687 42.5429C145.678 42.554 145.67 42.5651 145.662 42.5762C145.65 42.59 145.642 42.6039 145.631 42.6178C145.628 42.6205 145.625 42.6233 145.623 42.6261C145.614 42.6372 145.606 42.6483 145.598 42.6566C145.589 42.6677 145.581 42.6788 145.57 42.6899C145.562 42.701 145.551 42.7121 145.542 42.7232C145.534 42.7342 145.52 42.7509 145.512 42.762C145.492 42.7842 145.476 42.8036 145.456 42.8258C145.454 42.8285 145.451 42.8341 145.445 42.8369C145.437 42.848 145.429 42.8563 145.417 42.8674C145.398 42.8896 145.379 42.9117 145.356 42.9312C145.345 42.9423 145.334 42.9561 145.323 42.9672C145.312 42.9783 145.301 42.9894 145.29 43.0005C145.273 43.0171 145.254 43.0366 145.237 43.0532C145.223 43.0671 145.212 43.0782 145.198 43.0892C145.185 43.1003 145.173 43.1142 145.16 43.1253C145.157 43.1281 145.154 43.1308 145.151 43.1336C145.132 43.153 145.112 43.1697 145.09 43.1891C145.085 43.1919 145.082 43.1974 145.076 43.2002L145.051 43.2224L145.026 43.2446C145.004 43.2612 144.985 43.2806 144.963 43.2973C144.943 43.3139 144.924 43.3278 144.904 43.3416C144.893 43.3499 144.882 43.3583 144.871 43.3694C144.846 43.3888 144.821 43.4082 144.796 43.4248C144.791 43.4276 144.788 43.4304 144.782 43.4359C144.76 43.4498 144.741 43.4664 144.721 43.4803C144.721 43.4803 144.721 43.4803 144.719 43.4831C144.702 43.4942 144.685 43.5053 144.669 43.5164C144.652 43.5274 144.633 43.5413 144.616 43.5524C144.591 43.569 144.566 43.5857 144.538 43.5996L144.497 43.6245C144.463 43.6439 144.43 43.6633 144.397 43.6855C144.375 43.6994 144.352 43.7105 144.328 43.7216C144.291 43.741 144.258 43.7576 144.225 43.7743C144.203 43.7854 144.178 43.7965 144.153 43.8076C144.117 43.8242 144.081 43.8408 144.045 43.8575C144.022 43.8686 144 43.8769 143.975 43.888C143.934 43.9046 143.895 43.9213 143.853 43.9379L143.806 43.9546C143.801 43.9573 143.792 43.9601 143.789 43.9601C143.759 43.9712 143.726 43.9823 143.692 43.9934C143.665 44.0017 143.634 44.0128 143.606 44.0211C143.568 44.0322 143.529 44.0433 143.49 44.0544C143.49 44.0544 143.479 44.0599 143.462 44.0683C143.457 44.071 143.451 44.0738 143.446 44.0766C143.443 44.0794 143.44 44.0794 143.437 44.0821C143.434 44.0849 143.432 44.0877 143.426 44.0877C143.337 44.1431 143.268 44.2263 143.226 44.3234C143.226 44.3262 143.224 44.329 143.224 44.3317C143.199 44.3983 143.19 44.4676 143.196 44.537C143.199 44.5758 143.204 44.6174 143.215 44.6562H143.221C143.593 44.659 143.964 44.6119 144.325 44.512C144.375 44.4981 144.422 44.4843 144.472 44.4704C145.32 44.2069 146.058 43.6772 146.577 42.9561C146.593 42.9312 146.613 42.9062 146.629 42.8812C146.488 42.8091 146.347 42.7426 146.205 42.6732Z" fill="#FFD54F"/>
<path d="M147.373 43.242L146.577 42.9619L145.623 42.6263C145.626 42.6236 145.629 42.6208 145.631 42.618C145.642 42.6042 145.654 42.5903 145.662 42.5764C145.67 42.5653 145.679 42.5542 145.687 42.5431C145.695 42.5321 145.703 42.521 145.712 42.5099C145.734 42.4821 145.753 42.4516 145.773 42.4239C145.787 42.4045 145.798 42.3851 145.812 42.3656C145.837 42.3268 145.862 42.288 145.884 42.2492C145.892 42.2353 145.9 42.2214 145.909 42.2103C145.911 42.2076 145.914 42.202 145.917 42.1992C145.931 42.1743 145.945 42.1521 145.959 42.1271C145.972 42.1022 145.986 42.0772 146 42.0522C146.017 42.0217 146.031 41.994 146.045 41.9635C146.058 41.9385 146.07 41.9136 146.081 41.8886C146.092 41.8637 146.106 41.8359 146.119 41.8082C146.122 41.7999 146.128 41.7915 146.131 41.7832C146.139 41.7666 146.147 41.7472 146.153 41.7305L146.156 41.7278C146.167 41.7 146.178 41.6751 146.189 41.6473C146.192 41.6418 146.194 41.6362 146.197 41.6307L146.203 41.6168C146.211 41.5974 146.217 41.5808 146.222 41.5614C146.228 41.5475 146.233 41.5308 146.239 41.517C146.244 41.5031 146.25 41.4865 146.255 41.4698L146.258 41.4587C146.261 41.4504 146.264 41.4393 146.266 41.431C146.269 41.4227 146.272 41.4116 146.275 41.4005C146.297 41.3367 146.316 41.2701 146.336 41.2036C146.344 41.1703 146.352 41.137 146.364 41.1037C146.377 41.0566 146.386 41.0094 146.397 40.9595L146.4 40.9457C146.4 40.9429 146.402 40.9373 146.402 40.9346C146.413 40.8791 146.425 40.8209 146.433 40.7654C146.436 40.746 146.438 40.7266 146.441 40.7071C146.444 40.6877 146.447 40.6683 146.45 40.6489C146.452 40.6267 146.455 40.6045 146.458 40.5823C146.461 40.5685 146.461 40.5546 146.463 40.5407C146.466 40.5158 146.469 40.4908 146.469 40.4659C146.472 40.4437 146.472 40.4215 146.474 40.3993C146.477 40.3605 146.48 40.3216 146.48 40.28C146.48 40.2606 146.483 40.2412 146.483 40.219C146.483 40.2107 146.483 40.2024 146.483 40.1968C146.483 40.1885 146.483 40.183 146.483 40.1746C146.483 40.1608 146.483 40.1441 146.483 40.1303C146.483 40.1136 146.483 40.0942 146.483 40.0776C146.483 40.0193 146.48 39.9639 146.477 39.9056C146.477 39.9029 146.477 39.9001 146.477 39.8973C146.474 39.8446 146.469 39.7919 146.466 39.7392V39.7364C146.455 39.5201 146.372 39.0126 146.411 38.6548C146.427 38.4912 146.472 38.3581 146.56 38.2998C146.572 38.2915 146.583 38.286 146.597 38.2804C146.61 38.2749 146.624 38.2721 146.635 38.2693C146.635 38.2693 146.635 38.2693 146.638 38.2693C146.76 38.2471 146.879 38.2832 146.988 38.3414C147.204 38.4579 147.368 38.6631 147.384 38.6853C148.308 40.0609 148.302 41.8637 147.373 43.242Z" fill="#FFD770"/>
<path d="M146.574 42.9621C147.301 41.9526 147.559 40.6296 147.162 39.3511C147.065 39.0377 146.929 38.7382 146.763 38.4581C146.738 38.4192 146.713 38.3776 146.688 38.3388C146.671 38.3138 146.654 38.2889 146.638 38.2639C146.624 38.2667 146.61 38.2695 146.599 38.275C146.588 38.2806 146.574 38.2861 146.563 38.2944C146.474 38.3527 146.43 38.4858 146.413 38.6494C146.374 39.0072 146.458 39.5147 146.469 39.7311V39.7338C146.474 39.7865 146.477 39.8392 146.48 39.8919C146.48 39.8947 146.48 39.8975 146.48 39.9002C146.482 39.9585 146.485 40.0139 146.485 40.0722C146.485 40.0777 146.485 40.0833 146.485 40.0888V40.1249C146.485 40.1387 146.485 40.1554 146.485 40.1693C146.485 40.1776 146.485 40.1831 146.485 40.1914C146.485 40.1998 146.485 40.2053 146.485 40.2136C146.485 40.233 146.485 40.2552 146.482 40.2746C146.48 40.3135 146.48 40.3551 146.477 40.3939C146.474 40.4161 146.474 40.4383 146.471 40.4605C146.469 40.4854 146.466 40.5104 146.466 40.5353C146.463 40.5492 146.463 40.5631 146.46 40.577C146.458 40.5991 146.455 40.6213 146.452 40.6435C146.449 40.6629 146.446 40.6823 146.444 40.7018C146.441 40.7212 146.438 40.7406 146.435 40.76C146.427 40.8155 146.416 40.8737 146.405 40.9292C146.405 40.9319 146.402 40.9375 146.402 40.9403L146.399 40.9541C146.388 41.0041 146.377 41.0512 146.366 41.0984C146.358 41.1316 146.349 41.1649 146.338 41.1982C146.319 41.2648 146.299 41.3285 146.277 41.3951C146.274 41.4062 146.272 41.4145 146.269 41.4256C146.266 41.4367 146.263 41.445 146.261 41.4533L146.258 41.4644C146.252 41.4811 146.247 41.495 146.241 41.5116C146.236 41.5282 146.23 41.5421 146.225 41.556C146.216 41.5754 146.211 41.592 146.205 41.6114L146.2 41.6253C146.197 41.6309 146.194 41.6364 146.191 41.6419C146.18 41.6697 146.169 41.6946 146.158 41.7224C146.158 41.7251 146.158 41.7251 146.155 41.7251C146.147 41.7418 146.139 41.7612 146.133 41.7778C146.13 41.7862 146.125 41.7945 146.122 41.8028C146.108 41.8305 146.097 41.8583 146.083 41.8832C146.069 41.9082 146.058 41.9332 146.047 41.9581C146.033 41.9886 146.017 42.0164 146.003 42.0469C145.989 42.0718 145.975 42.0968 145.961 42.1217C145.947 42.1467 145.933 42.1689 145.919 42.1939C145.917 42.1994 145.914 42.2022 145.911 42.2049C145.903 42.2188 145.895 42.2327 145.886 42.2438C145.864 42.2826 145.839 42.3214 145.814 42.3603C145.8 42.3797 145.789 42.3991 145.775 42.4185C145.756 42.449 145.736 42.4767 145.714 42.5045C145.706 42.5156 145.698 42.5267 145.689 42.5378C145.681 42.5489 145.673 42.5599 145.664 42.571C145.653 42.5849 145.645 42.5988 145.634 42.6126C145.631 42.6154 145.628 42.6182 145.625 42.621L146.574 42.9621Z" fill="#FFEA8C"/>
<path d="M145.62 42.6262C145.62 42.6262 146.477 42.9479 146.818 43.289C147.354 43.8243 147.562 43.9907 147.248 45.6048C147.237 45.6631 147.226 45.7241 147.22 45.7823C147.19 46.0514 147.159 46.7308 148.219 45.1555C149.492 43.2613 147.686 42.726 147.686 42.726C147.023 42.5374 146.322 42.5152 145.62 42.6262Z" fill="#FFCA28"/>
<path d="M129.049 37.5405C129.323 37.6181 142.605 43.5061 149.519 33.1002C156.434 22.6944 130.899 34.584 130.899 34.584L129.049 37.5405Z" fill="#6A8922"/>
</svg>
