<svg width="240" height="120" viewBox="0 0 240 120" fill="none" xmlns="http://www.w3.org/2000/svg">
<path d="M153.194 47.7628C155.771 47.7628 157.86 45.6733 157.86 43.0959C157.86 40.5184 155.771 38.429 153.194 38.429C150.616 38.429 148.527 40.5184 148.527 43.0959C148.527 45.6733 150.616 47.7628 153.194 47.7628Z" fill="#FFD54F"/>
<path d="M153.194 46.555C155.104 46.555 156.653 45.0063 156.653 43.0958C156.653 41.1853 155.104 39.6365 153.194 39.6365C151.283 39.6365 149.734 41.1853 149.734 43.0958C149.734 45.0063 151.283 46.555 153.194 46.555Z" fill="#FAF4E6"/>
<path d="M146.26 48.8009C148.838 48.8009 150.927 46.7114 150.927 44.134C150.927 41.5565 148.838 39.467 146.26 39.467C143.683 39.467 141.594 41.5565 141.594 44.134C141.594 46.7114 143.683 48.8009 146.26 48.8009Z" fill="#FFD54F"/>
<path d="M146.26 47.5931C148.171 47.5931 149.72 46.0444 149.72 44.1338C149.72 42.2233 148.171 40.6746 146.26 40.6746C144.35 40.6746 142.801 42.2233 142.801 44.1338C142.801 46.0444 144.35 47.5931 146.26 47.5931Z" fill="#FAF4E6"/>
<path d="M159.253 59.4285H139.898C139.113 59.4285 138.476 58.792 138.476 58.0067V44.6723C138.476 43.887 139.113 43.2505 139.898 43.2505H159.253C160.038 43.2505 160.674 43.887 160.674 44.6723V58.0067C160.674 58.792 160.038 59.4285 159.253 59.4285Z" fill="#B77834"/>
<path d="M141.374 57.572H140.27V58.4525H141.374V57.572Z" fill="#845730"/>
<path d="M155.437 58.4525H153.093V57.572H155.437V58.4525ZM150.749 58.4525H148.405V57.572H150.749V58.4525ZM146.061 58.4525H143.717V57.572H146.061V58.4525Z" fill="#845730"/>
<path d="M158.884 57.572H157.781V58.4525H158.884V57.572Z" fill="#845730"/>
<path d="M152.337 53.8183H160.88C161.153 53.8183 161.373 53.5982 161.373 53.3245V48.8807C161.373 48.6071 161.153 48.387 160.88 48.387H152.337C151.516 48.387 150.85 49.0532 150.85 49.8742V52.3341C150.85 53.152 151.516 53.8183 152.337 53.8183Z" fill="#845730"/>
<path d="M153.634 52.8131C154.603 52.8131 155.389 52.0274 155.389 51.0581C155.389 50.0889 154.603 49.3032 153.634 49.3032C152.665 49.3032 151.879 50.0889 151.879 51.0581C151.879 52.0274 152.665 52.8131 153.634 52.8131Z" fill="#F9AB6D"/>
<path d="M141.374 44.3447H140.27V45.2252H141.374V44.3447Z" fill="#845730"/>
<path d="M155.437 45.2252H153.093V44.3447H155.437V45.2252ZM150.749 45.2252H148.405V44.3447H150.749V45.2252ZM146.061 45.2252H143.717V44.3447H146.061V45.2252Z" fill="#845730"/>
<path d="M158.884 44.3447H157.781V45.2252H158.884V44.3447Z" fill="#845730"/>
<path d="M103.987 94.0449L103.871 94.0895L101.983 94.7053C100.933 95.0741 99.7786 94.5238 99.4098 93.4709C99.0409 92.4209 99.5912 91.2668 100.644 90.898C100.674 90.8861 100.707 90.8771 100.736 90.8682L100.808 90.8385L98.2705 81.231C98.1635 80.8176 98.1873 80.3833 98.3419 79.9847L104.422 64.3689C104.88 63.3516 106.073 62.8995 107.09 63.3575C108.03 63.7799 108.5 64.8477 108.178 65.8263L102.337 80.8295L105.195 91.6446C105.463 92.638 104.942 93.6702 103.987 94.0449Z" fill="#A16552"/>
<g opacity="0.2">
<path opacity="0.2" d="M117.759 117.844C125.48 117.844 131.739 116.336 131.739 114.476C131.739 112.617 125.48 111.109 117.759 111.109C110.038 111.109 103.779 112.617 103.779 114.476C103.779 116.336 110.038 117.844 117.759 117.844Z" fill="#271D24"/>
</g>
<g opacity="0.2">
<path opacity="0.2" d="M117.759 120C130.421 120 140.686 117.527 140.686 114.476C140.686 111.426 130.421 108.953 117.759 108.953C105.097 108.953 94.8318 111.426 94.8318 114.476C94.8318 117.527 105.097 120 117.759 120Z" fill="#271D24"/>
</g>
<path d="M121.403 52.9529H113.321V66.9328H121.403V52.9529Z" fill="#A16552"/>
<path d="M131.221 69.0267V94.7795C131.221 95.6421 131.108 96.5017 130.885 97.3375C130.74 97.8908 130.546 98.4321 130.305 98.9497C130.017 99.5743 129.666 100.166 129.255 100.716C128.883 101.213 128.467 101.674 128.009 102.091C127.926 102.171 127.842 102.248 127.756 102.32C125.951 103.869 123.648 104.723 121.269 104.729H113.464C111.849 104.732 110.257 104.336 108.83 103.581C108.166 103.233 107.545 102.81 106.977 102.32C106.501 101.912 106.066 101.46 105.68 100.969C105.585 100.856 105.498 100.743 105.412 100.624C104.999 100.053 104.648 99.4404 104.362 98.798C104.154 98.3221 103.981 97.8313 103.845 97.3286C103.627 96.4928 103.514 95.6331 103.514 94.7706V69.0237C103.514 64.8863 106.867 61.5281 111.004 61.5251H123.717C127.86 61.5281 131.218 64.8863 131.221 69.0267Z" fill="#A16552"/>
<path d="M124.585 67.0816C119.99 68.6105 115.195 68.661 110.174 67.0221C108.613 66.5046 106.929 67.3493 106.409 68.9079C106.307 69.2083 106.257 69.5266 106.257 69.8419V93.6226C106.257 97.8344 109.672 101.249 113.883 101.249H120.847C125.058 101.249 128.473 97.8344 128.473 93.6226V69.9133C128.479 68.2744 127.152 66.9388 125.513 66.9359C125.195 66.9329 124.883 66.9835 124.585 67.0816Z" fill="#F5DCB4"/>
<path d="M130.549 112.617C130.338 112.617 130.103 112.617 129.883 112.617C129.972 112.287 130.094 111.865 130.261 111.32C130.891 109.274 130.192 106.772 129.422 104.89C129.169 104.271 128.904 103.724 128.675 103.278C128.428 102.793 128.214 102.439 128.104 102.228C128.077 102.18 128.048 102.135 128.015 102.091C127.366 101.184 126.105 100.975 125.198 101.624C124.419 102.18 124.139 103.209 124.529 104.084L124.567 104.164L124.639 104.295C125.04 104.988 125.391 105.711 125.689 106.454C126.257 107.837 126.653 109.322 126.406 110.14C125.603 112.772 125.067 114.515 126.525 115.821C126.87 116.127 127.506 116.695 130.612 116.648C131.724 116.6 132.59 115.657 132.539 114.542C132.491 113.471 131.62 112.626 130.549 112.611V112.617Z" fill="#A16552"/>
<path d="M108.009 107.727C107.839 107.293 107.798 106.82 107.887 106.362C108.047 105.389 108.366 104.453 108.827 103.584C108.91 103.423 108.993 103.278 109.077 103.138C109.175 102.977 109.249 102.802 109.3 102.62C109.6 101.549 108.973 100.437 107.902 100.14C107.057 99.9046 106.159 100.241 105.677 100.972C105.662 100.99 105.647 101.008 105.635 101.029C105.368 101.469 105.13 101.927 104.918 102.397C104.561 103.176 104.279 103.988 104.08 104.821C103.735 106.291 103.66 107.971 104.377 109.47C104.752 110.241 105.082 111.032 105.37 111.838C105.121 111.886 104.865 111.933 104.624 111.963C103.511 112.034 102.667 112.992 102.738 114.105C102.809 115.217 103.767 116.062 104.88 115.99C104.975 115.984 105.07 115.973 105.162 115.952C108.238 115.532 108.779 114.875 109.074 114.524C109.912 113.519 110.046 111.978 108.009 107.727Z" fill="#A16552"/>
<path d="M78.648 28.845C78.648 28.845 76.438 20.0109 117.301 20.1269C158.164 20.2429 156.882 28.845 156.882 28.845C156.882 28.845 156.4 38.0182 105.733 36.2841C78.535 35.356 78.648 28.845 78.648 28.845Z" fill="#FFEDD9"/>
<path d="M100.617 31.4805C100.251 32.819 100.061 34.1961 100.055 35.5852V35.8737C100.067 37.5483 99.8766 39.22 99.4929 40.853C98.7195 40.5793 97.9254 40.0231 97.1669 39.0623C95.171 36.543 95.8343 32.471 98.3001 31.5162C99.0348 31.2038 99.8617 31.189 100.611 31.4686C100.614 31.4715 100.614 31.4775 100.617 31.4805Z" fill="#A16552"/>
<path d="M100.617 31.4805C100.251 32.819 100.061 34.1961 100.055 35.5852V35.8737C100.067 37.5483 99.8766 39.22 99.4929 40.853C98.7195 40.5793 97.9254 40.0231 97.1669 39.0623C95.171 36.543 95.8343 32.471 98.3001 31.5162C99.0348 31.2038 99.8617 31.189 100.611 31.4686C100.614 31.4715 100.614 31.4775 100.617 31.4805Z" fill="#F5DCB4"/>
<path d="M137.435 39.0591C136.677 40.0199 135.882 40.5761 135.109 40.8498C134.725 39.2168 134.535 37.5481 134.547 35.8705C134.547 35.7753 134.547 35.6802 134.547 35.582C134.541 34.19 134.351 32.8068 133.982 31.4654C134.731 31.1798 135.564 31.1977 136.302 31.513C138.768 32.4678 139.434 36.5398 137.435 39.0591Z" fill="#A16552"/>
<path d="M137.435 39.0591C136.677 40.0199 135.882 40.5761 135.109 40.8498C134.725 39.2168 134.535 37.5481 134.547 35.8705C134.547 35.7753 134.547 35.6802 134.547 35.582C134.541 34.19 134.351 32.8068 133.982 31.4654C134.731 31.1798 135.564 31.1977 136.302 31.513C138.768 32.4678 139.434 36.5398 137.435 39.0591Z" fill="#F5DCB4"/>
<path d="M129.758 40.9033C129.023 42.0366 128.842 43.4435 129.267 44.7285C129.594 45.6952 129.898 46.7868 129.898 47.5988C129.889 53.5477 124.255 58.3782 117.301 58.3782C110.347 58.3782 104.713 53.5477 104.713 47.6107C104.713 46.7987 105.007 45.7071 105.344 44.7404C105.769 43.4554 105.59 42.0485 104.853 40.9123C104.145 39.8028 103.767 38.5178 103.764 37.2002C103.764 33.2501 107.125 30.0496 111.275 30.0496C112.613 30.0466 113.934 30.3887 115.1 31.046C116.468 31.8223 118.143 31.8223 119.511 31.046C120.68 30.3916 121.995 30.0466 123.336 30.0496C127.485 30.0496 130.847 33.2501 130.847 37.2002C130.847 38.1877 130.629 39.1633 130.216 40.0586C130.085 40.3501 129.93 40.6327 129.758 40.9033Z" fill="#A16552"/>
<path d="M129.758 40.9033C129.023 42.0366 128.842 43.4435 129.267 44.7285C129.594 45.6952 129.898 46.7868 129.898 47.5988C129.889 53.5477 124.255 58.3782 117.301 58.3782C110.347 58.3782 104.713 53.5477 104.713 47.6107C104.713 46.7987 105.007 45.7071 105.344 44.7404C105.769 43.4554 105.59 42.0485 104.853 40.9123C104.145 39.8028 103.767 38.5178 103.764 37.2002C103.764 33.2501 107.125 30.0496 111.275 30.0496C112.613 30.0466 113.934 30.3887 115.1 31.046C116.468 31.8223 118.143 31.8223 119.511 31.046C120.68 30.3916 121.995 30.0466 123.336 30.0496C127.485 30.0496 130.847 33.2501 130.847 37.2002C130.847 38.1877 130.629 39.1633 130.216 40.0586C130.085 40.3501 129.93 40.6327 129.758 40.9033Z" fill="#F5DCB4"/>
<path d="M110.891 48.9285C110.489 48.9285 110.165 49.2527 110.168 49.6542C110.168 49.684 110.171 49.7167 110.174 49.7464C110.62 52.9321 113.642 55.3979 117.304 55.3979C120.965 55.3979 123.988 52.9321 124.443 49.7464C124.493 49.3508 124.214 48.988 123.815 48.9344C123.785 48.9314 123.753 48.9285 123.723 48.9285H110.891Z" fill="#4E3F3F"/>
<path d="M113.164 54.217C115.698 55.7994 118.91 55.7994 121.444 54.217C120.927 52.4175 119.264 52.8339 117.304 52.8339C115.344 52.8339 113.693 52.4175 113.164 54.217Z" fill="#E6646E"/>
<path d="M137.159 30.1835C135.668 29.6064 134.485 29.9098 133.655 30.3947C133.452 29.7968 133.217 29.2108 132.953 28.6368C132.762 28.2174 132.551 27.8039 132.322 27.3964C130.044 23.2263 126.213 19.764 121.81 18.3006L121.724 15.9329L118.884 17.6402L118.541 17.6045C118.33 17.5867 118.122 17.5718 117.911 17.5629L117.491 15.7723L117.37 15.2488C117.227 15.2488 117.087 15.2488 116.95 15.2637C114.3 15.4748 112.982 17.8871 112.774 18.2976C108.378 19.767 104.547 23.2233 102.274 27.3935C102.051 27.801 101.843 28.2144 101.644 28.6338C101.379 29.2079 101.147 29.7938 100.945 30.3917L100.838 30.3322C100.014 29.892 98.8684 29.6362 97.4407 30.1865C94.3086 31.4 93.4668 36.5607 96.0011 39.7761C97.0362 41.0848 98.1248 41.8017 99.1748 42.12C99.1599 42.1794 99.148 42.2389 99.1361 42.2984C98.9488 43.167 98.8536 44.0533 98.8566 44.9397C98.8566 51.079 103.387 56.3616 109.874 58.6876C111.397 59.232 112.979 59.6038 114.585 59.7911C115.421 59.8923 116.263 59.9458 117.105 59.9518H117.31C127.495 59.9518 135.752 53.2325 135.752 44.9368C135.752 44.0504 135.656 43.167 135.469 42.3044C135.457 42.2449 135.442 42.1854 135.43 42.1289C136.48 41.8106 137.569 41.0908 138.601 39.782C141.132 36.5577 140.285 31.3971 137.159 30.1835ZM100.617 31.4803C100.252 32.8188 100.061 34.196 100.055 35.5851V35.8736C100.067 37.5482 99.8768 39.2199 99.4931 40.8528C98.7197 40.5792 97.9255 40.023 97.1671 39.0622C95.1712 36.5429 95.8345 32.4708 98.3003 31.516C99.035 31.2037 99.8619 31.1888 100.611 31.4684C100.611 31.4714 100.614 31.4774 100.617 31.4803ZM130.228 40.0527C130.094 40.3472 129.94 40.6327 129.764 40.9064C129.029 42.0396 128.845 43.4466 129.267 44.7315C129.595 45.6982 129.898 46.7898 129.898 47.6019C129.889 53.5508 124.255 58.3813 117.301 58.3813C110.347 58.3813 104.713 53.5508 104.713 47.6138C104.713 46.8017 105.008 45.7101 105.344 44.7434C105.769 43.4585 105.591 42.0515 104.853 40.9153C104.145 39.8058 103.767 38.5209 103.764 37.2032C103.764 33.2531 107.126 30.0526 111.275 30.0526C112.613 30.0496 113.934 30.3917 115.1 31.0491C116.468 31.8254 118.143 31.8254 119.511 31.0491C120.68 30.3947 121.995 30.0496 123.336 30.0526C127.486 30.0526 130.847 33.2531 130.847 37.2032C130.847 38.1877 130.633 39.1604 130.222 40.0557H130.228V40.0527ZM137.435 39.0592C136.677 40.02 135.882 40.5762 135.109 40.8499C134.725 39.2169 134.535 37.5482 134.547 35.8706C134.547 35.7754 134.547 35.6803 134.547 35.5821C134.541 34.1901 134.351 32.8069 133.982 31.4655C134.731 31.1799 135.564 31.1978 136.302 31.5131C138.768 32.4679 139.434 36.5399 137.435 39.0592Z" fill="#A16552"/>
<path d="M114.047 43.8332L114.288 43.3068C114.359 43.1491 114.547 43.0777 114.704 43.1521L116.629 44.0325C116.786 44.1039 116.858 44.2913 116.783 44.4489L116.542 44.9754C116.471 45.1331 116.284 45.2045 116.126 45.1301L114.201 44.2497C114.044 44.1783 113.975 43.9939 114.047 43.8332Z" fill="#4E3F3F"/>
<path d="M118.059 44.9754L117.819 44.4489C117.747 44.2912 117.816 44.1039 117.973 44.0325L119.898 43.152C120.055 43.0806 120.243 43.1491 120.314 43.3067L120.555 43.8332C120.626 43.9908 120.558 44.1782 120.4 44.2496L118.476 45.13C118.321 45.2044 118.134 45.136 118.059 44.9754Z" fill="#4E3F3F"/>
<path d="M110.834 40.0497C109.677 40.0794 108.711 39.1663 108.681 38.0092V37.3281C108.708 36.168 109.671 35.2519 110.831 35.2787C110.834 35.2787 110.834 35.2787 110.837 35.2787C111.997 35.246 112.961 36.1621 112.994 37.3192C112.994 37.3192 112.994 37.3192 112.994 37.3221V38.0092C112.958 39.1663 111.991 40.0824 110.834 40.0497Z" fill="#4E3F3F"/>
<path d="M110.834 35.2788V37.6613C110.861 38.2562 111.364 38.7172 111.962 38.6934C112.521 38.6697 112.967 38.2205 112.994 37.6613V37.3222C112.958 36.1622 111.995 35.249 110.834 35.2788Z" fill="#5D5360"/>
<path d="M110.835 37.3281C111.23 37.3281 111.551 37.0232 111.551 36.647C111.551 36.2708 111.23 35.9658 110.835 35.9658C110.439 35.9658 110.118 36.2708 110.118 36.647C110.118 37.0232 110.439 37.3281 110.835 37.3281Z" fill="#4D4040"/>
<path d="M123.77 40.0497C122.61 40.0824 121.646 39.1663 121.614 38.0092V37.3281C121.641 36.168 122.604 35.2519 123.761 35.2787C123.764 35.2787 123.767 35.2787 123.77 35.2787C124.93 35.246 125.894 36.1621 125.927 37.3192C125.927 37.3192 125.927 37.3192 125.927 37.3221V38.0092C125.897 39.1663 124.93 40.0824 123.77 40.0497Z" fill="#4E3F3F"/>
<path d="M123.771 35.2788V37.6613C123.797 38.2562 124.3 38.7172 124.898 38.6934C125.457 38.6697 125.903 38.2205 125.93 37.6613V37.3222C125.897 36.1622 124.934 35.249 123.771 35.2788C123.773 35.2788 123.773 35.2788 123.771 35.2788Z" fill="#5D5360"/>
<path d="M123.77 37.3281C124.166 37.3281 124.487 37.0232 124.487 36.647C124.487 36.2708 124.166 35.9658 123.77 35.9658C123.374 35.9658 123.053 36.2708 123.053 36.647C123.053 37.0232 123.374 37.3281 123.77 37.3281Z" fill="#4D4040"/>
<path d="M133.732 29.8383H100.37V22.4736L116.819 12.5955L133.732 22.4736V29.8383Z" fill="#FFEDD9"/>
<path d="M103.758 7.34864L102.708 20.5998L131.885 22.8098L126.775 3.04164C126.775 3.04164 125.496 -1.25942 120.62 0.367605C115.745 1.99463 103.758 7.34864 103.758 7.34864Z" fill="#FFEDD9"/>
<path d="M131.314 20.579C127.304 20.3113 122.667 20.1596 117.304 20.1358C111.658 20.1179 106.84 20.2756 102.72 20.5552L103.104 15.7038C108.354 15.7038 113.589 15.6592 118.833 15.5135C122.441 15.4094 126.212 15.457 129.93 15.219L131.314 20.579Z" fill="#A16552"/>
<path d="M112.652 61.0879H109.722V71.0344H112.652V61.0879Z" fill="#473835"/>
<path d="M125.005 61.0879H122.075V71.0344H125.005V61.0879Z" fill="#473835"/>
<path d="M132.834 90.9424C132.834 91.1834 132.831 91.4273 132.822 91.6682C132.768 94.14 132.414 96.5939 131.772 98.9794C131.379 100.419 130.882 101.829 130.281 103.194L129.571 104.818L129.416 104.884L125.686 106.466C125.388 105.722 125.037 105 124.636 104.307L124.565 104.176C123.509 104.551 122.393 104.744 121.272 104.741H113.461C111.846 104.744 110.254 104.348 108.827 103.593C108.363 104.461 108.044 105.401 107.887 106.371L104.077 104.83L103.122 101.552C102.875 100.705 102.664 99.8509 102.491 98.9913C102.096 97.0073 101.893 94.9907 101.893 92.9651V90.9543C101.893 86.6771 102.789 82.4474 104.52 78.536L107.459 71.9327C107.696 71.3973 108.226 71.0493 108.812 71.0493H125.936C126.522 71.0523 127.054 71.3973 127.292 71.9327L130.216 78.536C131.95 82.4474 132.845 86.6771 132.842 90.9543L132.834 90.9424Z" fill="#473835"/>
<path d="M123.803 76.0166H111.186V85.3236H123.803V76.0166Z" fill="#271D24"/>
<path d="M132.834 90.9277H101.893V92.409H132.834V90.9277Z" fill="#271D24"/>
<path d="M116.313 91.6685V98.9796C117.622 98.9796 118.681 97.9178 118.681 96.612C118.681 96.612 118.681 96.612 118.681 96.609V91.6685H116.313Z" fill="#271D24"/>
<path d="M132.822 91.6685C132.768 94.1402 132.414 96.5941 131.772 98.9796C127.804 98.9796 124.585 95.7613 124.585 91.7934V91.6685H132.822Z" fill="#271D24"/>
<path d="M110.15 91.6683V91.7932C110.15 95.7611 106.935 98.9795 102.967 98.9795H102.491C102.096 96.9955 101.893 94.9788 101.893 92.9532V91.6653H110.15V91.6683Z" fill="#271D24"/>
<path d="M110.834 74.0356C111.488 74.0356 112.018 73.5056 112.018 72.8518C112.018 72.198 111.488 71.668 110.834 71.668C110.181 71.668 109.651 72.198 109.651 72.8518C109.651 73.5056 110.181 74.0356 110.834 74.0356Z" fill="#F9AB6D"/>
<path d="M123.541 74.0356C124.195 74.0356 124.725 73.5056 124.725 72.8518C124.725 72.198 124.195 71.668 123.541 71.668C122.887 71.668 122.357 72.198 122.357 72.8518C122.357 73.5056 122.887 74.0356 123.541 74.0356Z" fill="#F9AB6D"/>
<path d="M138.717 79.0001C138.155 79.0001 137.617 78.7651 137.236 78.3516L125.873 66.0374C125.163 65.1778 125.284 63.9077 126.141 63.1968C126.935 62.5395 128.098 62.587 128.839 63.3069L137.521 72.7091L140.228 59.1545C140.377 58.402 140.939 57.8012 141.68 57.6019L145.282 56.6292C146.35 56.308 147.474 56.9148 147.795 57.9796C148.116 59.0474 147.51 60.1718 146.445 60.493C146.409 60.5049 146.37 60.5138 146.332 60.5228L143.934 61.1623L140.698 77.373C140.508 78.3189 139.678 79.0001 138.717 79.0001Z" fill="#A16552"/>
<path d="M108.993 61.8049C108.993 61.8049 105.849 62.4147 104.689 63.9376C107.354 65.2255 108.389 64.1072 108.389 64.1072L108.993 61.8049Z" fill="#A16552"/>
</svg>
