<svg width="240" height="120" viewBox="0 0 240 120" fill="none" xmlns="http://www.w3.org/2000/svg">
<path d="M104.428 112.037C104.702 108.151 107.938 105.081 111.894 105.081C114.806 105.081 117.329 106.746 118.568 109.173C119.764 107.83 121.508 106.98 123.449 106.98C126.262 106.98 128.661 108.758 129.583 111.252C130.596 109.796 132.281 108.843 134.188 108.843C136.313 108.843 138.161 110.025 139.112 111.769H139.877C141.206 111.769 142.464 112.065 143.593 112.595C143.506 112.409 143.412 112.226 143.314 112.048V112.045C143.218 111.873 143.113 111.704 143.006 111.537C143.001 111.529 142.995 111.52 142.989 111.512C142.772 111.182 142.535 110.869 142.278 110.569C142.267 110.555 142.253 110.541 142.241 110.527C141.988 110.236 141.714 109.963 141.423 109.709C141.403 109.692 141.384 109.675 141.364 109.658C141.076 109.41 140.771 109.181 140.45 108.97C140.424 108.953 140.396 108.936 140.368 108.919C140.221 108.826 140.074 108.735 139.925 108.651C139.908 108.642 139.894 108.631 139.877 108.622C139.713 108.532 139.544 108.447 139.372 108.366C139.341 108.352 139.307 108.337 139.276 108.323C139.129 108.256 138.982 108.194 138.833 108.137C138.799 108.123 138.768 108.112 138.734 108.098C138.559 108.033 138.384 107.971 138.204 107.917C138.173 107.909 138.139 107.9 138.105 107.889C137.953 107.844 137.8 107.804 137.645 107.767C137.6 107.756 137.555 107.745 137.51 107.736C137.326 107.697 137.143 107.66 136.954 107.635C136.928 107.632 136.906 107.629 136.88 107.626C136.714 107.604 136.547 107.584 136.378 107.57C136.327 107.567 136.276 107.561 136.226 107.559C136.034 107.547 135.842 107.536 135.644 107.536C135.644 107.536 135.644 107.536 135.642 107.536H134.877C134.462 106.774 133.872 106.12 133.164 105.623C132.998 105.507 132.826 105.403 132.645 105.304C131.844 104.864 130.927 104.613 129.95 104.613C128.999 104.613 128.102 104.85 127.318 105.27C127.318 105.27 127.315 105.27 127.315 105.273C127.289 105.287 127.267 105.301 127.241 105.315C127.134 105.375 127.033 105.437 126.931 105.502C126.801 105.586 126.674 105.674 126.55 105.77C126.353 105.922 126.164 106.086 125.986 106.261C125.98 106.266 125.977 106.272 125.972 106.275C125.743 106.506 125.534 106.754 125.348 107.023C125.004 106.094 124.454 105.262 123.757 104.587C123.754 104.585 123.748 104.579 123.745 104.576C122.572 103.447 120.974 102.753 119.217 102.753C117.275 102.753 115.531 103.6 114.335 104.946C114.18 104.641 114.005 104.35 113.813 104.074C113.621 103.797 113.41 103.532 113.181 103.284C112.659 102.714 112.047 102.229 111.372 101.845C110.277 101.218 109.013 100.857 107.665 100.857C105.797 100.857 104.09 101.54 102.78 102.672C101.313 103.936 100.342 105.758 100.198 107.81C98.6521 108.199 97.2723 109.001 96.1747 110.09C94.572 111.678 93.7734 113.882 93.7734 116.32H98.8976C100.055 114.212 102.047 112.638 104.428 112.037Z" fill="#AA6D3C"/>
<g opacity="0.2">
<path opacity="0.2" d="M119.524 99.8356C126.848 99.8356 132.786 98.4055 132.786 96.6414C132.786 94.8773 126.848 93.4473 119.524 93.4473C112.2 93.4473 106.262 94.8773 106.262 96.6414C106.262 98.4055 112.2 99.8356 119.524 99.8356Z" fill="#271D24"/>
</g>
<g opacity="0.2">
<path opacity="0.2" d="M119.524 101.881C131.536 101.881 141.273 99.5351 141.273 96.6412C141.273 93.7473 131.536 91.4014 119.524 91.4014C107.512 91.4014 97.7744 93.7473 97.7744 96.6412C97.7744 99.5351 107.512 101.881 119.524 101.881Z" fill="#271D24"/>
</g>
<path d="M129.457 90.9585C129.457 90.9585 130.072 92.7616 129.758 94.511" stroke="#A16552" stroke-width="13" stroke-miterlimit="10" stroke-linecap="round"/>
<path d="M109.394 90.9585C109.394 90.9585 108.779 92.7616 109.092 94.511" stroke="#A16552" stroke-width="13" stroke-miterlimit="10" stroke-linecap="round"/>
<path d="M123.827 51.4749H116.161V62.1719H123.827V51.4749Z" fill="#A16552"/>
<path d="M133.141 63.7774V83.484C133.141 84.1443 133.034 84.8017 132.823 85.4423C132.684 85.8655 132.501 86.2803 132.272 86.6753C131.999 87.1522 131.666 87.6065 131.276 88.0298C130.924 88.4107 130.529 88.7634 130.094 89.0822C130.015 89.1443 129.936 89.2036 129.854 89.2572C128.141 90.4423 125.957 91.0969 123.7 91.0997H116.296C114.764 91.1026 113.254 90.8006 111.9 90.2194C111.271 89.9541 110.681 89.6296 110.142 89.2544C109.69 88.944 109.278 88.5969 108.912 88.2216C108.821 88.1342 108.739 88.0467 108.658 87.9592C108.265 87.5218 107.932 87.0534 107.662 86.5625C107.464 86.1985 107.3 85.8232 107.171 85.4366C106.965 84.7989 106.857 84.1386 106.857 83.4784V63.7774C106.857 60.6115 110.037 58.0409 113.962 58.0381H126.022C129.953 58.0381 133.139 60.6086 133.141 63.7774Z" fill="#A16552"/>
<path d="M126.846 62.2874C122.487 63.4584 117.938 63.4951 113.175 62.2394C111.694 61.8416 110.097 62.4906 109.603 63.6841C109.507 63.9155 109.459 64.1553 109.459 64.4008V82.5979C109.459 85.8202 112.698 88.4331 116.694 88.4331H123.299C127.295 88.4331 130.534 85.8202 130.534 82.5979V64.4544C130.54 63.1988 129.281 62.1802 127.727 62.1745C127.425 62.1774 127.128 62.214 126.846 62.2874Z" fill="#F5DCB4"/>
<path d="M115.526 57.7024H112.747V65.3125H115.526V57.7024Z" fill="#473835"/>
<path d="M127.244 57.7024H124.465V65.3125H127.244V57.7024Z" fill="#473835"/>
<path d="M134.671 80.5493C134.671 80.7355 134.668 80.919 134.66 81.1024C134.609 82.9929 134.273 84.8721 133.664 86.6978C133.291 87.7982 132.82 88.8761 132.25 89.9229L131.576 91.1673L131.429 91.2181L127.89 92.4286C127.608 91.8586 127.275 91.3056 126.894 90.7751L126.827 90.6763C125.825 90.9641 124.767 91.1109 123.703 91.108H116.293C114.761 91.1109 113.252 90.809 111.897 90.2277C111.457 90.8936 111.155 91.6103 111.006 92.3524L107.391 91.1729L106.485 88.6645C106.251 88.0155 106.051 87.3609 105.887 86.7034C105.512 85.1853 105.32 83.6419 105.32 82.0928V80.5521C105.32 77.279 106.169 74.0425 107.811 71.0487L110.599 65.9951C110.825 65.5859 111.327 65.3207 111.883 65.3179H128.127C128.683 65.3179 129.188 65.5831 129.414 65.9951L132.188 71.0487C133.833 74.0425 134.682 77.279 134.679 80.5521L134.671 80.5493Z" fill="#473835"/>
<path d="M126.104 69.1272H114.135V76.2491H126.104V69.1272Z" fill="#271D24"/>
<path d="M134.671 80.5381H105.32V81.6724H134.671V80.5381Z" fill="#271D24"/>
<path d="M118.999 81.1052V86.7006C120.241 86.7006 121.245 85.888 121.245 84.8891C121.245 84.8891 121.245 84.8891 121.245 84.8863V81.1052H118.999Z" fill="#271D24"/>
<path d="M134.659 81.1023C134.609 82.9928 134.273 84.8721 133.663 86.6977C129.899 86.6977 126.846 84.2344 126.846 81.1982V81.1023H134.659Z" fill="#271D24"/>
<path d="M113.153 81.1023V81.1982C113.153 84.2344 110.103 86.6977 106.338 86.6977H105.887C105.512 85.1796 105.32 83.6362 105.32 82.0871V81.1023H113.153Z" fill="#271D24"/>
<path d="M113.802 67.6091C114.422 67.6091 114.925 67.2036 114.925 66.7034C114.925 66.2031 114.422 65.7976 113.802 65.7976C113.182 65.7976 112.679 66.2031 112.679 66.7034C112.679 67.2036 113.182 67.6091 113.802 67.6091Z" fill="#F9AB6D"/>
<path d="M125.856 67.6091C126.476 67.6091 126.979 67.2036 126.979 66.7034C126.979 66.2031 126.476 65.7976 125.856 65.7976C125.236 65.7976 124.733 66.2031 124.733 66.7034C124.733 67.2036 125.236 67.6091 125.856 67.6091Z" fill="#F9AB6D"/>
<path d="M120.122 111.76C128.121 111.76 134.606 105.276 134.606 97.2764C134.606 89.2773 128.121 82.7927 120.122 82.7927C112.123 82.7927 105.639 89.2773 105.639 97.2764C105.639 105.276 112.123 111.76 120.122 111.76Z" fill="#FFD54F"/>
<path d="M120.122 108.01C126.05 108.01 130.856 103.204 130.856 97.2764C130.856 91.3484 126.05 86.5427 120.122 86.5427C114.194 86.5427 109.389 91.3484 109.389 97.2764C109.389 103.204 114.194 108.01 120.122 108.01Z" fill="#F3BA2F"/>
<path d="M121.578 102.192V103.859L120.125 104.714L118.714 103.859V102.192L120.125 103.047L121.578 102.192ZM113.799 96.4214L115.21 97.2763V100.14L117.645 101.594V103.261L113.799 100.995V96.4214ZM126.451 96.4214V100.995L122.56 103.261V101.594L124.995 100.14V97.2763L126.451 96.4214ZM122.56 94.1556L124.013 95.0105V96.6781L121.578 98.1313V101.038L120.167 101.893L118.757 101.038V98.1313L116.234 96.6781V95.0105L117.687 94.1556L120.122 95.6087L122.56 94.1556ZM116.234 97.8745L117.645 98.7295V100.397L116.234 99.5421V97.8745ZM124.016 97.8745V99.5421L122.605 100.397V98.7295L124.016 97.8745ZM115.21 92.7024L116.663 93.5574L115.21 94.4123V96.0799L113.799 95.225V93.5574L115.21 92.7024ZM125.04 92.7024L126.494 93.5574V95.225L125.04 96.0799V94.4123L123.63 93.5574L125.04 92.7024ZM120.125 92.7024L121.578 93.5574L120.125 94.4123L118.714 93.5574L120.125 92.7024ZM120.125 89.8384L124.016 92.1042L122.605 92.9592L120.17 91.506L117.69 92.9592L116.279 92.1042L120.125 89.8384Z" fill="#4D4040"/>
<path d="M83.02 27.3635C83.02 27.3635 80.9235 18.9831 119.688 19.0931C158.452 19.2032 157.236 27.3635 157.236 27.3635C157.236 27.3635 156.779 36.0655 108.714 34.4205C82.9099 33.5401 83.02 27.3635 83.02 27.3635Z" fill="#FFEDD9"/>
<path d="M103.861 29.8664C103.514 31.1361 103.333 32.4426 103.328 33.7603V34.034C103.339 35.6226 103.158 37.2084 102.794 38.7575C102.061 38.4979 101.307 37.9702 100.588 37.0588C98.6945 34.6689 99.3237 30.806 101.663 29.9002C102.36 29.604 103.144 29.5898 103.855 29.8551C103.855 29.8551 103.858 29.8607 103.861 29.8664Z" fill="#A16552"/>
<path d="M103.861 29.8664C103.514 31.1361 103.333 32.4426 103.328 33.7603V34.034C103.339 35.6226 103.158 37.2084 102.794 38.7575C102.061 38.4979 101.307 37.9702 100.588 37.0588C98.6945 34.6689 99.3237 30.806 101.663 29.9002C102.36 29.604 103.144 29.5898 103.855 29.8551C103.855 29.8551 103.858 29.8607 103.861 29.8664Z" fill="#F5DCB4"/>
<path d="M138.788 37.053C138.068 37.9644 137.315 38.4921 136.581 38.7517C136.217 37.2026 136.037 35.6196 136.048 34.0282C136.048 33.9379 136.048 33.8476 136.048 33.7545C136.042 32.4339 135.862 31.1219 135.512 29.8493C136.223 29.5784 137.013 29.5953 137.713 29.8944C140.052 30.8002 140.684 34.6631 138.788 37.053Z" fill="#F5DCB4"/>
<path d="M131.505 38.8027C130.808 39.8777 130.636 41.2124 131.039 42.4314C131.35 43.3484 131.638 44.384 131.638 45.1543C131.629 50.7977 126.285 55.3801 119.688 55.3801C113.091 55.3801 107.746 50.7977 107.746 45.1656C107.746 44.3953 108.026 43.3597 108.345 42.4427C108.748 41.2237 108.579 39.889 107.882 38.8112C107.21 37.7587 106.852 36.5397 106.849 35.2897C106.849 31.5425 110.038 28.5064 113.974 28.5064C115.244 28.5035 116.496 28.828 117.603 29.4516C118.901 30.1881 120.489 30.1881 121.787 29.4516C122.896 28.8309 124.143 28.5035 125.416 28.5064C129.352 28.5064 132.541 31.5425 132.541 35.2897C132.541 36.2265 132.335 37.152 131.942 38.0013C131.815 38.2779 131.669 38.5459 131.505 38.8027Z" fill="#A16552"/>
<path d="M131.505 38.8027C130.808 39.8777 130.636 41.2124 131.039 42.4314C131.35 43.3484 131.638 44.384 131.638 45.1543C131.629 50.7977 126.285 55.3801 119.688 55.3801C113.091 55.3801 107.746 50.7977 107.746 45.1656C107.746 44.3953 108.026 43.3597 108.345 42.4427C108.748 41.2237 108.579 39.889 107.882 38.8112C107.21 37.7587 106.852 36.5397 106.849 35.2897C106.849 31.5425 110.038 28.5064 113.974 28.5064C115.244 28.5035 116.496 28.828 117.603 29.4516C118.901 30.1881 120.489 30.1881 121.787 29.4516C122.896 28.8309 124.143 28.5035 125.416 28.5064C129.352 28.5064 132.541 31.5425 132.541 35.2897C132.541 36.2265 132.335 37.152 131.942 38.0013C131.815 38.2779 131.669 38.5459 131.505 38.8027Z" fill="#F5DCB4"/>
<path d="M113.607 46.4155C113.226 46.4155 112.919 46.7231 112.921 47.104C112.921 47.1322 112.924 47.1633 112.927 47.1915C113.35 50.2135 116.217 52.5527 119.691 52.5527C123.164 52.5527 126.031 50.2135 126.463 47.1915C126.511 46.8162 126.245 46.472 125.867 46.4212C125.839 46.4184 125.808 46.4155 125.78 46.4155H113.607Z" fill="#4E3F3F"/>
<path d="M115.76 51.4325C118.164 52.9336 121.211 52.9336 123.615 51.4325C123.124 49.7253 121.547 50.1204 119.688 50.1204C117.828 50.1176 116.262 49.7253 115.76 51.4325Z" fill="#E6646E"/>
<path d="M138.522 28.6332C137.109 28.0858 135.986 28.3737 135.198 28.8336C135.006 28.2664 134.784 27.7106 134.532 27.166C134.352 26.7681 134.151 26.3759 133.934 25.9893C131.773 22.0333 128.138 18.7489 123.962 17.3606L123.881 15.1146L121.186 16.7342L120.861 16.7004C120.661 16.6834 120.463 16.6693 120.263 16.6608L119.868 14.9622L119.752 14.4656C119.617 14.4656 119.484 14.4656 119.355 14.4797C116.84 14.68 115.59 16.9684 115.393 17.3578C111.222 18.7517 107.588 22.0305 105.432 25.9865C105.221 26.3731 105.023 26.7653 104.834 27.1631C104.583 27.7077 104.363 28.2636 104.171 28.8308L104.069 28.7743C103.288 28.3567 102.202 28.1141 100.847 28.6361C97.8759 29.7873 97.0774 34.6829 99.4814 37.7332C100.463 38.9747 101.496 39.6547 102.492 39.9567C102.478 40.0131 102.467 40.0695 102.455 40.126C102.278 40.9499 102.187 41.7907 102.19 42.6316C102.19 48.4556 106.488 53.4669 112.642 55.6734C114.086 56.1898 115.588 56.5425 117.111 56.7203C117.904 56.8162 118.703 56.867 119.501 56.8726H119.69C129.352 56.8726 137.185 50.4985 137.185 42.6288C137.185 41.7879 137.094 40.9499 136.917 40.1316C136.905 40.0752 136.891 40.0187 136.88 39.9651C137.876 39.6632 138.909 38.9804 139.888 37.7388C142.295 34.6801 141.491 29.7845 138.522 28.6332ZM103.861 29.8663C103.514 31.1361 103.333 32.4425 103.327 33.7602V34.0339C103.339 35.6226 103.158 37.2083 102.794 38.7574C102.06 38.4978 101.307 37.9702 100.588 37.0588C98.6942 34.6688 99.3234 30.8059 101.663 29.9002C102.36 29.6039 103.144 29.5898 103.855 29.855C103.855 29.855 103.858 29.8607 103.861 29.8663ZM131.948 37.9956C131.821 38.2749 131.674 38.5458 131.508 38.8054C130.811 39.8805 130.636 41.2151 131.036 42.4341C131.347 43.3511 131.635 44.3867 131.635 45.157C131.626 50.8004 126.282 55.3828 119.685 55.3828C113.088 55.3828 107.743 50.8004 107.743 45.1683C107.743 44.398 108.023 43.3624 108.342 42.4454C108.745 41.2264 108.576 39.8918 107.879 38.8139C107.207 37.7614 106.849 36.5424 106.846 35.2924C106.846 31.5452 110.035 28.5091 113.971 28.5091C115.241 28.5063 116.493 28.8308 117.599 29.4544C118.897 30.1908 120.486 30.1908 121.784 29.4544C122.893 28.8336 124.14 28.5063 125.413 28.5091C129.349 28.5091 132.537 31.5452 132.537 35.2924C132.537 36.2264 132.334 37.1491 131.945 37.9984H131.948V37.9956ZM138.787 37.0531C138.068 37.9645 137.315 38.4922 136.581 38.7518C136.217 37.2027 136.036 35.6197 136.048 34.0283C136.048 33.938 136.048 33.8477 136.048 33.7546C136.042 32.4341 135.861 31.122 135.512 29.8494C136.223 29.5785 137.013 29.5954 137.712 29.8945C140.052 30.8003 140.684 34.6632 138.787 37.0531Z" fill="#A16552"/>
<path d="M116.601 41.5819L116.83 41.0825C116.897 40.9329 117.075 40.8652 117.225 40.9357L119.05 41.7709C119.2 41.8387 119.268 42.0164 119.197 42.166L118.968 42.6654C118.901 42.815 118.723 42.8827 118.573 42.8121L116.748 41.9769C116.598 41.912 116.533 41.7343 116.601 41.5819Z" fill="#4E3F3F"/>
<path d="M120.407 42.6654L120.179 42.166C120.111 42.0164 120.176 41.8387 120.325 41.7709L122.151 40.9357C122.301 40.868 122.478 40.9329 122.546 41.0825L122.775 41.5819C122.842 41.7314 122.777 41.9092 122.628 41.9769L120.802 42.8121C120.653 42.8827 120.478 42.8178 120.407 42.6654Z" fill="#4E3F3F"/>
<path d="M113.553 37.9928C112.456 38.0211 111.538 37.1548 111.51 36.0572V35.411C111.536 34.3106 112.45 33.4415 113.55 33.4669C113.553 33.4669 113.553 33.4669 113.556 33.4669C114.656 33.4358 115.571 34.3049 115.602 35.4025C115.602 35.4025 115.602 35.4025 115.602 35.4054V36.0572C115.568 37.1548 114.651 38.0239 113.553 37.9928Z" fill="#4E3F3F"/>
<path d="M113.553 33.4667V35.7269C113.579 36.2912 114.055 36.7286 114.623 36.706C115.153 36.6835 115.576 36.2574 115.602 35.7269V35.4052C115.568 34.3048 114.654 33.4385 113.553 33.4667Z" fill="#5D5360"/>
<path d="M113.554 35.411C113.929 35.411 114.234 35.1217 114.234 34.7648C114.234 34.4079 113.929 34.1187 113.554 34.1187C113.178 34.1187 112.874 34.4079 112.874 34.7648C112.874 35.1217 113.178 35.411 113.554 35.411Z" fill="#4D4040"/>
<path d="M125.825 37.9928C124.725 38.0239 123.81 37.1548 123.779 36.0572V35.411C123.805 34.3106 124.719 33.4415 125.817 33.4669C125.819 33.4669 125.822 33.4669 125.825 33.4669C126.925 33.4358 127.84 34.3049 127.871 35.4025C127.871 35.4025 127.871 35.4025 127.871 35.4054V36.0572C127.843 37.1548 126.925 38.0239 125.825 37.9928Z" fill="#4E3F3F"/>
<path d="M125.825 33.4667V35.7269C125.85 36.2912 126.327 36.7286 126.894 36.706C127.425 36.6835 127.848 36.2574 127.873 35.7269V35.4052C127.842 34.3048 126.928 33.4385 125.825 33.4667C125.828 33.4667 125.825 33.4667 125.825 33.4667Z" fill="#5D5360"/>
<path d="M125.825 35.411C126.201 35.411 126.505 35.1217 126.505 34.7648C126.505 34.4079 126.201 34.1187 125.825 34.1187C125.449 34.1187 125.145 34.4079 125.145 34.7648C125.145 35.1217 125.449 35.411 125.825 35.411Z" fill="#4D4040"/>
<path d="M135.275 28.306H103.624V21.3195L119.231 11.9487L135.275 21.3195V28.306Z" fill="#FFEDD9"/>
<path d="M106.841 6.97121L105.845 19.5418L133.523 21.6383L128.675 2.88542C128.675 2.88542 127.462 -1.19474 122.837 0.348725C118.212 1.89219 106.841 6.97121 106.841 6.97121Z" fill="#FFEDD9"/>
<path d="M132.978 19.5219C129.174 19.268 124.775 19.1241 119.688 19.1015C114.332 19.0846 109.761 19.2341 105.853 19.4994L106.217 14.8972C111.197 14.8972 116.163 14.8549 121.138 14.7166C124.561 14.6178 128.139 14.663 131.666 14.4373L132.978 19.5219Z" fill="#A16552"/>
<path d="M143.596 112.595C142.467 112.068 141.209 111.768 139.88 111.768H139.115C138.164 110.025 136.316 108.842 134.191 108.842C132.284 108.842 130.599 109.796 129.586 111.252C128.663 108.758 126.265 106.98 123.452 106.98C121.51 106.98 119.767 107.827 118.57 109.172C117.332 106.746 114.809 105.081 111.897 105.081C107.941 105.081 104.704 108.148 104.431 112.036C101.601 111.757 95.9911 112.745 93.9595 115.657C93.6943 116.035 93.7169 116.548 94.0047 116.907C96.1407 119.582 100.06 119.782 119.527 119.991C135.912 120.166 141.604 117.787 143.539 116.766C144.101 116.469 144.434 115.86 144.358 115.231C144.239 114.297 143.977 113.413 143.596 112.595Z" fill="#B7824E"/>
<path d="M110.176 112.892C111.54 112.892 112.645 111.786 112.645 110.423C112.645 109.059 111.54 107.954 110.176 107.954C108.812 107.954 107.707 109.059 107.707 110.423C107.707 111.786 108.812 112.892 110.176 112.892Z" fill="#AA6D3C"/>
<path d="M108.122 59.8722C108.122 59.8722 109.355 58.642 112.442 58.1736C112.402 59.9371 108.618 63.2978 108.618 63.2978L108.122 59.8722Z" fill="#A16552"/>
<path d="M127.583 58.1763C127.583 58.1763 130.969 58.9692 131.985 60.0245C130.949 60.3151 129.651 59.4489 129.651 59.4489L127.583 58.1763Z" fill="#A16552"/>
<path d="M141.996 74.1131L132.261 60.3433C131.587 59.3896 130.266 59.161 129.313 59.8382C128.52 60.3997 128.232 61.4071 128.542 62.279C129.699 62.564 130.537 63.4331 130.535 64.4573V65.2333L137.922 75.6848L134.084 87.1465L131.322 89.2543C130.393 89.9625 130.213 91.2915 130.921 92.2199C131.339 92.7673 131.968 93.0523 132.606 93.0523C133.054 93.0523 133.503 92.9112 133.887 92.6177L137.168 90.1177C137.504 89.8609 137.758 89.5082 137.891 89.1075L142.276 76.0121C142.49 75.3688 142.386 74.6662 141.996 74.1131Z" fill="#A16552"/>
<path d="M108.675 89.1923L105.912 87.0845L102.075 75.6228L109.462 65.1713V64.3981C109.462 64.1555 109.51 63.9128 109.606 63.6814C109.905 62.9562 110.61 62.4371 111.448 62.2254C111.767 61.3507 111.479 60.3405 110.684 59.7762C109.73 59.1018 108.409 59.3276 107.735 60.2813L98.0002 74.0511C97.6108 74.6013 97.5064 75.3039 97.7208 75.9444L102.106 89.0399C102.241 89.4406 102.492 89.7933 102.828 90.05L106.11 92.5501C106.493 92.8435 106.945 92.9846 107.391 92.9846C108.028 92.9846 108.658 92.6968 109.075 92.1522C109.781 91.2295 109.603 89.9033 108.675 89.1923Z" fill="#A16552"/>
</svg>
