<svg width="1165" height="1522" xmlns="http://www.w3.org/2000/svg" xmlns:xlink="http://www.w3.org/1999/xlink" overflow="hidden"><defs><clipPath id="clip0"><rect x="1617" y="476" width="1165" height="1522"/></clipPath><clipPath id="clip1"><rect x="1620" y="478" width="1160" height="1519"/></clipPath><clipPath id="clip2"><rect x="1620" y="478" width="1160" height="1519"/></clipPath><clipPath id="clip3"><rect x="1620" y="478" width="1160" height="1519"/></clipPath><linearGradient x1="476.746" y1="751.072" x2="476.746" y2="-1079" gradientUnits="userSpaceOnUse" spreadMethod="pad" id="fill4"><stop offset="0" stop-color="#F8F4C7" stop-opacity="1"/><stop offset="1" stop-color="#FCB422" stop-opacity="1"/></linearGradient><linearGradient x1="1498.88" y1="124.27" x2="1498.88" y2="-1062.79" gradientUnits="userSpaceOnUse" spreadMethod="pad" id="fill5"><stop offset="0" stop-color="#F8F4C7" stop-opacity="0.3"/><stop offset="1" stop-color="#F8F4C7" stop-opacity="0"/></linearGradient><linearGradient x1="-214.278" y1="453.8" x2="-214.278" y2="847.637" gradientUnits="userSpaceOnUse" spreadMethod="pad" id="fill6"><stop offset="0" stop-color="#FBB62B" stop-opacity="0"/><stop offset="1" stop-color="#E28C10" stop-opacity="0.5"/></linearGradient><linearGradient x1="-410.678" y1="894.816" x2="-534.043" y2="1642.79" gradientUnits="userSpaceOnUse" spreadMethod="pad" id="fill7"><stop offset="0" stop-color="#97880F" stop-opacity="0"/><stop offset="1" stop-color="#395E11" stop-opacity="0.4"/></linearGradient><radialGradient cx="1.60713e+06" cy="2.10173e+06" r="2.64578e+06" fx="1.60713e+06" fy="2.10174e+06" gradientUnits="userSpaceOnUse" spreadMethod="pad" id="fill8" gradientTransform="matrix(0.000360892 0 0 0.000360892 1620 479)"><stop offset="0" stop-color="#000000" stop-opacity="0"/><stop offset="0.6" stop-color="#000000" stop-opacity="0.0509804"/><stop offset="0.99" stop-color="#000000" stop-opacity="0.25098"/><stop offset="1" stop-color="#000000" stop-opacity="0.25098"/></radialGradient></defs><g clip-path="url(#clip0)" transform="translate(-1617 -476)"><g clip-path="url(#clip1)"><g clip-path="url(#clip2)"><g clip-path="url(#clip3)"><path d="M3177.26-1121.79-2223.77-1121.79-2223.77 2477.41 3177.26 2477.41 3177.26-1121.79Z" fill="url(#fill4)" fill-rule="nonzero" transform="matrix(1 0 0 1.00005 1620 479)"/><path d="M3177.26-311.251C3166.46-304.052 3160.7-295.414 3164.3-286.056 3147.74-327.087 3108.13-358.042 3064.2-364.518 3020.27-370.997 2973.46-352.283 2946.1-317.729 2954.74-373.877 2911.53-432.903 2856.08-442.262 2799.91-451.621 2740.14-410.588 2729.34-355.162 2727.9-406.988 2650.12-435.782 2614.84-397.633 2614.11-450.9 2580.99-502.009 2532.74-523.603 2484.49-545.2 2424-535.841 2384.39-501.288 2397.35-573.273 2338.3-643.096 2268.45-664.69 2203.64-684.129 2138.1-658.931 2079.05-629.42 2071.13-707.881 1999.12-765.469 1925.66-794.264 1814.04-837.455 1682.26-833.134 1578.56-773.387 1474.86-713.64 1403.56-596.309 1408.6-476.815 1332.27-517.123 1223.53-472.494 1198.32-389.712 1188.24-460.256 1118.39-517.123 1047.1-512.806 975.8-508.485 913.15-443.7 911.708-372.435 894.425-401.95 846.175-401.23 823.13-376.036 800.088-350.842 799.367-310.531 812.329-278.858 790.725-299.013 748.238-279.577 748.958-250.064 727.354-320.608 627.254-342.204 564.601-303.332 501.95-264.461 473.863-186.718 470.263-112.575 448.659-132.73 410.492-130.571 391.768-108.256 373.046-85.9409 377.367-47.7892 400.409-29.7933 358.642-42.0304 314.714-53.5481 272.946-42.7505 231.178-31.9528 194.451 11.9574 207.413 52.9883 168.526 31.3931 111.635 70.2644 118.116 114.175 68.4263 63.0659-31.6731 83.9414-57.5981 150.166-98.646 143.688-141.134 148.727-180.022 164.563-100.806 193.357-12.2293 197.676 69.1463 176.801 94.3512 214.952 158.444 217.831 186.529 181.84 229.737 232.948 326.956 217.112 350.721 154.486 452.259 240.147 635.175 189.038 677.663 63.0662 724.471 125.692 831.054 128.572 881.463 68.8247 886.504 112.015 924.671 149.447 967.879 153.766 1011.09 158.085 1055.74 129.291 1069.42 88.2605 1181.76 216.392 1413.65 208.474 1517.34 73.1438 1558.39 135.05 1633.29 173.921 1707.46 171.762 1781.64 169.602 1854.37 127.132 1891.82 63.0662 1930.7 118.494 2017.84 132.171 2071.85 91.1399 2143.14 163.844 2278.53 153.766 2339.02 72.4238 2362.07 143.688 2432.64 196.236 2507.54 197.676 2582.43 199.116 2655.16 149.447 2681.09 78.9026 2701.25 120.653 2766.06 130.731 2798.47 97.6184 2849.6 185.439 2995.07 195.517 3057.72 114.895 3088.69 151.606 3130.46 177.52 3176.54 190.478L3176.54-311.251 3177.26-311.251Z" fill="url(#fill5)" fill-rule="nonzero" transform="matrix(1 0 0 1.00005 1620 479)"/><path d="M2192.12-1121.79 1147.92 1157.94-203.782 1157.94 1050.7-1121.79 2192.12-1121.79Z" fill="#FFF8BB" fill-rule="nonzero" fill-opacity="0.15" transform="matrix(1 0 0 1.00005 1620 479)"/><path d="M1949.43-1121.79 918.188 1157.94 508.43 1157.94 1727.62-1121.79 1949.43-1121.79Z" fill="#FFF8BB" fill-rule="nonzero" fill-opacity="0.2" transform="matrix(1 0 0 1.00005 1620 479)"/><path d="M1449.66-1121.79 265.75 1157.94 61.9512 1157.94 1336.6-1121.79 1449.66-1121.79Z" fill="#FFF8BB" fill-rule="nonzero" fill-opacity="0.2" transform="matrix(1 0 0 1.00005 1620 479)"/><path d="M440.738-1121.79-723.727 1157.94-1076.59 1157.94 265.024-1121.79 440.738-1121.79Z" fill="#FFF8BB" fill-rule="nonzero" fill-opacity="0.15" transform="matrix(1 0 0 1.00005 1620 479)"/><path d="M1257.28 520.977C1126.9 468.571 798.883 451.411 473.647 460.225-180.076 478.311-1012.42 689.325-1686.09 859.992L1257.28 859.992 1257.28 520.977Z" fill="#FBB62B" fill-rule="nonzero" fill-opacity="1" transform="matrix(1 0 0 1.00005 1620 479)"/><path d="M273.212 623.476C524.217 600.75 645.773 569.677 645.773 569.677 645.773 569.677 466.684 656.865 529.784 666.142 592.88 675.882 1329.19 521.907 1036.43 476.458L1036.43 475.995C880.073 458.835 676.393 454.198 474.107 460.228 203.618 467.648-97.9568 508.461-405.564 565.503-413.914 570.603-420.874 575.706-426.441 581.736-466.807 627.186 21.7453 646.199 273.212 623.476Z" fill="#FCC64F" fill-rule="nonzero" fill-opacity="1" transform="matrix(1 0 0 1.00005 1620 479)"/><path d="M1257.28 520.981C1222.02 506.604 1171.91 495.011 1111.13 485.734 1402.5 587.763 1050.82 893.389 273.215 835.879-464.484 781.157-586.97 653.619-510.88 585.446-659.81 614.663-809.206 647.125-957.209 681.445L-968.809 859.069 1257.28 859.069 1257.28 520.981Z" fill="#EC9C19" fill-rule="nonzero" fill-opacity="1" transform="matrix(1 0 0 1.00005 1620 479)"/><path d="M1257.28 520.977C1126.9 468.571 798.883 451.411 473.647 460.225-180.076 478.311-1012.42 689.325-1686.09 859.992L1257.28 859.992 1257.28 520.977Z" fill="url(#fill6)" fill-rule="nonzero" transform="matrix(1 0 0 1.00005 1620 479)"/><path d="M1257.28 580.346C1250.78 573.39 1244.75 572.46 1235.47 572.46 1232.69 572.46 1229.44 572.927 1226.66 573.853 1223.87 574.78 1222.02 576.637 1220.16 578.953 1214.59 584.983 1210.88 592.866 1209.49 601.216 1204.39 596.576 1196.04 594.26 1189.54 597.039 1183.04 600.286 1178.87 607.709 1179.33 615.129 1169.59 601.68 1150.57 595.65 1135.72 602.606 1120.87 609.563 1112.99 629.506 1121.34 643.882 1116.23 641.562 1109.74 643.419 1106.49 648.055 1103.24 652.692 1103.71 659.185 1107.88 663.359 1098.6 663.825 1089.32 665.679 1081.44 670.315 1073.55 674.955 1067.52 683.302 1067.05 692.115 1067.05 701.388 1074.01 710.665 1082.83 711.128 1077.72 711.591 1072.62 712.055 1068.45 714.375 1064.27 716.695 1060.56 721.331 1061.49 726.434 1062.41 732.461 1068.45 735.708 1074.01 738.491 1064.27 746.837 1063.81 763.534 1072.16 773.737 1080.51 783.94 1095.36 787.187 1107.88 783.94 1107.88 794.143 1114.38 803.42 1122.73 808.983 1131.08 814.55 1141.29 816.866 1151.49 817.796 1167.73 818.723 1185.36 815.476 1197.43 803.883L1257.28 803.883C1257.28 803.417 1257.28 580.346 1257.28 580.346Z" fill="#4D542B" fill-rule="nonzero" fill-opacity="1" transform="matrix(1 0 0 1.00005 1620 479)"/><path d="M1257.28 648.519C1241.5 643.419 1226.66 644.809 1213.2 655.012 1199.75 665.215 1195.11 686.085 1205.31 699.071 1193.25 695.362 1179.33 707.881 1181.19 720.404 1177.94 701.388 1153.35 703.708 1141.29 712.055 1132.01 719.011 1126.9 730.608 1127.37 741.737 1115.3 738.491 1101.85 749.621 1102.78 761.681 1090.71 754.261 1074.01 755.651 1062.88 764.927 1052.21 774.2 1048.03 790.433 1052.67 803.42 1046.64 802.953 1040.61 802.49 1035.04 804.81 1029.47 807.13 1024.83 812.23 1025.3 818.26 1017.87 811.766 1007.2 809.446 997.922 811.766 988.642 814.086 980.292 821.506 977.042 830.779 968.692 826.606 958.023 827.533 951.062 833.563 944.103 839.593 940.856 849.796 943.639 858.606L1257.28 858.606 1257.28 648.519Z" fill="#6A8922" fill-rule="nonzero" fill-opacity="1" transform="matrix(1 0 0 1.00005 1620 479)"/><path d="M1257.28 859.072-2222.44 859.072-2222.44 1801.92 1257.28 1801.92 1257.28 859.072Z" fill="#B4A30B" fill-rule="nonzero" fill-opacity="1" transform="matrix(1 0 0 1.00005 1620 479)"/><path d="M1257.28 1074.26C289.45 928.638-726.16 905.448-2222.44 903.132L-2222.44 859.072 1257.28 859.072 1257.28 1074.26Z" fill="#D2BE07" fill-rule="nonzero" fill-opacity="1" transform="matrix(1 0 0 1.00005 1620 479)"/><path d="M-2222.44 1801.91-2222.44 1185.1C-2222.44 1185.1-1021.24 1039.01-86.3586 1116.46 848.523 1193.91 1257.28 1371.07 1257.28 1371.07L1257.28 1801.91-2222.44 1801.91Z" fill="#97880F" fill-rule="nonzero" fill-opacity="1" transform="matrix(1 0 0 1.00005 1620 479)"/><path d="M4.58049 859.069C150.264 893.389 510.297 1036.23 598.913 1112.75 647.167 1154.03 578.037 1160.98 386.421 1241.68 198.98 1320.52 55.6162 1430.9-65.0139 1547.3-185.644 1663.71-406.954 1801.91-907.566 1801.91L245.84 1801.91C245.84 1801.91 293.629 1741.16 360.437 1619.65 431.887 1489.33 454.16 1431.36 680.573 1330.26 906.523 1229.16 988.642 1208.29 941.319 1160.52 881.933 1101.16 521.434 922.141 141.913 858.606L4.58049 858.606 4.58049 859.069Z" fill="#EDBD05" fill-rule="nonzero" fill-opacity="1" transform="matrix(1 0 0 1.00005 1620 479)"/><path d="M624.897 996.347C486.17 941.158 315.897 887.825 141.448 858.606L4.57901 858.606C77.8847 875.766 205.474 920.288 325.176 970.374 426.784 978.257 526.537 987.071 624.897 996.347Z" fill="#FFD039" fill-rule="nonzero" fill-opacity="1" transform="matrix(1 0 0 1.00005 1620 479)"/><path d="M680.107 1330.26C753.413 1297.8 810.943 1273.22 854.556 1253.74 759.91 1232.4 647.63 1210.14 516.794 1188.81 482.46 1202.26 438.847 1218.95 385.491 1241.22 198.051 1320.06 54.6875 1430.43-65.9426 1546.84-186.573 1663.24-407.881 1801.45-908.496 1801.45L245.839 1801.45C245.839 1801.45 293.628 1740.7 360.437 1619.19 431.887 1489.8 454.157 1431.36 680.107 1330.26Z" fill="#E9AD01" fill-rule="nonzero" fill-opacity="1" transform="matrix(1 0 0 1.00005 1620 479)"/><path d="M1257.27 859.072-2222.44 859.072-2222.44 1801.92 1257.27 1801.92 1257.27 859.072Z" fill="url(#fill7)" fill-rule="nonzero" transform="matrix(1 0 0 1.00005 1620 479)"/><path d="M1257.28 1457.33C1236.4 1430.9 1171.45 1438.78 1155.21 1457.33 1138.97 1475.88 1133.86 1512.98 1142.68 1527.82 1142.68 1527.82 1119.48 1500.93 1092.57 1515.3 1065.66 1529.68 1092.57 1558.9 1092.57 1558.9 1092.57 1558.9 1063.81 1564 1063.81 1583.94 1063.81 1603.42 1081.9 1620.11 1081.9 1620.11 1081.9 1620.11 1058.7 1612.69 1049.42 1628.92 1040.61 1645.16 1049.42 1657.68 1049.42 1657.68 1049.42 1657.68 1048.5 1608.98 981.682 1604.34 914.873 1600.17 900.489 1656.29 900.489 1656.29 900.489 1656.29 880.539 1624.29 842.959 1635.42 805.38 1646.55 810.483 1673.91 810.483 1673.91 810.483 1673.91 787.283 1655.82 767.333 1670.2 747.383 1684.58 752.95 1700.81 752.95 1700.81 752.95 1700.81 706.553 1660 654.59 1690.61 602.163 1721.22 614.69 1757.85 614.69 1757.85 614.69 1757.85 577.11 1716.58 534.89 1743.48L530.25 1772.23C530.25 1772.23 499.627 1739.77 463.904 1749.04 428.177 1757.85 422.611 1772.23 422.611 1772.23 422.611 1772.23 349.304 1738.84 304.301 1801.91L1257.28 1801.91 1257.28 1457.33Z" fill="#4D542B" fill-rule="nonzero" fill-opacity="1" transform="matrix(1 0 0 1.00005 1620 479)"/><path d="M28.7059 1801.91 4.57984 1437.85 66.2868 1450.84 66.2868 1801.91 28.7059 1801.91Z" fill="#66321C" fill-rule="nonzero" fill-opacity="1" transform="matrix(1 0 0 1.00005 1620 479)"/><path d="M44.9445 1446.2 12.4672 1446.2 23.6022 1727.71 4.57984 1437.85 44.9445 1446.2Z" fill="#542400" fill-rule="nonzero" fill-opacity="1" transform="matrix(1 0 0 1.00005 1620 479)"/><path d="M66.2844 1450.84 66.2844 1801.91 47.2621 1801.91 44.9421 1446.2 66.2844 1450.84Z" fill="#542919" fill-rule="nonzero" fill-opacity="1" transform="matrix(1 0 0 1.00005 1620 479)"/><path d="M981.682 1801.91C385.491 1576.52-802.25 1292.23-1318.64 1253.74L-1356.68 1261.62-1322.35 1276.93C-844.47 1319.59 202.69 1582.09 877.753 1801.91L981.682 1801.91Z" fill="#542919" fill-rule="nonzero" fill-opacity="1" transform="matrix(1 0 0 1.00005 1620 479)"/><path d="M923.223 1801.91C327.032 1576.52-840.296 1300.11-1356.68 1261.62L-1351.58 1280.17C-873.699 1322.84 126.136 1552.87 849.453 1801.91L923.223 1801.91Z" fill="#66321C" fill-rule="nonzero" fill-opacity="1" transform="matrix(1 0 0 1.00005 1620 479)"/><path d="M923.223 1801.91C327.032 1576.52-840.296 1300.11-1356.68 1261.62L-1354.83 1267.65C-842.15 1306.61 306.153 1577.91 906.056 1801.91L923.223 1801.91Z" fill="#542400" fill-rule="nonzero" fill-opacity="1" transform="matrix(1 0 0 1.00005 1620 479)"/><path d="M456.477 1801.91C-77.5439 1608.98-689.047 1418.84-1319.1 1327.01L-1357.15 1334.9-1322.82 1350.2C-919.169 1385.91-277.975 1602.95 318.215 1801.91L456.477 1801.91Z" fill="#542919" fill-rule="nonzero" fill-opacity="1" transform="matrix(1 0 0 1.00005 1620 479)"/><path d="M398.944 1801.91C-122.548 1612.23-697.86 1429.97-1357.61 1334.9L-1352.51 1353.45C-723.843 1447.59-264.52 1603.88 304.76 1801.91L398.944 1801.91Z" fill="#66321C" fill-rule="nonzero" fill-opacity="1" transform="matrix(1 0 0 1.00005 1620 479)"/><path d="M398.944 1801.91C-122.548 1612.23-697.86 1429.97-1357.61 1334.9L-1356.22 1339.54C-702.5 1434.14-130.899 1613.62 386.88 1801.91L398.944 1801.91Z" fill="#542400" fill-rule="nonzero" fill-opacity="1" transform="matrix(1 0 0 1.00005 1620 479)"/><path d="M1003.95 1020.93C1003.95 1020.93 1003.95 1010.26 1014.16 1006.55 1024.37 1002.84 1035.5 1008.4 1035.5 1008.4 1035.5 1008.4 1030.4 1015.82 1022.51 1019.07 1014.16 1021.39 1003.95 1020.93 1003.95 1020.93Z" fill="#4D522A" fill-rule="nonzero" fill-opacity="1" transform="matrix(1 0 0 1.00005 1620 479)"/><path d="M996.529 1020.93C996.529 1020.93 993.746 999.13 1007.2 995.421 1020.66 991.711 1029.47 992.637 1029.47 992.637 1029.47 992.637 1027.15 1008.87 1016.02 1013.97 1004.88 1019.54 996.529 1020.93 996.529 1020.93Z" fill="#4D522A" fill-rule="nonzero" fill-opacity="1" transform="matrix(1 0 0 1.00005 1620 479)"/><path d="M979.822 974.084C973.326 984.287 971.932 997.274 979.822 1007.94 985.852 1016.29 996.989 1020.93 996.989 1020.93 996.989 1020.93 1002.09 1010.72 997.916 997.737 993.739 984.751 979.822 974.084 979.822 974.084Z" fill="#5C5C02" fill-rule="nonzero" fill-opacity="1" transform="matrix(1 0 0 1.00005 1620 479)"/><path d="M1003.95 1020.93C1003.95 1020.93 1000.7 1005.62 1005.8 997.737 1010.91 989.854 1018.79 987.071 1018.79 987.071 1018.79 987.071 1020.65 998.204 1018.79 1004.23 1015.55 1013.97 1003.95 1020.93 1003.95 1020.93Z" fill="#5C5C02" fill-rule="nonzero" fill-opacity="1" transform="matrix(1 0 0 1.00005 1620 479)"/><path d="M986.782 1020C984.462 1015.36 973.329 1007.01 968.226 1008.4 963.122 1009.8 965.906 1013.97 971.472 1017.22 975.182 1019.07 986.782 1020 986.782 1020Z" fill="#5C5C02" fill-rule="nonzero" fill-opacity="1" transform="matrix(1 0 0 1.00005 1620 479)"/><path d="M1004.43 1404.93C1004.43 1404.93 999.789 1393.8 1009.53 1386.37 1018.81 1378.95 1027.63 1380.81 1027.63 1380.81 1027.63 1380.81 1016.03 1384.98 1014.17 1389.62 1012.78 1395.19 1004.43 1404.93 1004.43 1404.93Z" fill="#4D522A" fill-rule="nonzero" fill-opacity="1" transform="matrix(1 0 0 1.00005 1620 479)"/><path d="M1010.92 1405.85C1010.92 1405.85 1012.78 1393.8 1021.13 1388.69 1029.48 1383.59 1043.4 1386.37 1043.4 1386.37 1043.4 1386.37 1038.3 1397.97 1030.41 1401.22 1021.13 1404.46 1010.92 1405.85 1010.92 1405.85Z" fill="#4D522A" fill-rule="nonzero" fill-opacity="1" transform="matrix(1 0 0 1.00005 1620 479)"/><path d="M1018.81 1405.85C1018.81 1405.85 1026.7 1398.43 1033.66 1398.9 1040.62 1399.36 1045.26 1403.53 1045.26 1403.53 1045.26 1403.53 1040.62 1407.71 1034.59 1407.71 1028.09 1408.17 1018.81 1405.85 1018.81 1405.85Z" fill="#4D522A" fill-rule="nonzero" fill-opacity="1" transform="matrix(1 0 0 1.00005 1620 479)"/><path d="M1010.92 1405.85C1010.92 1405.85 1003.03 1398.9 1005.35 1386.38 1008.14 1373.85 1019.73 1366.9 1019.73 1366.9 1019.73 1366.9 1025.3 1380.35 1023.45 1390.09 1022.05 1399.83 1010.92 1405.85 1010.92 1405.85Z" fill="#5C5C02" fill-rule="nonzero" fill-opacity="1" transform="matrix(1 0 0 1.00005 1620 479)"/><path d="M1004.89 1405.86C1004.89 1405.86 990.969 1399.36 990.969 1392.87 990.969 1386.38 995.609 1373.85 995.609 1373.85 995.609 1373.85 999.786 1378.96 1000.25 1386.38 1001.18 1393.33 1004.89 1405.86 1004.89 1405.86Z" fill="#5C5C02" fill-rule="nonzero" fill-opacity="1" transform="matrix(1 0 0 1.00005 1620 479)"/><path d="M1018.81 1405.85C1018.81 1405.85 1025.3 1392.4 1036.44 1394.26 1036.44 1394.72 1039.22 1406.32 1018.81 1405.85Z" fill="#5C5C02" fill-rule="nonzero" fill-opacity="1" transform="matrix(1 0 0 1.00005 1620 479)"/><path d="M673.61 693.042C673.61 693.042 655.053 718.084 647.167 770.027 639.277 821.97 673.61 827.533 673.61 827.533 673.61 827.533 703.77 818.723 698.2 770.027 692.17 721.794 673.61 693.042 673.61 693.042Z" fill="#7F770E" fill-rule="nonzero" fill-opacity="1" transform="matrix(1 0 0 1.00005 1620 479)"/><path d="M672.223 767.244 668.51 859.072 677.327 859.072 672.223 767.244Z" fill="#525000" fill-rule="nonzero" fill-opacity="1" transform="matrix(1 0 0 1.00005 1620 479)"/><path d="M729.75 624.869C729.75 624.869 703.303 660.579 692.17 733.854 681.033 807.593 729.75 815.476 729.75 815.476 729.75 815.476 772.433 802.957 764.546 734.318 756.196 665.215 729.75 624.869 729.75 624.869Z" fill="#716D0A" fill-rule="nonzero" fill-opacity="1" transform="matrix(1 0 0 1.00005 1620 479)"/><path d="M727.893 729.681 722.786 859.072 734.85 859.072 727.893 729.681Z" fill="#525000" fill-rule="nonzero" fill-opacity="1" transform="matrix(1 0 0 1.00005 1620 479)"/><path d="M560.87 1042.72C550.2 1048.28 542.31 1058.95 544.167 1071.94 545.56 1082.14 552.517 1091.42 552.517 1091.42 552.517 1091.42 562.26 1084.92 565.047 1071.47 567.83 1058.95 560.87 1042.72 560.87 1042.72Z" fill="#F5D532" fill-rule="nonzero" fill-opacity="1" transform="matrix(1 0 0 1.00005 1620 479)"/><path d="M558.554 1095.59C558.554 1095.59 563.194 1080.75 571.547 1076.11 579.897 1071.47 587.784 1073.33 587.784 1073.33 587.784 1073.33 583.61 1084 579.434 1088.17 572.01 1095.13 558.554 1095.59 558.554 1095.59Z" fill="#F5D532" fill-rule="nonzero" fill-opacity="1" transform="matrix(1 0 0 1.00005 1620 479)"/><path d="M544.167 1086.32C544.63 1081.21 539.064 1068.23 533.96 1066.84 528.857 1065.45 528.857 1070.55 532.57 1076.11 534.424 1079.82 544.167 1086.32 544.167 1086.32Z" fill="#F5D532" fill-rule="nonzero" fill-opacity="1" transform="matrix(1 0 0 1.00005 1620 479)"/><path d="M448.137 1480.98C456.024 1476.81 462.984 1463.36 458.807 1449.45 454.631 1436 448.137 1427.65 448.137 1427.65 448.137 1427.65 435.611 1443.42 435.144 1454.08 434.681 1464.75 448.137 1480.98 448.137 1480.98Z" fill="#F5D532" fill-rule="nonzero" fill-opacity="1" transform="matrix(1 0 0 1.00005 1620 479)"/><path d="M457.877 1477.27C457.877 1477.27 457.877 1460.58 473.187 1454.08 473.187 1454.08 475.044 1465.21 468.547 1471.24 462.054 1477.74 457.877 1477.27 457.877 1477.27Z" fill="#F5D532" fill-rule="nonzero" fill-opacity="1" transform="matrix(1 0 0 1.00005 1620 479)"/><path d="M221.251 858.606 221.715 859.069 608.66 859.069C603.557 850.259 590.563 846.549 581.75 851.649 575.717 842.836 562.264 840.983 553.914 847.476 552.057 842.836 547.417 839.126 542.314 838.663 537.21 838.663 532.107 841.909 530.25 846.549 527.93 842.836 524.684 839.126 520.044 838.199 515.867 837.273 510.3 839.593 509.37 844.229 507.517 839.126 502.877 834.953 497.307 834.026 491.74 833.099 486.174 835.879 482.927 840.056 483.854 835.416 481.534 829.853 476.894 827.996 472.254 826.143 466.687 827.533 463.904 831.243 464.83 821.966 462.51 814.546 454.16 810.836 448.127 808.053 438.851 807.59 432.817 810.836 424.467 815.01 421.684 820.113 418.901 830.779 414.261 821.966 399.877 823.823 394.311 832.169 397.094 822.433 389.204 811.3 379.461 810.836 369.254 810.373 360.904 821.503 363.224 831.243 362.294 825.213 354.407 821.503 349.767 824.75 352.087 819.186 353.944 812.693 352.554 806.2 351.161 800.17 346.521 794.607 340.49 793.213 335.386 792.287 329.354 795.533 327.498 800.17 327.962 794.143 321.931 788.113 315.9 789.503 324.715 782.547 324.715 767.244 315.9 760.287 307.548 753.331 292.702 755.651 287.134 765.387 288.062 760.751 285.742 755.647 281.567 752.867 277.391 750.084 271.823 750.547 268.112 752.867 268.576 743.591 263.472 733.851 255.585 728.751 247.697 723.648 237.026 722.721 228.675 726.894 224.499 728.751 221.251 730.141 218.932 733.851 216.612 737.561 215.684 742.201 215.22 746.837 210.58 774.664 210.58 802.953 214.756 830.779 214.756 838.663 215.684 853.969 221.251 858.606Z" fill="#83831C" fill-rule="nonzero" fill-opacity="1" transform="matrix(1 0 0 1.00005 1620 479)"/><path d="M273.213 708.805 218.002 708.805 218.002 675.415 65.3584 488.514 81.5971 477.385 223.569 569.21 250.943 675.415 273.213 708.805Z" fill="#A8A274" fill-rule="nonzero" fill-opacity="1" transform="matrix(1 0 0 1.00005 1620 479)"/><path d="M273.211 708.805 245.373 678.662 217.999 678.662 217.999 708.805 273.211 708.805Z" fill="#878752" fill-rule="nonzero" fill-opacity="1" transform="matrix(1 0 0 1.00005 1620 479)"/><path d="M-87.7478 675.415-61.7659 569.213 68.1431 479.241 211.043 578.95 234.705 675.415 234.705 859.069-87.7478 859.069-87.7478 675.415Z" fill="#CF6842" fill-rule="nonzero" fill-opacity="1" transform="matrix(1 0 0 1.00005 1620 479)"/><path d="M-313.699 569.21-180.078 477.385 81.5967 477.385-52.4883 569.21-313.699 569.21Z" fill="#FCF9DE" fill-rule="nonzero" fill-opacity="1" transform="matrix(1 0 0 1.00005 1620 479)"/><path d="M97.3713 477.385-40.4253 572.456-66.4069 678.662-94.7088 708.805-110.947 708.805-78.4699 675.415-52.4883 569.21 81.5967 477.385 97.3713 477.385Z" fill="#FFFFFF" fill-rule="nonzero" fill-opacity="1" transform="matrix(1 0 0 1.00005 1620 479)"/><path d="M81.5943 477.385 219.391 572.456 245.373 678.662 273.211 708.805 289.449 708.805 256.972 675.415 230.99 569.21 97.3689 477.385 81.5943 477.385Z" fill="#FFFFFF" fill-rule="nonzero" fill-opacity="1" transform="matrix(1 0 0 1.00005 1620 479)"/><path d="M211.039 578.953 219.391 572.46 89.9453 482.488 81.13 488.054 211.039 578.953Z" fill="#878752" fill-rule="nonzero" fill-opacity="1" transform="matrix(1 0 0 1.00005 1620 479)"/><path d="M138.666 719.474 14.7886 719.474 14.7886 859.069 138.666 859.069 138.666 719.474Z" fill="#9C453B" fill-rule="nonzero" fill-opacity="1" transform="matrix(1 0 0 1.00005 1620 479)"/><path d="M18.9627 723.184 11.0751 723.184 11.0751 858.606 18.9627 858.606 18.9627 723.184Z" fill="#722828" fill-rule="nonzero" fill-opacity="1" transform="matrix(1 0 0 1.00005 1620 479)"/><path d="M134.492 723.184 126.605 723.184 126.605 858.606 134.492 858.606 134.492 723.184Z" fill="#722828" fill-rule="nonzero" fill-opacity="1" transform="matrix(1 0 0 1.00005 1620 479)"/><path d="M76.9571 723.184 69.0697 723.184 69.0697 858.606 76.9571 858.606 76.9571 723.184Z" fill="#722828" fill-rule="nonzero" fill-opacity="1" transform="matrix(1 0 0 1.00005 1620 479)"/><path d="M11.2037 723.164 11.2037 731.047 135.082 731.047 135.082 723.164 11.2037 723.164Z" fill="#722828" fill-rule="nonzero" fill-opacity="1" transform="matrix(1 0 0 1.00005 1620 479)"/><path d="M10.7885 788.968 10.7885 796.851 134.666 796.851 134.666 788.968 10.7885 788.968Z" fill="#722828" fill-rule="nonzero" fill-opacity="1" transform="matrix(1 0 0 1.00005 1620 479)"/><path d="M126.601 723.184 69.0697 793.213 76.9571 793.213 134.488 723.184 126.601 723.184Z" fill="#722828" fill-rule="nonzero" fill-opacity="1" transform="matrix(1 0 0 1.00005 1620 479)"/><path d="M18.9625 723.184 76.9577 793.213 69.0704 793.213 11.0751 723.184 18.9625 723.184Z" fill="#722828" fill-rule="nonzero" fill-opacity="1" transform="matrix(1 0 0 1.00005 1620 479)"/><path d="M123.354 859.069 69.0701 793.213 76.9574 793.213 131.241 859.069 123.354 859.069Z" fill="#722828" fill-rule="nonzero" fill-opacity="1" transform="matrix(1 0 0 1.00005 1620 479)"/><path d="M22.21 859.069 76.9577 793.213 69.0701 793.213 14.3227 859.069 22.21 859.069Z" fill="#722828" fill-rule="nonzero" fill-opacity="1" transform="matrix(1 0 0 1.00005 1620 479)"/><path d="M22.6742 719.474 14.7869 719.474 14.7869 859.069 22.6742 859.069 22.6742 719.474Z" fill="#FCF9DE" fill-rule="nonzero" fill-opacity="1" transform="matrix(1 0 0 1.00005 1620 479)"/><path d="M138.662 719.478 130.775 719.478 130.775 859.072 138.662 859.072 138.662 719.478Z" fill="#FCF9DE" fill-rule="nonzero" fill-opacity="1" transform="matrix(1 0 0 1.00005 1620 479)"/><path d="M80.6687 719.478 72.7814 719.478 72.7814 859.072 80.6687 859.072 80.6687 719.478Z" fill="#FCF9DE" fill-rule="nonzero" fill-opacity="1" transform="matrix(1 0 0 1.00005 1620 479)"/><path d="M15.0064 719.454 15.0064 727.34 138.884 727.34 138.884 719.454 15.0064 719.454Z" fill="#FCF9DE" fill-rule="nonzero" fill-opacity="1" transform="matrix(1 0 0 1.00005 1620 479)"/><path d="M15.055 785.258 15.055 793.145 138.933 793.145 138.933 785.258 15.055 785.258Z" fill="#FCF9DE" fill-rule="nonzero" fill-opacity="1" transform="matrix(1 0 0 1.00005 1620 479)"/><path d="M130.777 719.478 72.7814 789.044 80.6687 789.044 138.664 719.478 130.777 719.478Z" fill="#FCF9DE" fill-rule="nonzero" fill-opacity="1" transform="matrix(1 0 0 1.00005 1620 479)"/><path d="M23.1381 719.474 80.6694 789.04 72.7821 789.04 14.7869 719.474 23.1381 719.474Z" fill="#FCF9DE" fill-rule="nonzero" fill-opacity="1" transform="matrix(1 0 0 1.00005 1620 479)"/><path d="M130.777 859.069 72.7814 789.04 80.6687 789.04 138.664 859.069 130.777 859.069Z" fill="#FCF9DE" fill-rule="nonzero" fill-opacity="1" transform="matrix(1 0 0 1.00005 1620 479)"/><path d="M23.1381 859.069 80.6694 789.04 72.7821 789.04 14.7869 859.069 23.1381 859.069Z" fill="#FCF9DE" fill-rule="nonzero" fill-opacity="1" transform="matrix(1 0 0 1.00005 1620 479)"/><path d="M114.075 585.446 39.8412 585.446 39.8412 666.605 114.075 666.605 114.075 585.446Z" fill="#9C453B" fill-rule="nonzero" fill-opacity="1" transform="matrix(1 0 0 1.00005 1620 479)"/><path d="M36.4947 662.566 36.4947 669.986 110.729 669.986 110.729 662.566 36.4947 662.566Z" fill="#722828" fill-rule="nonzero" fill-opacity="1" transform="matrix(1 0 0 1.00005 1620 479)"/><path d="M36.4913 588.83 36.4913 596.25 110.725 596.25 110.725 588.83 36.4913 588.83Z" fill="#722828" fill-rule="nonzero" fill-opacity="1" transform="matrix(1 0 0 1.00005 1620 479)"/><path d="M36.4278 669.629 43.8511 669.629 43.8511 588.47 36.4278 588.47 36.4278 669.629Z" fill="#722828" fill-rule="nonzero" fill-opacity="1" transform="matrix(1 0 0 1.00005 1620 479)"/><path d="M103.183 669.629 110.606 669.629 110.606 588.47 103.183 588.47 103.183 669.629Z" fill="#722828" fill-rule="nonzero" fill-opacity="1" transform="matrix(1 0 0 1.00005 1620 479)"/><path d="M44.0189 588.69 102.942 662.432 102.942 669.852 44.0189 596.113 44.0189 588.69Z" fill="#722828" fill-rule="nonzero" fill-opacity="1" transform="matrix(1 0 0 1.00005 1620 479)"/><path d="M102.942 588.69 44.0189 662.432 44.0189 669.852 102.942 596.113 102.942 588.69Z" fill="#722828" fill-rule="nonzero" fill-opacity="1" transform="matrix(1 0 0 1.00005 1620 479)"/><path d="M39.6445 659.113 39.6445 666.533 113.878 666.533 113.878 659.113 39.6445 659.113Z" fill="#FCF9DE" fill-rule="nonzero" fill-opacity="1" transform="matrix(1 0 0 1.00005 1620 479)"/><path d="M39.6408 585.378 39.6408 592.798 113.875 592.798 113.875 585.378 39.6408 585.378Z" fill="#FCF9DE" fill-rule="nonzero" fill-opacity="1" transform="matrix(1 0 0 1.00005 1620 479)"/><path d="M39.8343 666.732 47.2576 666.732 47.2576 585.573 39.8343 585.573 39.8343 666.732Z" fill="#FCF9DE" fill-rule="nonzero" fill-opacity="1" transform="matrix(1 0 0 1.00005 1620 479)"/><path d="M106.591 666.732 114.015 666.732 114.015 585.573 106.591 585.573 106.591 666.732Z" fill="#FCF9DE" fill-rule="nonzero" fill-opacity="1" transform="matrix(1 0 0 1.00005 1620 479)"/><path d="M47.2645 585.446 106.187 659.185 106.187 666.605 47.2645 592.866 47.2645 585.446Z" fill="#FCF9DE" fill-rule="nonzero" fill-opacity="1" transform="matrix(1 0 0 1.00005 1620 479)"/><path d="M106.187 585.446 47.2645 659.185 47.2645 666.605 106.187 592.866 106.187 585.446Z" fill="#FCF9DE" fill-rule="nonzero" fill-opacity="1" transform="matrix(1 0 0 1.00005 1620 479)"/><path d="M821.335 953.839 867.728 366.707 908.095 366.707 954.491 953.839" stroke="#7C461D" stroke-width="3.43195" stroke-linecap="round" stroke-linejoin="round" stroke-miterlimit="10" stroke-opacity="1" fill="none" fill-rule="nonzero" transform="matrix(1 0 0 1.00005 1620 479)"/><path d="M908.098 366.707 861.238 446.01 921.551 541.082 853.815 541.082 914.128 446.01 867.735 366.707" stroke="#7C461D" stroke-width="3.43195" stroke-linecap="round" stroke-linejoin="round" stroke-miterlimit="10" stroke-opacity="1" fill="none" fill-rule="nonzero" transform="matrix(1 0 0 1.00005 1620 479)"/><path d="M921.551 541.082 843.605 669.083" stroke="#7C461D" stroke-width="3.43195" stroke-linecap="round" stroke-linejoin="round" stroke-miterlimit="10" stroke-opacity="1" fill="none" fill-rule="nonzero" transform="matrix(1 0 0 1.00005 1620 479)"/><path d="M931.758 669.083 832.005 820.271 943.818 820.271 843.605 669.083 931.758 669.083ZM931.758 669.083 853.811 541.082" stroke="#7C461D" stroke-width="3.43195" stroke-linecap="round" stroke-linejoin="round" stroke-miterlimit="10" stroke-opacity="1" fill="none" fill-rule="nonzero" transform="matrix(1 0 0 1.00005 1620 479)"/><path d="M832.005 820.271 953.098 938.069" stroke="#7C461D" stroke-width="3.43195" stroke-linecap="round" stroke-linejoin="round" stroke-miterlimit="10" stroke-opacity="1" fill="none" fill-rule="nonzero" transform="matrix(1 0 0 1.00005 1620 479)"/><path d="M943.825 820.271 822.728 938.069" stroke="#7C461D" stroke-width="3.43195" stroke-linecap="round" stroke-linejoin="round" stroke-miterlimit="10" stroke-opacity="1" fill="none" fill-rule="nonzero" transform="matrix(1 0 0 1.00005 1620 479)"/><path d="M929.441 439.52 845.932 439.52C843.145 439.52 841.292 441.836 841.292 444.156L841.292 445.083C841.292 447.866 843.612 449.723 845.932 449.723L929.441 449.723C932.228 449.723 934.081 447.403 934.081 445.083L934.081 444.156C934.548 441.836 932.228 439.52 929.441 439.52Z" fill="#542400" fill-rule="nonzero" fill-opacity="1" transform="matrix(1 0 0 1.00005 1620 479)"/><path d="M887.681 366.707 887.681 953.839" stroke="#7C461D" stroke-width="3.43195" stroke-linecap="round" stroke-linejoin="round" stroke-miterlimit="10" stroke-opacity="1" fill="none" fill-rule="nonzero" transform="matrix(1 0 0 1.00005 1620 479)"/><path d="M878.868 277.197C878.868 272.095 883.041 268.385 887.681 268.385 892.785 268.385 896.498 272.559 896.498 277.197 896.498 282.298 892.321 286.009 887.681 286.009 883.041 286.009 878.868 281.835 878.868 277.197Z" fill="#542400" fill-rule="nonzero" fill-opacity="1" transform="matrix(1 0 0 1.00005 1620 479)"/><path d="M887.685 255.4C887.685 255.4 873.301 228.037 878.868 215.052 884.435 202.066 894.641 192.327 896.498 198.82 898.355 205.313 887.685 255.4 887.685 255.4Z" fill="#542400" fill-rule="nonzero" fill-opacity="1" transform="matrix(1 0 0 1.00005 1620 479)"/><path d="M875.158 259.575C875.158 259.575 847.321 245.662 844.071 231.749 840.825 217.836 843.608 203.923 848.711 208.097 854.278 212.735 875.158 259.575 875.158 259.575Z" fill="#542400" fill-rule="nonzero" fill-opacity="1" transform="matrix(1 0 0 1.00005 1620 479)"/><path d="M866.805 270.242C866.805 270.242 836.185 275.343 825.515 266.068 814.841 256.792 808.812 243.807 815.772 244.271 822.732 244.734 866.805 270.242 866.805 270.242Z" fill="#542400" fill-rule="nonzero" fill-opacity="1" transform="matrix(1 0 0 1.00005 1620 479)"/><path d="M866.805 283.689C866.805 283.689 844.998 305.95 831.078 304.559 817.161 303.167 804.631 296.674 810.202 292.5 816.231 289.254 866.805 283.689 866.805 283.689Z" fill="#542400" fill-rule="nonzero" fill-opacity="1" transform="matrix(1 0 0 1.00005 1620 479)"/><path d="M875.155 294.819C875.155 294.819 870.515 325.427 858.451 332.848 846.388 340.268 832.005 342.123 834.788 335.63 837.108 328.674 875.155 294.819 875.155 294.819Z" fill="#542400" fill-rule="nonzero" fill-opacity="1" transform="matrix(1 0 0 1.00005 1620 479)"/><path d="M887.685 298.995C887.685 298.995 902.068 326.358 896.501 339.344 890.931 352.328 880.725 362.068 878.868 355.574 877.015 349.081 887.685 298.995 887.685 298.995Z" fill="#542400" fill-rule="nonzero" fill-opacity="1" transform="matrix(1 0 0 1.00005 1620 479)"/><path d="M900.675 294.819C900.675 294.819 928.515 308.732 931.761 322.645 935.008 336.558 932.225 350.471 927.121 346.298 921.555 341.195 900.675 294.819 900.675 294.819Z" fill="#542400" fill-rule="nonzero" fill-opacity="1" transform="matrix(1 0 0 1.00005 1620 479)"/><path d="M908.558 283.69C908.558 283.69 939.178 278.588 949.848 287.864 960.521 297.139 966.551 310.124 959.591 309.661 952.634 309.197 908.558 283.69 908.558 283.69Z" fill="#542400" fill-rule="nonzero" fill-opacity="1" transform="matrix(1 0 0 1.00005 1620 479)"/><path d="M908.558 270.24C908.558 270.24 930.364 247.98 944.281 249.371 958.201 250.762 970.728 257.255 965.161 261.429 959.128 265.139 908.558 270.24 908.558 270.24Z" fill="#542400" fill-rule="nonzero" fill-opacity="1" transform="matrix(1 0 0 1.00005 1620 479)"/><path d="M900.675 259.574C900.675 259.574 905.315 228.965 917.378 221.545 929.441 214.125 943.825 212.269 941.041 218.762 938.721 225.255 900.675 259.574 900.675 259.574Z" fill="#542400" fill-rule="nonzero" fill-opacity="1" transform="matrix(1 0 0 1.00005 1620 479)"/></g></g></g><rect x="1620" y="479" width="1160" height="1517" fill="url(#fill8)"/></g></svg>