<svg width="338" height="442" viewBox="0 0 338 442" fill="none" xmlns="http://www.w3.org/2000/svg">
    <g clip-path="url(#clip0_12161_80430)">
        <path d="M1382 -326H-25V1081H1382V-326Z" fill="#49B4E5" />
        <path opacity="0.5" d="M1208.84 16.7801C1161.93 17.1024 1114.88 16.8517 1068.12 12.5907C1044.88 10.478 1021.53 7.93577 998.793 2.4573C958.546 -7.24639 918.801 -19.5282 879.663 -32.92C834.189 -48.4961 787.998 -65.397 746.247 -89.5309C729.238 -99.3778 687.81 -122.617 699.59 -148.505C706.68 -164.081 726.231 -171.207 741.807 -173.391C773.675 -177.831 807.262 -171.135 838.593 -165.657C876.047 -159.104 913.716 -153.733 951.277 -147.896C977.094 -143.886 1002.95 -140.055 1028.91 -137.297C1054.01 -134.648 1079.18 -133.43 1104.28 -130.816C1196.45 -121.113 1289.22 -104.641 1382 -111.158V-149.114C1312.89 -145.068 1244.11 -143.277 1174.86 -146.75C1066.25 -152.229 960.981 -180.767 853.99 -197.668C799.241 -206.297 743.848 -211.991 688.383 -209.663C633.455 -207.336 579.135 -198.742 525.389 -187.463C420.224 -165.37 316.133 -133.788 208.39 -126.663C130.366 -121.471 52.6294 -127.2 -24.9644 -134.898V-100.345C8.90906 -86.1292 47.1867 -84.1956 83.4592 -85.6995C125.604 -87.4541 167.319 -93.8993 209.07 -99.521C252.719 -105.393 296.439 -109.905 340.052 -116.386C388.535 -123.619 437.555 -130.745 486.718 -129.635C582.752 -127.415 671.732 -84.6969 756.953 -44.1276C842.854 -3.20021 930.295 39.4101 1025.86 51.3696C1134.18 64.9405 1243.36 57.8865 1352.14 56.9913C1362.16 56.9197 1372.12 56.9555 1382.07 57.2062V17.7469C1324.39 14.8107 1266.38 16.3862 1208.84 16.7801Z" fill="#ACEBFF" />
        <path opacity="0.5" d="M211.147 139.813C233.741 130.718 261.134 119.94 277.283 100.783C283.119 93.8364 287.201 84.5982 282.51 75.8613C276.925 65.5131 265.753 58.1368 254.832 54.3771C225.291 44.2079 191.597 47.0008 161.017 49.6506C131.512 52.1929 101.649 57.6355 71.9653 57.2058C40.0971 56.7403 7.36952 53.8758 -24.0332 48.5405C-24.3555 48.4689 -24.6777 48.4331 -25 48.3615V189.728C-9.42396 188.94 6.08047 187.651 21.5133 185.896C86.0375 178.627 150.777 164.125 211.147 139.813Z" fill="#ACEBFF" />
        <path opacity="0.5" d="M962.915 212.072C981.248 198.608 1006.38 195.672 1028.37 193.703C1057.84 191.089 1087.49 191.411 1117.03 189.728C1206.47 184.608 1293.59 162.873 1382 149.875V122.053C1334.91 125.812 1288.04 131.577 1241.39 138.846C1196.09 145.936 1151.15 155.819 1105.57 160.653C988.588 173.114 871.5 159.758 754.59 153.67C696.583 150.663 637.608 148.228 579.744 154.53C526.213 160.366 473.863 173.257 422.802 190.05C373.46 206.271 325.228 225.571 276.602 243.832C228.8 261.772 180.568 279.747 130.259 289.236C79.3058 298.832 27.1708 303.021 -24.9642 302.95V350.537C-23.2455 350.645 -21.5267 350.752 -19.808 350.859C7.54856 352.542 34.9051 355.156 62.2974 356.445C80.7022 357.305 98.6774 357.627 116.652 353.151C139.641 347.422 162.271 340.332 185.151 334.138C211.183 327.084 237.931 319.743 264.929 317.631C278.5 316.556 295.974 315.554 302.204 330.163C312.373 353.903 288.884 378.646 273.093 393.183C240.974 422.796 202.267 445.461 164.168 466.373C117.19 492.118 68.6711 514.963 19.5439 536.232C4.7198 542.677 -10.1401 548.872 -25 554.959V616.511C47.1511 608.992 113.358 572.003 170.757 529.357C235.675 481.125 293.074 423.619 349.219 365.648C373.675 340.404 397.881 314.873 422.945 290.238C453.274 260.447 487.291 235.919 526.535 219.126C565.493 202.511 607.029 192.7 649.138 188.725C690.782 184.787 735.899 183.068 776.683 193.81C851.519 213.54 905.588 271.225 957.902 324.649C984.363 351.683 1011 378.968 1042.23 400.56C1072.02 421.149 1104.28 438.085 1137.62 452.157C1211.99 483.56 1291.95 503.075 1372.26 510.952C1375.48 511.275 1378.74 511.561 1381.96 511.848V458.531C1371.87 457.779 1361.73 457.063 1351.56 456.597C1316.12 454.986 1280.52 453.805 1245.36 448.684C1163.68 436.76 1082.47 401.061 1019.2 347.816C992.384 325.257 965.027 297.364 952.495 263.92C945.513 245.336 945.584 224.783 962.915 212.072Z" fill="#ACEBFF" />
        <path opacity="0.5" d="M1054.4 601.115C1013.62 587.365 976.88 567.886 939.927 546.043C901.434 523.27 861.796 502.144 820.332 485.243C739.372 452.229 651.43 435.615 563.882 442.167C423.877 452.695 308.506 539.562 195.929 614.972C140.5 652.104 83.6028 688.484 21.2986 713.119C6.08063 719.134 -9.38799 724.326 -25.0356 728.623V788.922C-4.51824 780.83 15.8201 772.057 36.3017 764.323C81.2753 747.35 124.96 726.582 165.243 700.228C241.368 650.385 303.422 573.4 393.226 546.473C438.88 532.795 486.539 535.659 532.658 545.685C582.287 556.463 630.268 574.188 676.817 594.383C722.829 614.327 763.577 643.51 806.009 669.864C850.302 697.4 896.636 720.424 948.055 730.915C1056.16 752.936 1168.45 737.611 1275.94 719.815C1311.32 713.978 1346.62 707.533 1381.96 701.625V611.57C1275.01 639.285 1158.71 636.241 1054.4 601.115ZM1045.09 683.292C1041.05 689.379 1033.78 692.279 1026.9 693.747C1012.87 696.827 997.97 696.54 983.719 695.466C943.543 692.422 904.979 678.494 868.886 661.199C829.427 642.293 792.151 619.376 755.091 596.209C739.157 586.255 723.402 574.94 706.537 566.632C693.396 560.151 680.147 553.778 667.543 546.258C650.499 536.089 618.595 516.753 627.833 492.333C637.752 466.086 675.242 468.629 697.191 472.46C702.527 473.391 707.826 474.537 713.125 475.79C722.614 476.22 732.067 477.831 741.306 480.087C776.074 488.609 808.981 504.185 840.742 520.406C868.528 534.585 896.171 549.159 923.814 563.625C942.684 573.507 960.588 585.503 977.811 597.999C997.111 612.036 1016.59 627.075 1032.13 645.3C1039.61 654.216 1053.29 670.974 1045.09 683.292Z" fill="#ACEBFF" />
        <path d="M71.4644 435.078C57.9293 438.658 58.18 447.18 63.5868 453.447C64.1597 454.306 64.7684 455.094 65.3772 455.703C68.0269 458.424 75.618 462.649 83.3881 461.36C92.125 459.892 96.7083 456.347 98.7135 452.516C102.151 446.106 93.235 429.277 71.4644 435.078Z" fill="white" />
        <rect opacity="0.8" width="338" height="442" fill="url(#paint0_linear_12161_80430)" />
        <g style="mix-blend-mode:multiply" opacity="0.5">
            <path d="M345.394 46.7392C345.739 47.6326 346.322 48.35 346.626 49.2752C346.84 49.917 347.025 50.7623 347.205 51.4341C347.292 51.7602 347.457 52.2193 347.53 52.6472C347.275 51.541 345.571 50.0333 344.831 49.1761C343.807 47.9616 342.708 46.809 341.564 45.6964C338.375 42.625 334.892 39.8752 331.164 37.487C325.256 33.5282 318.285 31.4567 311.174 31.5469C304.218 31.7979 297.414 33.6451 291.286 36.9458C282.284 41.7276 274.641 50.822 271.369 60.4996C270.302 63.6656 270.349 67.1273 270.045 70.4311C269.289 78.4949 270.926 86.6029 274.753 93.741C276.832 97.444 279.432 100.829 282.473 103.794C279.555 102.765 277.307 100.166 274.94 98.2977C274.517 97.9707 273.627 97.0488 273.012 97.4162C272.586 97.6773 273.088 98.6401 273.214 98.9C273.876 100.092 274.673 101.204 275.59 102.213C276.762 103.584 278.039 104.862 279.41 106.034C282.007 108.394 284.752 110.587 287.628 112.598C290.551 114.641 293.653 116.414 296.898 117.894C298.305 118.54 299.744 119.113 301.21 119.612C302.605 120.098 304.056 120.345 305.47 120.77C305.932 120.905 306.979 121.184 307.342 120.688C307.608 120.323 307.311 119.816 307.042 119.566C305.855 118.627 304.601 117.776 303.291 117.02C302.025 116.293 300.8 115.499 299.619 114.641C305.641 116.663 311.93 118.138 318.294 117.131C324.825 116.122 331.307 112.736 336.51 108.755C342.78 103.978 346.293 96.8435 349.898 90.0544C352.961 84.2916 353.788 78.17 353.237 71.7816C354.085 73.7821 354.706 75.8715 355.088 78.0105C355.251 78.7776 355.655 81.5634 356.754 81.6186C358.57 81.7191 357.424 73.6865 357.308 72.8859C356.5 67.7571 355.139 62.731 353.249 57.8954C351.569 53.4522 349.364 49.3176 345.655 46.25C345.386 46.0564 345.346 46.6123 345.394 46.7392ZM328.293 66.8683C328.305 66.914 328.315 66.9531 328.372 66.98C329.736 69.0659 330.564 71.4567 330.782 73.9398C330.928 76.344 330.515 78.7494 329.575 80.967C327.541 85.6522 323.968 89.5024 319.448 91.8802C316.735 93.3593 313.692 94.1267 310.602 94.1108C308.657 94.2111 306.71 93.966 304.85 93.387C301.649 92.4106 298.687 90.7755 296.154 88.5869C294.101 86.78 292.496 84.5207 291.465 81.9873C290.434 79.4538 290.006 76.7155 290.215 73.9883C290.21 73.0941 290.279 72.201 290.423 71.3184C291.996 61.7184 301.076 52.7702 311.181 53.565C318.843 54.1682 325.376 59.8695 328.293 66.8683Z" fill="#49B4E5" />
        </g>
        <path d="M349.752 61.9855L349.78 62.0899C350.485 64.7181 350.926 67.4102 351.095 70.1262C351.139 70.8133 351.163 71.4501 351.166 72.1134C351.169 72.7767 351.172 73.5448 351.138 74.2529C351.104 74.9611 351.064 75.6709 351.01 76.3843C350.884 77.6624 350.712 78.9248 350.474 80.1769C349.332 86.205 346.852 91.9001 343.217 96.8433C340.153 101.016 336.322 104.567 331.928 107.306C331.126 107.808 330.308 108.278 329.464 108.728C324.034 111.581 318.036 113.188 311.906 113.433C305.782 113.688 299.68 112.561 294.05 110.136C288.424 107.705 283.419 104.034 279.409 99.3971C275.4 94.7606 272.49 89.2785 270.895 83.3598L270.862 83.2359C269.261 77.3097 269.019 71.0984 270.153 65.0654C271.288 59.0325 273.771 53.3337 277.416 48.3942C278.612 46.7847 279.924 45.2649 281.342 43.8469C284.238 40.93 287.56 38.4701 291.194 36.5514C291.764 36.2519 292.35 35.962 292.94 35.6851C297.899 33.3637 303.272 32.0571 308.744 31.8421C312.798 31.6789 316.854 32.1286 320.775 33.176C322.775 33.707 324.733 34.3858 326.632 35.2068C332.249 37.6474 337.245 41.3221 341.248 45.9581C345.25 50.594 348.157 56.0721 349.752 61.9855V61.9855Z" fill="white" />
        <path d="M311.916 113.493C318.045 113.249 324.043 111.641 329.473 108.788C333.096 106.87 336.407 104.413 339.293 101.502L322.155 84.5003C320.982 85.6785 319.639 86.6744 318.172 87.4549C315.934 88.6279 313.463 89.2898 310.939 89.393C309.293 89.4624 307.646 89.2814 306.055 88.856L299.857 112.187C303.788 113.224 307.853 113.664 311.916 113.493V113.493ZM294.199 77.1152L294.166 76.9913C293.509 74.5759 293.409 72.0429 293.873 69.5831C294.505 66.2792 296.11 63.2396 298.482 60.8543L281.362 43.8412C275.59 49.6384 271.691 57.0341 270.169 65.0715C269.02 71.1012 269.25 77.3128 270.843 83.2407L270.876 83.3647L294.199 77.1152ZM316.97 57.3264C319.283 58.3373 321.342 59.8516 322.995 61.7588C324.627 63.6469 325.808 65.8805 326.452 68.2915L349.753 61.9851C348.157 56.0717 345.25 50.5936 341.248 45.9577C337.245 41.3217 332.25 37.647 326.632 35.2064C324.739 34.3845 322.788 33.704 320.795 33.1704L314.59 56.5033C315.402 56.719 316.198 56.9941 316.97 57.3264V57.3264Z" fill="#FF2E35" />
        <path d="M329.608 67.4952C330.978 72.6107 330.261 78.0613 327.614 82.6482C324.967 87.2352 320.606 90.5829 315.491 91.9554L314.937 92.1039C309.886 93.2862 304.574 92.4573 300.123 89.7926C295.673 87.1278 292.434 82.8363 291.092 77.826C289.749 72.8156 290.408 67.4796 292.93 62.9467C295.452 58.4138 299.638 55.0398 304.603 53.5384L305.157 53.3899C310.27 52.0199 315.718 52.7361 320.302 55.3811C324.887 58.0261 328.234 62.3834 329.608 67.4952V67.4952Z" fill="#49B4E5" />
        <g opacity="0.25">
            <path d="M349.752 61.9855L349.78 62.0899C350.485 64.7181 350.925 67.4103 351.094 70.1262C351.138 70.8133 351.162 71.4501 351.165 72.1134C351.168 72.7767 351.171 73.5448 351.137 74.2529C351.103 74.9611 351.063 75.6709 351.009 76.3843C350.883 77.6624 350.711 78.9248 350.474 80.1769C349.331 86.205 346.851 91.9001 343.216 96.8433C340.152 101.016 336.321 104.567 331.927 107.306C326.531 109.844 320.645 111.17 314.682 111.19C308.719 111.21 302.824 109.923 297.411 107.422C291.999 104.92 287.2 101.263 283.351 96.7079C279.503 92.153 276.699 86.8105 275.136 81.056L275.102 80.9321C273.249 74.0206 273.244 66.7435 275.088 59.8294C276.932 52.9154 280.56 46.6071 285.608 41.5361C287.819 39.3012 290.287 37.3354 292.959 35.6799C297.918 33.3585 303.291 32.0519 308.762 31.8369C312.817 31.6737 316.873 32.1234 320.794 33.1708C322.787 33.7044 324.738 34.3849 326.631 35.2068C332.249 37.6474 337.244 41.3221 341.247 45.9581C345.249 50.594 348.156 56.0721 349.752 61.9855V61.9855Z" fill="white" />
        </g>
        <g opacity="0.22">
            <path opacity="0.22" d="M269.843 78.231C270.078 79.9188 270.419 81.5903 270.862 83.2356L270.882 83.3074L270.228 83.7131L270.01 83.8626L269.529 84.208L269.343 84.3488C269.125 84.526 268.9 84.7051 268.686 84.8954C268.584 84.9856 268.482 85.0757 268.389 85.1706L268.291 85.1969L268.232 85.2126L268.095 85.2493C267.791 85.432 267.436 85.5147 267.082 85.4858V85.4858L266.338 86.4893C266.261 86.5898 266.149 86.6572 266.025 86.6776C265.9 86.698 265.772 86.6698 265.668 86.5988L265.505 86.5377L265.359 86.4369C265.254 86.3602 265.182 86.2477 265.155 86.121C265.136 86.0498 265.133 85.9754 265.147 85.9029C265.16 85.8305 265.189 85.7619 265.232 85.702L265.944 84.7073C265.782 84.4131 265.719 84.0751 265.762 83.7424C265.876 83.0869 266.117 82.4598 266.47 81.896C267.169 80.7898 268.021 79.7874 268.999 78.9184C269.279 78.6756 269.56 78.4465 269.843 78.231Z" fill="black" />
        </g>
        <g opacity="0.5">
            <path opacity="0.5" d="M271.211 78.2771L271.263 78.2631L271.563 78.1827L271.7 78.146L271.935 78.0831C272.203 78.0115 272.459 77.9007 272.72 77.8308L272.759 77.8203C272.877 77.7888 272.988 77.7591 273.105 77.7277L273.653 77.5809L273.947 77.5022L274.083 77.4655L274.24 77.4236L274.566 77.3362L274.84 77.2628L275.324 77.217L275.455 77.182L275.805 77.1581L276.04 77.1509L276.492 77.1417L276.653 77.1406L276.692 77.1301L276.965 77.1337L277.256 77.1468C277.475 77.1579 277.697 77.1754 277.913 77.2013L278.092 77.2163L278.752 77.3051L278.811 77.2894L278.856 77.2771L279.055 77.3147L279.372 77.3766L279.476 77.3978C279.729 77.4557 279.991 77.5185 280.229 77.6013C280.468 77.6841 280.768 77.7576 281.03 77.8482L281.069 77.8378L281.606 78.0433L281.788 78.1205L281.961 78.1929C282.151 78.2749 282.336 78.3651 282.521 78.4554L282.724 78.5617L283.074 78.7474L283.248 78.8477C283.294 78.869 283.338 78.8946 283.38 78.9241L283.512 79.0005L283.655 79.0882C283.822 79.1902 283.983 79.294 284.145 79.4042C284.291 79.505 284.43 79.6075 284.571 79.7165C285.519 80.4709 286.523 81.1506 287.576 81.7493C287.888 81.914 288.235 82.0009 288.588 82.0025C288.681 81.995 288.771 81.9707 288.855 81.9309C288.896 81.9123 288.935 81.8879 288.969 81.8585V81.8585C289.007 81.8331 289.041 81.8028 289.07 81.7684C289.139 81.6922 289.199 81.6082 289.248 81.5181C289.341 81.34 289.406 81.1481 289.438 80.9498C289.457 80.8495 289.47 80.7481 289.476 80.6462C289.489 80.0554 289.389 79.4676 289.18 78.915C288.33 77.1793 287.123 75.6429 285.637 74.4064C284.152 73.1699 282.422 72.2614 280.561 71.7403C278.7 71.2192 276.75 71.0973 274.839 71.3826C272.927 71.668 271.098 72.3541 269.47 73.396C269.503 75.2269 269.659 77.0535 269.935 78.8636C270.148 78.7438 270.362 78.6304 270.585 78.5219C270.807 78.4133 271.003 78.3609 271.211 78.2771Z" fill="black" />
        </g>
        <path d="M265.357 78.1886L266.463 78.9758L264.91 81.1607C264.832 81.2599 264.72 81.3263 264.596 81.3466C264.472 81.3669 264.345 81.3396 264.24 81.2702L263.955 81.067C263.857 80.9887 263.791 80.8769 263.771 80.7532C263.751 80.6295 263.777 80.5027 263.845 80.3973L265.357 78.1886Z" fill="#AC752C" />
        <path d="M265.357 78.1888L265.911 78.5857L264.068 81.1768L263.922 81.076C263.824 80.9977 263.759 80.8859 263.739 80.7622C263.718 80.6385 263.745 80.5117 263.812 80.4063L265.357 78.1888Z" fill="#7D551F" />
        <path d="M265.044 76.5739C265.739 75.4644 266.591 74.4614 267.573 73.5963C269.171 72.1913 271.074 71.1774 273.131 70.6348C275.188 70.0921 277.344 70.0355 279.427 70.4695C281.509 70.9035 283.463 71.8162 285.132 73.1353C286.801 74.4545 288.141 76.144 289.044 78.0701C289.254 78.6228 289.354 79.2106 289.34 79.8013C289.336 80.2087 289.195 80.6029 288.942 80.9218C288.91 80.9541 288.876 80.9842 288.84 81.0119V81.0119C288.806 81.0413 288.768 81.0657 288.727 81.0843C288.512 81.1422 288.287 81.1554 288.067 81.1231C287.846 81.0907 287.635 81.0135 287.446 80.8962C286.391 80.2974 285.385 79.6154 284.439 78.8568V78.8568C284.298 78.7478 284.158 78.6453 284.013 78.5446C283.85 78.4343 283.69 78.3306 283.522 78.2285L283.38 78.1408L283.264 78.0462C283.222 78.0166 283.178 77.9911 283.132 77.9698L282.958 77.8695L282.608 77.6838L282.404 77.5775C282.219 77.4872 282.034 77.397 281.845 77.315L281.652 77.2478L281.47 77.1706L280.933 76.9651L280.894 76.9756C280.631 76.8828 280.365 76.8005 280.094 76.7286C279.842 76.6493 279.58 76.5865 279.34 76.5251L279.237 76.5039C279.066 76.4658 278.888 76.4295 278.721 76.4045L278.675 76.4167L278.616 76.4324C278.12 76.3541 277.621 76.3013 277.12 76.2741L276.83 76.261L276.466 76.1558L276.427 76.1662L276.266 76.1673L275.772 76.174L275.537 76.1599L275.187 76.1838L275.057 76.2188L274.573 76.2646C273.858 76.3547 273.152 76.5019 272.461 76.7047L272.422 76.7152C272.161 76.7851 271.893 76.8567 271.636 76.9675C271.512 77.0007 271.389 77.0339 271.275 77.1062L270.975 77.1866L270.923 77.2006L270.3 77.4863C269.172 78.0305 268.124 78.7277 267.186 79.5582L266.906 79.8708L266.802 79.8988L266.743 79.9145L266.704 79.925C266.388 80.1121 266.022 80.1956 265.656 80.1637C265.283 80.0861 264.943 79.8937 264.684 79.6134V79.6134C264.542 79.45 264.439 79.2564 264.383 79.0474C264.327 78.8383 264.319 78.6192 264.361 78.4068C264.46 77.7555 264.693 77.1317 265.044 76.5739V76.5739Z" fill="#FFD54F" />
        <path d="M264.691 79.6121C265.332 78.5319 266.119 77.5449 267.029 76.6786L267.425 76.328C268.982 74.9537 270.83 73.9509 272.831 73.3953C274.832 72.8398 276.934 72.7459 278.976 73.1209C281.019 73.4958 282.949 74.3298 284.623 75.5598C286.296 76.7898 287.668 78.3838 288.635 80.2215C288.676 80.3715 288.781 80.504 288.847 80.6471C288.914 80.7901 288.937 80.8257 288.976 80.9201C288.944 80.9523 288.911 80.9825 288.875 81.0102V81.0102C288.841 81.0396 288.802 81.064 288.761 81.0826C288.546 81.1405 288.322 81.1537 288.101 81.1213C287.881 81.089 287.67 81.0118 287.481 80.8944C286.426 80.2956 285.42 79.6137 284.473 78.8551V78.8551C284.332 78.7461 284.193 78.6436 284.047 78.5429C283.885 78.4326 283.724 78.3288 283.557 78.2268C283.546 78.2274 283.535 78.2304 283.525 78.2355L283.424 78.1717L283.264 78.0467C283.221 78.0163 283.173 77.9941 283.132 77.9703L282.958 77.87L282.608 77.6843L282.405 77.5779L282.053 77.4135L281.845 77.3155L281.652 77.2483L281.471 77.1711L280.933 76.9656L280.894 76.976L280.686 76.878C280.47 76.803 280.25 76.7363 280.031 76.6761C279.812 76.6159 279.587 76.5574 279.363 76.5055L279.264 76.4761L279.161 76.4549L278.844 76.3931L278.619 76.3624L278.573 76.3747L278.514 76.3904L278.23 76.3477L278.02 76.3201L277.935 76.3428L277.64 76.3101L277.361 76.287L277.027 76.2647L276.736 76.2516L276.466 76.1562L276.427 76.1667L276.267 76.1678L275.772 76.1745L275.538 76.1604L275.188 76.1843L275.057 76.2193L274.92 76.256L274.58 76.2912L274.306 76.3646L273.98 76.4519L273.817 76.4956L273.687 76.5306L273.393 76.6092L273.086 76.6914L272.46 76.8591L272.134 76.9465L271.932 77.0007L271.665 77.0723L271.43 77.1353L271.293 77.172L270.993 77.2523L270.941 77.2663L270.703 77.3719L270.518 77.4634L270.316 77.5176L270.045 77.6532L269.895 77.6934L269.547 77.8843L269.317 78.0159L268.986 78.2164L268.766 78.3593L268.436 78.5877L268.23 78.7336C268.105 78.816 267.991 78.9096 267.874 78.9967L267.742 79.1022L267.676 79.1196L267.185 79.5308L266.906 79.8713L266.802 79.8992L266.743 79.915L266.704 79.9255C266.388 80.1125 266.022 80.196 265.656 80.1642C265.285 80.0849 264.947 79.8919 264.691 79.6121V79.6121Z" fill="#FFB300" />
        <path d="M287.461 80.8994C287.847 80.8968 288.226 80.7936 288.56 80.5998C288.894 80.4061 289.172 80.1285 289.366 79.7945C289.362 80.2019 289.221 80.596 288.968 80.9149C288.936 80.9472 288.902 80.9773 288.866 81.0051V81.0051C288.832 81.0345 288.794 81.0589 288.753 81.0774C288.537 81.1385 288.31 81.1541 288.088 81.1235C287.866 81.0929 287.652 81.0165 287.461 80.8994V80.8994Z" fill="#7D551F" />
        <g opacity="0.5">
            <path opacity="0.5" d="M351.102 70.1521C350.978 70.1083 350.817 70.1864 350.622 70.4484C350.037 71.2134 347.704 73.4392 345.853 73.6767C345.339 73.7449 344.818 73.6383 344.373 73.374C344.048 72.7222 343.842 72.0172 343.767 71.2926C344.038 70.2311 344.182 69.1412 344.197 68.0456C344.228 67.5365 344.113 67.029 343.868 66.582C343.894 66.3162 343.914 66.0243 343.939 65.752C343.981 65.502 343.957 65.2453 343.869 65.0076C343.781 64.7699 343.631 64.5595 343.436 64.3978C343.404 64.369 343.367 64.3474 343.326 64.3342C343.285 64.3211 343.242 64.3167 343.199 64.3215C343.135 64.3348 343.072 64.3517 343.01 64.3722C342.872 64.4043 342.748 64.4823 342.66 64.5936C342.572 64.7048 342.524 64.8427 342.524 64.9847L342.52 66.3C342.066 66.4853 341.664 66.7801 341.352 67.1583C340.125 68.561 339.216 70.2114 338.685 71.9972C338.514 72.4952 338.305 72.979 338.059 73.4442C337.364 74.1293 336.538 74.6669 335.63 75.0247C334.354 75.4785 330.977 76.3903 330.43 72.9649C330.421 72.9147 330.399 72.8677 330.367 72.8286C330.334 72.7895 330.292 72.7596 330.244 72.742C330.256 73.9188 330.164 75.0943 329.969 76.255C330.516 77.2268 331.66 78.1297 334.307 77.8887L334.379 77.8694C333.104 78.5391 331.703 78.9358 330.266 79.0344C329.888 79.0658 329.543 79.0815 329.23 79.0813C329.054 79.5969 328.861 80.103 328.645 80.6013C330.655 81.2622 332.823 81.2664 334.835 80.6134C337.133 80.0228 339.213 78.7836 340.827 77.0436C341.07 76.7758 341.288 76.4937 341.504 76.205C343.819 77.5141 345.272 77.8238 347.74 77.4072C348.868 77.2176 349.968 76.8854 351.012 76.4185C351.072 75.7034 351.119 74.9918 351.14 74.2871C350.169 74.6623 349.161 74.9324 348.133 75.0928C349.435 74.4553 350.497 73.4158 351.163 72.128L351.102 70.1521Z" fill="black" />
        </g>
        <path d="M329.607 67.4953C330.978 72.6109 330.261 78.0614 327.613 82.6484C324.966 87.2353 320.606 90.5831 315.491 91.9555L314.936 92.1041C319.901 90.6027 324.087 87.2287 326.609 82.6958C329.131 78.1629 329.79 72.8268 328.448 67.8165C327.105 62.8062 323.866 58.5147 319.416 55.8499C314.965 53.1852 309.653 52.3563 304.603 53.5386L305.157 53.39C310.27 52.0201 315.717 52.7363 320.302 55.3813C324.887 58.0263 328.234 62.3835 329.607 67.4953V67.4953Z" fill="#5BAFC7" />
        <path d="M338.927 72.1979C338.794 73.0492 338.529 73.8747 338.143 74.645C337.819 75.3754 337.309 76.0075 336.663 76.4776C336.017 76.9477 335.258 77.2392 334.464 77.3226C330.578 77.6648 329.933 75.5726 329.652 74.4177C329.569 74.0434 329.571 73.6553 329.659 73.2821C329.746 72.9089 329.917 72.5602 330.158 72.2619C330.195 72.2262 330.241 72.2013 330.292 72.19C330.342 72.1787 330.395 72.1814 330.444 72.1978C330.493 72.2141 330.536 72.2436 330.57 72.2829C330.603 72.3223 330.625 72.37 330.634 72.421C331.187 75.8447 334.571 74.9311 335.851 74.5181C337.039 73.9869 338.09 73.1936 338.927 72.1979V72.1979Z" fill="#FFD54F" />
        <path d="M338.143 74.6449C337.819 75.3753 337.309 76.0074 336.663 76.4775C336.017 76.9476 335.258 77.239 334.464 77.3225C330.578 77.6647 329.933 75.5725 329.652 74.4176C329.601 74.1928 329.584 73.9619 329.601 73.7322C330.413 74.9895 331.404 76.5485 334.596 76.0149C335.829 75.7046 337.021 75.2445 338.143 74.6449V74.6449Z" fill="#FFB300" />
        <path d="M344.373 67.5018C344.312 70.8017 343.117 73.9801 340.99 76.5032C339.366 78.2526 337.272 79.4959 334.959 80.0835C333.784 80.4885 332.539 80.6549 331.299 80.5731C330.059 80.4913 328.848 80.163 327.736 79.6072C327.569 79.5119 327.422 79.3846 327.305 79.2325C327.187 79.0805 327.101 78.9067 327.051 78.7212C327.027 78.6729 327.017 78.6185 327.024 78.5648C327.031 78.5112 327.054 78.4609 327.09 78.4205C327.126 78.38 327.173 78.3512 327.225 78.3378C327.278 78.3244 327.333 78.3271 327.384 78.3454C328.383 78.5288 329.404 78.5684 330.414 78.4631C332.629 78.2752 334.619 77.5391 335.727 76.4034C337.116 74.9796 338.189 73.2795 338.878 71.4138C339.41 69.6317 340.318 67.9844 341.54 66.5831C341.758 66.2783 342.046 66.0301 342.38 65.8592C342.714 65.6883 343.083 65.5997 343.458 65.6008V65.6008C343.723 65.6488 344.334 65.9465 344.373 67.5018Z" fill="#FFD54F" />
        <path d="M344.373 67.5023C344.312 70.8022 343.117 73.9806 340.99 76.5037C339.366 78.2531 337.272 79.4964 334.959 80.084C333.784 80.489 332.54 80.6554 331.299 80.5736C330.059 80.4918 328.848 80.1635 327.736 79.6077C327.569 79.5124 327.423 79.3851 327.305 79.233C327.188 79.081 327.101 78.9072 327.051 78.7217C327.051 78.7217 332.587 81.3278 337.398 77.578C341.193 74.6249 342.911 68.2295 343.47 65.647C343.723 65.6493 344.334 65.947 344.373 67.5023Z" fill="#FFB300" />
        <g opacity="0.5">
            <path opacity="0.5" d="M320.751 34.9924C320.112 34.8983 319.46 34.9551 318.847 35.1583C318.234 35.3614 317.676 35.7053 317.22 36.1623C316.852 35.6032 316.451 35.0663 316.02 34.5544C315.709 34.1764 315.387 33.8084 315.027 33.4573C311.562 29.7542 306.85 27.4637 301.798 27.0268L301.058 24.6315L298.611 27.1607L298.266 27.2533C298.044 27.3127 297.825 27.3295 297.601 27.3824L296.677 25.6306L296.41 25.129C296.267 25.1675 296.123 25.2059 295.986 25.2426C293.331 26.1849 292.641 29.012 292.546 29.4919C288.38 32.3965 285.439 36.7439 284.295 41.6921C284.172 42.1724 284.077 42.6523 283.983 43.1387C283.867 43.7977 283.789 44.4629 283.748 45.131L283.62 45.0955C283.013 44.9545 282.381 44.9521 281.773 45.0886C281.164 45.225 280.594 45.4967 280.105 45.8835C277.235 47.9808 277.789 53.4944 281.259 56.0599C282.371 56.9582 283.735 57.4892 285.162 57.5798L285.171 57.7729C285.217 58.7092 285.363 59.638 285.606 60.5434C286.283 63.0272 287.655 65.2665 289.559 66.999L289.044 69.5136C288.858 70.402 288.997 71.3278 289.435 72.1224C289.874 72.9171 290.584 73.5277 291.435 73.8433L299.472 76.8627L304.159 94.3551C304.427 95.3547 304.9 96.2873 305.55 97.0932C304.34 97.7949 302.505 99.1672 302.154 101.17C302.052 101.784 301.916 102.392 301.747 102.991L301.695 103.005C301.535 102.929 301.367 102.849 301.22 102.769C301.043 102.647 300.843 102.564 300.631 102.526C300.42 102.488 300.204 102.495 299.995 102.546C299.787 102.598 299.592 102.694 299.424 102.827C299.255 102.959 299.117 103.127 299.018 103.317C298.919 103.507 298.862 103.717 298.85 103.931C298.839 104.145 298.872 104.359 298.95 104.559C299.027 104.76 299.146 104.941 299.299 105.091C299.452 105.242 299.635 105.358 299.836 105.433C301.893 106.51 302.513 106.344 302.852 106.253C303.798 106 304.543 105.101 305.15 101.653C305.304 100.766 306.816 99.7318 307.788 99.3174C307.919 99.2619 308.04 99.187 308.148 99.0952C309.739 99.8729 311.556 100.053 313.269 99.6036L318.904 98.0937C320.626 97.6333 322.124 96.5693 323.127 95.0957C323.184 95.1078 323.242 95.1156 323.301 95.119C324.713 95.1739 327.044 95.626 327.684 96.3982C329.009 97.9794 329.877 99.0261 331.292 98.6469C331.625 98.5578 332.245 98.3917 333.494 96.4282C333.62 96.2625 333.71 96.0725 333.759 95.8702C333.808 95.6679 333.814 95.4577 333.778 95.2528C333.741 95.0479 333.663 94.8528 333.547 94.6798C333.431 94.5068 333.281 94.3596 333.106 94.2476C332.93 94.1357 332.733 94.0613 332.528 94.0291C332.322 93.997 332.112 94.0079 331.911 94.061C331.71 94.1141 331.522 94.2084 331.359 94.3379C331.196 94.4674 331.061 94.6292 330.964 94.8132C330.881 94.9473 330.787 95.0913 330.689 95.2224C330.519 95.0303 330.307 94.7866 330.036 94.4537C328.677 92.8256 325.864 92.3209 324.347 92.1614C324.527 91.1 324.474 90.0123 324.192 88.9734L318.311 67.0263L319.575 68.2466C320.778 66.7916 325.915 66.24 325 63.9967L323.176 58.0262C323.961 55.5762 324.029 52.9532 323.373 50.4656C323.131 49.56 322.793 48.6827 322.365 47.8489L322.278 47.6833C323.468 46.8859 324.382 45.74 324.895 44.4028C326.56 40.4193 324.26 35.3805 320.751 34.9924Z" fill="black" />
        </g>
        <path d="M326.109 64.5878L320.656 71.2147L318.484 73.8309L317.32 72.8776L316.154 71.9177L319.676 67.6327L323.764 62.6716C323.883 62.5256 323.946 62.3417 323.942 62.1531C323.938 61.9645 323.866 61.7837 323.74 61.6434L322.977 60.7783L321.338 58.9387L319.573 56.944L317.731 54.844L317.32 54.3809L316.996 54.0063L315.837 52.709L316.686 51.9642L316.969 51.7138L317.534 51.2129L318.099 50.712L318.357 50.9992L318.469 51.13L319.155 51.8899L319.866 52.692L320.077 52.9292L321.69 54.748L324.306 57.7029L326.007 59.6168C326.619 60.2945 326.967 61.1702 326.985 62.0833C327.004 62.9965 326.693 63.8857 326.109 64.5878V64.5878Z" fill="#A16552" />
        <path d="M303.817 77.7673L292.602 73.5582C291.751 73.2438 291.04 72.6334 290.601 71.8384C290.162 71.0434 290.024 70.117 290.212 69.2285L292.602 57.5364L295.56 58.1418L293.162 69.8291C293.124 70.0142 293.153 70.2069 293.245 70.3721C293.337 70.5374 293.485 70.6643 293.662 70.7298L304.871 74.9406L303.817 77.7673Z" fill="#A16552" />
        <path d="M315.139 50.6241L325.336 88.6809C325.753 90.2258 325.66 91.864 325.071 93.3517C324.866 93.8617 324.605 94.3469 324.291 94.798C323.29 96.2685 321.791 97.3278 320.071 97.7812L314.436 99.2911C312.715 99.757 310.884 99.5847 309.28 98.8062C308.76 98.5602 308.271 98.2522 307.825 97.8889C306.605 96.9039 305.728 95.5582 305.32 94.0443L295.123 55.9875L315.139 50.6241Z" fill="#A16552" />
        <path d="M316.394 74.4818C313.31 76.5254 309.637 77.4924 305.946 77.2323C305.594 77.2116 305.242 77.2748 304.919 77.4166C304.596 77.5585 304.311 77.775 304.088 78.0484C303.865 78.3217 303.71 78.6441 303.636 78.989C303.562 79.3339 303.571 79.6914 303.662 80.0322L307.049 92.6722C307.441 94.1338 308.397 95.38 309.708 96.1367C311.018 96.8933 312.575 97.0983 314.037 96.7067L319.066 95.3593C320.527 94.9676 321.774 94.0113 322.53 92.7008C323.287 91.3903 323.492 89.833 323.1 88.3713L319.727 75.7835C319.637 75.4471 319.469 75.1366 319.237 74.877C319.004 74.6175 318.714 74.4163 318.39 74.2896C318.065 74.1629 317.715 74.1143 317.369 74.1477C317.022 74.1811 316.688 74.2955 316.394 74.4818V74.4818Z" fill="#F5DCB4" />
        <path d="M332.461 98.3408C331.046 98.72 330.185 97.6715 328.853 96.0921C328.206 95.3217 325.855 94.8683 324.47 94.8129C324.086 94.7749 323.731 94.5916 323.477 94.3005C323.224 94.0095 323.092 93.6326 323.107 93.2471C323.123 92.8615 323.285 92.4965 323.561 92.2267C323.837 91.9569 324.205 91.8026 324.591 91.7955C325.389 91.8263 329.446 92.0955 331.174 94.1629C331.441 94.4827 331.655 94.733 331.826 94.925C331.923 94.794 332.018 94.6499 332.1 94.5159C332.198 94.3319 332.332 94.17 332.495 94.0405C332.658 93.9111 332.846 93.8168 333.047 93.7637C333.248 93.7105 333.458 93.6997 333.664 93.7318C333.87 93.7639 334.066 93.8383 334.242 93.9503C334.417 94.0623 334.568 94.2094 334.683 94.3824C334.799 94.5554 334.878 94.7505 334.914 94.9554C334.951 95.1603 334.944 95.3706 334.895 95.5729C334.847 95.7752 334.756 95.9652 334.63 96.1308C333.413 98.0857 332.794 98.2517 332.461 98.3408Z" fill="#A16552" />
        <path d="M303.979 105.973C303.647 106.062 303.034 106.226 300.963 105.152C300.643 104.951 300.411 104.637 300.311 104.272C300.212 103.907 300.254 103.519 300.428 103.183C300.602 102.848 300.896 102.59 301.252 102.461C301.607 102.333 301.998 102.343 302.347 102.489L302.86 102.736C303.048 102.124 303.201 101.501 303.319 100.872C303.813 98.0205 307.347 96.4443 307.749 96.2738C308.113 96.1428 308.513 96.1561 308.867 96.311C309.221 96.4659 309.503 96.7506 309.654 97.1067C309.805 97.4627 309.814 97.863 309.678 98.2253C309.543 98.5876 309.275 98.8845 308.927 99.0548C307.955 99.4691 306.443 100.503 306.289 101.391C305.682 104.839 304.925 105.72 303.979 105.973Z" fill="#A16552" />
        <path d="M284.882 46.0229C284.874 47.4921 285.06 48.956 285.433 50.3769L285.512 50.6704C285.986 52.3813 286.252 54.1433 286.303 55.918C285.252 55.8012 284.255 55.3867 283.431 54.7232C280.696 52.6809 280.258 48.3315 282.549 46.6829C283.217 46.1562 284.065 45.9116 284.911 46.0011L284.882 46.0229Z" fill="#A16552" />
        <path d="M284.882 46.0229C284.874 47.4921 285.06 48.956 285.433 50.3769L285.512 50.6704C285.986 52.3813 286.252 54.1433 286.303 55.918C285.252 55.8012 284.255 55.3867 283.431 54.7232C280.696 52.6809 280.258 48.3315 282.549 46.6829C283.217 46.1562 284.065 45.9116 284.911 46.0011L284.882 46.0229Z" fill="#F5DCB4" />
        <path d="M324.632 43.6838C324.25 44.6704 323.595 45.5275 322.743 46.1544C321.903 44.5906 321.252 42.9322 320.804 41.2144L320.725 40.9209C320.337 39.4992 319.765 38.1344 319.022 36.8614C319.71 36.3602 320.566 36.1482 321.409 36.2709C324.185 36.5616 325.986 40.5458 324.632 43.6838Z" fill="#A16552" />
        <path d="M324.632 43.6838C324.25 44.6704 323.595 45.5275 322.743 46.1544C321.903 44.5906 321.252 42.9322 320.804 41.2144L320.725 40.9209C320.337 39.4992 319.765 38.1344 319.022 36.8614C319.71 36.3602 320.566 36.1482 321.409 36.2709C324.185 36.5616 325.986 40.5458 324.632 43.6838Z" fill="#F5DCB4" />
        <path d="M317.284 47.6727C317.067 48.3453 317.003 49.0581 317.098 49.7587C317.192 50.4592 317.443 51.1296 317.831 51.7205C318.443 52.5653 318.927 53.4953 319.269 54.4808C320.9 60.5659 316.457 67.0481 309.348 68.953C302.239 70.8579 295.113 67.4825 293.483 61.3973C293.283 60.3732 293.238 59.3251 293.348 58.2876C293.389 57.5819 293.271 56.876 293.002 56.2221C292.734 55.5681 292.322 54.9827 291.798 54.5089C291.542 54.2792 291.304 54.0296 291.087 53.7625C290.415 52.9617 289.926 52.0243 289.652 51.0153C289.412 50.0225 289.369 48.9919 289.527 47.9826C289.685 46.9734 290.04 46.0051 290.573 45.1333C291.105 44.2615 291.805 43.5032 292.63 42.9019C293.456 42.3005 294.393 41.8679 295.386 41.6287C296.756 41.2572 298.199 41.2487 299.573 41.6042C300.367 41.8119 301.201 41.8095 301.994 41.5972C302.786 41.3848 303.51 40.9699 304.093 40.3931C305.109 39.4026 306.363 38.691 307.734 38.327C311.98 37.1893 316.297 39.5277 317.384 43.5845C317.652 44.595 317.697 45.6517 317.515 46.6812C317.461 47.0166 317.384 47.3479 317.284 47.6727V47.6727Z" fill="#A16552" />
        <path d="M317.284 47.6727C317.067 48.3453 317.003 49.0581 317.098 49.7587C317.192 50.4592 317.443 51.1296 317.831 51.7205C318.443 52.5653 318.927 53.4953 319.269 54.4808C320.9 60.5659 316.457 67.0481 309.348 68.953C302.239 70.8579 295.113 67.4825 293.483 61.3973C293.283 60.3732 293.238 59.3251 293.348 58.2876C293.389 57.5819 293.271 56.876 293.002 56.2221C292.734 55.5681 292.322 54.9827 291.798 54.5089C291.542 54.2792 291.304 54.0296 291.087 53.7625C290.415 52.9617 289.926 52.0243 289.652 51.0153C289.412 50.0225 289.369 48.9919 289.527 47.9826C289.685 46.9734 290.04 46.0051 290.573 45.1333C291.105 44.2615 291.805 43.5032 292.63 42.9019C293.456 42.3005 294.393 41.8679 295.386 41.6287C296.756 41.2572 298.199 41.2487 299.573 41.6042C300.367 41.8119 301.201 41.8095 301.994 41.5972C302.786 41.3848 303.51 40.9699 304.093 40.3931C305.109 39.4026 306.363 38.691 307.734 38.327C311.98 37.1893 316.297 39.5277 317.384 43.5845C317.652 44.595 317.697 45.6517 317.515 46.6812C317.461 47.0166 317.384 47.3479 317.284 47.6727V47.6727Z" fill="#F5DCB4" />
        <path d="M300.181 61.0635C300.076 61.0918 299.978 61.1422 299.894 61.2112C299.809 61.2803 299.741 61.3664 299.692 61.464C299.643 61.5616 299.616 61.6684 299.612 61.7773C299.608 61.8862 299.627 61.9948 299.668 62.0958C300.998 65.2345 304.766 66.9302 308.516 65.9254C312.266 64.9205 314.675 61.5698 314.29 58.1776C314.277 58.0698 314.24 57.9662 314.182 57.8737C314.125 57.7813 314.049 57.7021 313.958 57.6416C313.868 57.5811 313.766 57.5406 313.658 57.5228C313.551 57.505 313.441 57.5104 313.336 57.5385L300.181 61.0635Z" fill="#4E3F3F" />
        <path d="M303.952 65.8484C305.436 66.3018 307.018 66.3293 308.517 65.9276C310.016 65.5259 311.372 64.7113 312.431 63.5765C311.401 61.874 309.82 62.7802 307.817 63.3167C305.815 63.8532 303.992 63.8593 303.952 65.8484Z" fill="#E6646E" />
        <path d="M321.911 34.6752C321.272 34.5815 320.621 34.6389 320.009 34.8429C319.397 35.047 318.842 35.3919 318.388 35.8499C318.015 35.294 317.615 34.7573 317.188 34.242C316.877 33.8639 316.548 33.4977 316.195 33.1449C312.727 29.442 308.013 27.1522 302.959 26.7161L302.949 26.677L302.226 24.3191L299.779 26.8482L299.427 26.9426C299.211 27.0003 298.986 27.0188 298.762 27.0717L297.845 25.3182L297.578 24.8166C297.428 24.8568 297.291 24.8935 297.154 24.9302C294.503 25.892 293.814 28.7191 293.712 29.2007C289.551 32.1024 286.61 36.4411 285.456 41.3814C285.339 41.86 285.238 42.3416 285.144 42.828C285.029 43.4872 284.951 44.1524 284.909 44.8203L284.781 44.7848C284.174 44.6446 283.543 44.642 282.934 44.7773C282.326 44.9125 281.755 45.1821 281.264 45.5663C278.396 47.6701 278.949 53.1772 282.412 55.7445C283.525 56.6404 284.888 57.1711 286.314 57.2643L286.324 57.4574C286.367 58.394 286.513 59.3231 286.759 60.228C288.23 65.7196 293.057 69.5923 299.111 70.899C299.999 71.0887 300.899 71.2213 301.804 71.296C303.439 71.4323 305.085 71.3876 306.711 71.1626L306.919 71.1067C307.802 70.9806 308.677 70.8068 309.541 70.586L309.743 70.5318C313.221 69.6209 316.435 67.9 319.121 65.5095C320.66 64.1407 321.964 62.5278 322.98 60.7357C323.522 59.7655 323.965 58.7428 324.301 57.6834V57.6834C324.394 57.3788 324.485 57.0677 324.555 56.7553C324.626 56.4429 324.696 56.1305 324.744 55.8169C324.793 55.5032 324.842 55.1896 324.876 54.8729L324.917 54.4005L324.937 53.9268L324.943 53.4779C324.938 53.4629 324.934 53.4477 324.93 53.4323C324.932 53.1243 324.92 52.8199 324.895 52.5189C324.855 52.3689 324.874 52.2032 324.851 52.0414L324.789 51.5756C324.753 51.4387 324.716 51.3017 324.718 51.1543C324.718 51.1543 324.708 51.1151 324.701 51.089C324.666 50.9586 324.629 50.8216 324.593 50.6847C324.59 50.6644 324.585 50.6446 324.577 50.626C324.537 50.476 324.496 50.3259 324.454 50.1694C324.213 49.2633 323.872 48.3863 323.439 47.5544C323.413 47.4977 323.385 47.4424 323.353 47.3888C324.541 46.5927 325.456 45.4494 325.971 44.1148C327.728 40.1068 325.447 35.0628 321.911 34.6752ZM284.875 45.9969C284.868 47.4661 285.053 48.93 285.427 50.351L285.505 50.6445C285.98 52.3554 286.245 54.1174 286.296 55.8921C285.245 55.7752 284.248 55.3607 283.425 54.6972C280.696 52.681 280.264 48.3298 282.549 46.683C283.218 46.1577 284.063 45.9111 284.909 45.9947L284.875 45.9969ZM318.241 62.201C317.289 63.8711 316.008 65.3313 314.477 66.4936C312.946 67.656 311.195 68.4966 309.33 68.9647C307.334 69.5039 305.25 69.632 303.203 69.3414C301.44 69.0855 299.747 68.4791 298.223 67.5579C295.906 66.1944 294.207 63.9865 293.482 61.3973C293.286 60.3729 293.241 59.3251 293.348 58.2876C293.389 57.5819 293.271 56.876 293.002 56.2221C292.734 55.5681 292.322 54.9827 291.798 54.5089C290.777 53.5634 290.041 52.3516 289.672 51.0101C289.187 49.0084 289.516 46.896 290.587 45.137C291.659 43.378 293.385 42.1161 295.386 41.6287C296.755 41.2584 298.197 41.2477 299.572 41.5976C300.626 41.877 301.744 41.78 302.735 41.3233C303.241 41.0971 303.701 40.7795 304.091 40.3865C305.107 39.3961 306.361 38.6845 307.732 38.3205C309.708 37.7423 311.832 37.9716 313.639 38.9579C315.446 39.9442 316.787 41.607 317.37 43.5814C317.637 44.5919 317.682 45.6487 317.5 46.6781C317.443 47.0173 317.362 47.3519 317.258 47.6797C316.878 48.8474 316.968 50.117 317.508 51.2199C317.596 51.392 317.699 51.5672 317.806 51.7341C318.418 52.5788 318.903 53.5088 319.245 54.4943C319.461 55.2921 319.576 56.114 319.586 56.9405C319.591 58.7797 319.129 60.59 318.241 62.201V62.201ZM324.645 43.708C324.262 44.6957 323.604 45.5534 322.749 46.1804C321.909 44.6165 321.259 42.9581 320.811 41.2403L320.732 40.9468C320.347 39.5213 319.771 38.1542 319.021 36.8825C319.714 36.3868 320.572 36.177 321.415 36.2968C324.185 36.5615 325.986 40.5456 324.639 43.6819L324.645 43.708Z" fill="#A16552" />
        <path d="M302.806 54.1528C302.457 54.094 302.126 54.3296 302.067 54.679C302.008 55.0283 302.244 55.3592 302.593 55.4179L304.198 55.6879C304.547 55.7467 304.878 55.5111 304.937 55.1618C304.996 54.8124 304.76 54.4816 304.411 54.4228L302.806 54.1528Z" fill="#4E3F3F" />
        <path d="M306.321 53.9063C306.048 54.1319 306.01 54.5362 306.235 54.8093C306.461 55.0825 306.865 55.1211 307.138 54.8955L308.393 53.8593C308.666 53.6337 308.705 53.2294 308.479 52.9563C308.253 52.6831 307.849 52.6445 307.576 52.8701L306.321 53.9063Z" fill="#4E3F3F" />
        <path d="M297.686 51.9873C297.406 52.0706 297.113 52.098 296.822 52.0679C296.532 52.0378 296.25 51.9507 295.994 51.8118C295.737 51.6728 295.51 51.4846 295.326 51.258C295.143 51.0313 295.005 50.7707 294.922 50.4909L294.735 49.793C294.598 49.2191 294.694 48.6143 295.002 48.111C295.31 47.6078 295.805 47.2473 296.378 47.1087C296.945 46.942 297.554 47.0066 298.072 47.2884C298.59 47.5701 298.976 48.046 299.144 48.6116L299.331 49.3095C299.399 49.5933 299.41 49.8878 299.364 50.176C299.318 50.4643 299.216 50.7406 299.063 50.9893C298.91 51.238 298.71 51.4541 298.474 51.6254C298.237 51.7966 297.97 51.9196 297.686 51.9873V51.9873Z" fill="#4E3F3F" />
        <path d="M296.379 47.1086L297.033 49.5478C297.111 49.8402 297.302 50.0894 297.564 50.2407C297.826 50.3921 298.138 50.4331 298.43 50.3547C298.723 50.2764 298.972 50.0852 299.123 49.8231C299.274 49.561 299.316 49.2495 299.237 48.9572L299.145 48.6115C298.977 48.0459 298.591 47.57 298.073 47.2882C297.554 47.0065 296.945 46.9419 296.379 47.1086Z" fill="#5D5360" />
        <path d="M296.94 49.2024C297.347 49.0933 297.593 48.6925 297.49 48.3071C297.387 47.9216 296.973 47.6976 296.566 47.8067C296.159 47.9157 295.913 48.3166 296.016 48.702C296.119 49.0874 296.533 49.3115 296.94 49.2024Z" fill="white" />
        <path d="M310.92 48.4416C310.355 48.608 309.747 48.5441 309.229 48.2637C308.712 47.9833 308.326 47.5092 308.156 46.9452L307.969 46.2473C307.832 45.6735 307.928 45.0686 308.236 44.5654C308.544 44.0622 309.039 43.7017 309.613 43.563C310.18 43.3962 310.789 43.4604 311.309 43.7417C311.828 44.023 312.215 44.4985 312.385 45.0642L312.572 45.7621C312.707 46.3364 312.61 46.9411 312.3 47.4434C311.99 47.9458 311.494 48.3047 310.92 48.4416Z" fill="#4E3F3F" />
        <path d="M309.612 43.5627L310.266 46.002C310.362 46.2747 310.557 46.5012 310.813 46.6361C311.069 46.771 311.366 46.8044 311.645 46.7295C311.925 46.6547 312.166 46.4771 312.32 46.2324C312.474 45.9877 312.53 45.6938 312.477 45.4095L312.384 45.0638C312.214 44.4981 311.827 44.0226 311.308 43.7413C310.788 43.46 310.179 43.3958 309.612 43.5627V43.5627Z" fill="#5D5360" />
        <path d="M310.173 45.6565C310.581 45.5474 310.827 45.1466 310.724 44.7612C310.62 44.3757 310.207 44.1517 309.8 44.2608C309.392 44.3698 309.146 44.7707 309.249 45.1561C309.353 45.5415 309.766 45.7656 310.173 45.6565Z" fill="white" />
        <path d="M300.822 43.9957L301.086 44.9806C301.622 46.9815 301.412 49.109 300.494 50.9663C299.577 52.8236 298.016 54.284 296.102 55.0752C295.751 55.2253 295.389 55.3501 295.02 55.4488C294.092 55.6988 293.128 55.7893 292.17 55.7162C291.861 55.692 291.557 55.6545 291.259 55.6038C290.871 55.5341 290.488 55.4332 290.116 55.302C289.802 55.2038 289.496 55.0825 289.201 54.939C288.07 54.4128 287.068 53.6449 286.266 52.6894C285.464 51.7339 284.881 50.6141 284.559 49.409L284.295 48.4241C284.276 48.3532 284.286 48.2777 284.323 48.2141C284.36 48.1505 284.42 48.1041 284.491 48.0851L300.483 43.8C300.554 43.781 300.63 43.7909 300.693 43.8276C300.757 43.8643 300.803 43.9248 300.822 43.9957V43.9957Z" fill="#4E3F3F" />
        <path d="M320.708 38.6674L320.972 39.6522C321.498 41.6152 321.306 43.7014 320.432 45.5359C319.558 47.3704 318.058 48.8331 316.202 49.6613C315.79 49.8473 315.363 49.9991 314.926 50.1152C314.58 50.2107 314.226 50.2796 313.87 50.3213C313.526 50.3755 313.179 50.4054 312.831 50.4109C312.432 50.4169 312.033 50.3929 311.637 50.3392C311.338 50.3009 311.04 50.2452 310.747 50.1724C309.512 49.8748 308.357 49.3081 307.366 48.5128C305.955 47.3783 304.943 45.8223 304.478 44.0719L304.214 43.0871C304.204 43.0514 304.202 43.0142 304.207 42.9776C304.212 42.941 304.224 42.9058 304.243 42.874C304.262 42.8423 304.287 42.8146 304.317 42.7927C304.346 42.7707 304.38 42.7549 304.416 42.7463L320.363 38.4734C320.398 38.4629 320.435 38.4597 320.472 38.4639C320.509 38.468 320.544 38.4795 320.576 38.4975C320.609 38.5156 320.637 38.54 320.66 38.5691C320.682 38.5983 320.699 38.6317 320.708 38.6674Z" fill="#4E3F3F" />
        <g opacity="0.46">
            <path opacity="0.46" d="M300.465 44.8251L300.728 45.8099C301.263 47.8115 301.052 49.9392 300.136 51.7972C299.219 53.6552 297.659 55.1171 295.746 55.9111C295.393 56.056 295.031 56.1787 294.663 56.2781C293.734 56.5282 292.771 56.6186 291.812 56.5456C291.507 56.5262 291.202 56.4886 290.901 56.4331C289.314 56.1374 287.843 55.3988 286.657 54.3027C285.472 53.2066 284.62 51.7976 284.201 50.2383L283.937 49.2535C283.918 49.1826 283.928 49.107 283.965 49.0434C284.002 48.9798 284.062 48.9334 284.133 48.9144L300.125 44.6293C300.196 44.6103 300.272 44.6202 300.336 44.657C300.399 44.6937 300.446 44.7541 300.465 44.8251Z" fill="#4E3F3F" />
            <path opacity="0.46" d="M320.351 39.4964L320.614 40.4813C321.14 42.4402 320.951 44.5223 320.082 46.3548C319.213 48.1874 317.72 49.6509 315.871 50.4834C315.458 50.6688 315.031 50.8206 314.594 50.9373C314.248 51.0316 313.896 51.1027 313.54 51.1499C313.197 51.1987 312.852 51.2258 312.506 51.2312C312.102 51.252 311.697 51.2413 311.295 51.1992C309.612 50.986 308.031 50.2763 306.754 49.1606C305.476 48.045 304.56 46.574 304.122 44.9353L303.85 43.9179C303.84 43.8822 303.838 43.845 303.843 43.8084C303.848 43.7718 303.86 43.7366 303.879 43.7048C303.898 43.6731 303.923 43.6454 303.952 43.6235C303.982 43.6015 304.016 43.5858 304.052 43.5771L320.005 39.3024C320.04 39.292 320.078 39.2888 320.114 39.2929C320.151 39.2971 320.186 39.3085 320.219 39.3266C320.251 39.3447 320.279 39.369 320.302 39.3982C320.324 39.4274 320.341 39.4608 320.351 39.4964V39.4964Z" fill="#4E3F3F" />
        </g>
        <path d="M305.563 43.7391L299.973 45.2368L300.442 46.9848L306.031 45.4871L305.563 43.7391Z" fill="#4E3F3F" />
        <path d="M291.196 46.2883L289.233 54.9301C288.557 54.6162 287.925 54.2143 287.354 53.7349L288.9 46.9035L291.196 46.2883Z" fill="white" />
        <path d="M298.579 44.3102L296.135 55.0664C295.783 55.2165 295.422 55.3413 295.053 55.44C294.125 55.69 293.161 55.7805 292.203 55.7074L294.548 45.3902L298.579 44.3102Z" fill="white" />
        <path d="M293.55 45.6578L291.318 55.5882C290.929 55.5185 290.547 55.4176 290.174 55.2864L292.285 45.9968L293.55 45.6578Z" fill="white" />
        <path d="M319.13 38.8035L316.202 49.6612C315.79 49.8471 315.363 49.9989 314.926 50.1151C314.579 50.2106 314.226 50.2795 313.869 50.3212L316.782 39.4326L319.13 38.8035Z" fill="white" />
        <path d="M313.365 40.3483L310.747 50.1722C309.512 49.8746 308.358 49.3079 307.367 48.5126L309.263 41.4476L313.365 40.3483Z" fill="white" />
        <path d="M315.7 39.7229L312.838 50.4091C312.439 50.4151 312.04 50.3912 311.644 50.3375L314.389 40.0741L315.7 39.7229Z" fill="white" />
        <path opacity="0.2" d="M321.91 34.6751C321.272 34.5813 320.621 34.6388 320.009 34.8428C319.397 35.0469 318.842 35.3918 318.387 35.8497C318.015 35.2939 317.614 34.7572 317.188 34.2419C316.877 33.8638 316.548 33.4976 316.195 33.1448C312.727 29.4419 308.013 27.1521 302.959 26.716L302.948 26.6769C301.39 28.0045 300.392 29.8728 300.155 31.9061C299.867 35.213 302.017 37.3142 302.761 41.3162C302.827 41.564 302.858 41.8354 302.889 42.1068C303.479 46.6322 302.961 49.3156 301.156 51.9452C300.477 52.8729 299.864 53.8477 299.323 54.862C298.357 56.7635 297.858 58.9945 298.657 62.2126C299.412 64.9958 300.998 67.4825 303.203 69.3412C304.212 70.2307 305.42 70.8657 306.726 71.1934C307.401 71.3445 308.102 71.3338 308.772 71.1622C309.161 90.093 317.254 98.5361 317.254 98.5361L320.071 97.7811C321.792 97.3237 323.29 96.2596 324.288 94.7849L324.468 94.8065C325.881 94.8613 328.211 95.3135 328.851 96.0856C330.17 97.6686 331.044 98.7136 332.46 98.3343C332.792 98.2452 333.412 98.0792 334.661 96.1156C334.787 95.95 334.878 95.76 334.927 95.5577C334.975 95.3554 334.982 95.1451 334.945 94.9402C334.909 94.7353 334.83 94.5402 334.714 94.3672C334.599 94.1942 334.448 94.0471 334.273 93.9351C334.098 93.8231 333.901 93.7487 333.695 93.7166C333.49 93.6844 333.28 93.6953 333.078 93.7484C332.877 93.8016 332.689 93.8959 332.526 94.0253C332.363 94.1548 332.229 94.3166 332.132 94.5006C332.049 94.6347 331.954 94.7788 331.857 94.9098C331.686 94.7178 331.474 94.474 331.197 94.1429C329.844 92.513 327.032 92.0084 325.514 91.8488C325.694 90.7875 325.641 89.6997 325.359 88.6608L320.682 71.2076L326.135 64.5807C326.716 63.8812 327.026 62.9965 327.01 62.0874C326.993 61.1784 326.651 60.3055 326.045 59.6275L324.344 57.7136C324.442 57.4008 324.527 57.0914 324.605 56.7838C324.683 56.4762 324.745 56.1591 324.794 55.8454C324.843 55.5318 324.891 55.2181 324.925 54.9014L324.967 54.429L324.986 53.9553L324.992 53.5065C324.987 53.4915 324.983 53.4762 324.98 53.4608C324.977 53.154 324.965 52.8496 324.945 52.5474C324.905 52.3974 324.923 52.2317 324.901 52.0699L324.839 51.6042C324.802 51.4672 324.765 51.3302 324.768 51.1828C324.768 51.1828 324.757 51.1437 324.75 51.1176C324.715 50.9871 324.679 50.8502 324.642 50.7132C324.64 50.6929 324.635 50.6731 324.626 50.6545C324.586 50.5045 324.546 50.3545 324.504 50.1979C324.262 49.2918 323.922 48.4149 323.489 47.5829C323.463 47.5262 323.434 47.471 323.402 47.4173C324.591 46.6212 325.505 45.478 326.02 44.1434C327.728 40.1067 325.447 35.0627 321.91 34.6751ZM323.759 61.638C323.886 61.7783 323.957 61.9591 323.962 62.1477C323.966 62.3363 323.903 62.5202 323.783 62.6662L319.695 67.6274L319.138 65.5468C320.677 64.1779 321.981 62.5651 322.996 60.7729L323.759 61.638Z" fill="#FFF9F8" />
    </g>
    <defs>
        <linearGradient id="paint0_linear_12161_80430" x1="8.04762" y1="207.063" x2="333.667" y2="207.063" gradientUnits="userSpaceOnUse">
            <stop stop-opacity="0.34" />
            <stop offset="1" stop-color="#C4C4C4" stop-opacity="0" />
            <stop offset="1" stop-opacity="0" />
        </linearGradient>
        <clipPath id="clip0_12161_80430">
            <rect width="338" height="442" fill="white" />
        </clipPath>
    </defs>
</svg>