<svg width="240" height="120" viewBox="0 0 240 120" fill="none" xmlns="http://www.w3.org/2000/svg">
<path d="M93.8628 26.7157L93.5633 28.7368L93.5491 28.7937L93.1783 31.2561L93.1498 31.4411C93.107 31.6973 93.0072 31.9393 92.8504 32.1243C92.5509 32.4944 92.0661 32.6937 91.567 32.6083L86.5906 31.8539L85.5496 31.6973C85.2787 31.6546 85.0363 31.5408 84.8367 31.37C84.4945 31.0711 84.2948 30.6014 84.3661 30.1032L84.4659 29.4485L84.7369 27.6124L85.0791 25.3778C85.1932 24.6092 85.9061 24.0968 86.6761 24.2106L92.6793 25.1216C93.4493 25.2354 93.9769 25.9471 93.8628 26.7157Z" fill="#A06552"/>
<path d="M70.5489 61.445C70.5489 61.445 69.9785 61.6585 69.0517 61.9574C66.043 62.911 59.2841 64.7187 55.9474 62.6691C50.2152 59.1677 47.8054 54.9974 48.9746 47.6815C49.488 44.4932 54.0509 38.131 54.2506 33.5052C54.5785 26.2604 53.6517 24.4244 50.1724 22.7164C48.5754 21.9335 46.4222 21.4781 45.4954 21.3642C44.6398 21.2503 43.0143 21.3784 43 19.8982C43 19.8128 43 19.7132 43.0143 19.6135C43.2139 17.8344 45.2387 17.8486 45.9802 17.8913C46.7217 17.934 48.1333 17.8059 52.297 19.7986C56.4465 21.7912 57.3591 25.8334 57.2735 31.8826C57.188 37.3054 55.3343 39.0988 52.4967 47.1833C49.6591 55.2678 56.9028 58.9115 59.2841 59.6943C62.307 60.6764 69.4794 58.4845 69.4794 58.4845L70.0926 60.2067L70.1496 60.3775L70.5489 61.445Z" fill="#A06552"/>
<path d="M107.965 116.741C107.766 117.211 106.554 117.012 106.554 117.012L106.867 117.296C106.867 117.296 107.167 117.439 106.996 117.923C106.81 118.421 105.669 118.421 105.669 118.421C105.698 118.478 102.176 118.179 101.292 117.923C100.607 117.723 99.5665 117.125 98.2261 117.31C98.055 117.339 97.8981 117.353 97.7413 117.367C96.2726 117.524 94.8324 118.207 93.2496 117.254C91.6526 116.3 91.068 114.948 91.3389 113.439C91.4815 112.642 91.7524 112.187 91.9805 111.93C92.1802 111.717 92.337 111.646 92.337 111.646C92.337 111.646 92.608 111.475 93.05 111.261C93.7344 110.934 94.8039 110.535 95.9161 110.521C97.4276 110.507 98.9676 111.147 99.6805 111.446C99.7091 111.461 99.7518 111.475 99.7804 111.489C101.178 112.058 101.606 112.243 102.704 112.557C103.816 112.87 106.881 113.909 107.281 114.179C107.68 114.45 108.236 114.891 107.837 115.375C107.709 115.531 107.552 115.56 107.395 115.517C107.509 115.588 107.609 115.645 107.68 115.688C107.922 115.859 108.165 116.271 107.965 116.741Z" fill="#F4DBB2"/>
<path d="M76.6804 111.375C76.5948 111.93 74.9265 111.83 74.9265 111.83C74.9265 111.83 75.5254 112.03 75.8391 112.044C76.167 112.058 76.6091 112.257 76.552 112.77C76.495 113.254 74.7554 113.083 74.7554 113.083C74.7554 113.083 75.3115 113.296 75.4826 113.467C75.6537 113.638 75.3115 114.037 75.1831 114.093C74.9978 114.179 74.6841 114.179 73.743 114.15C72.8019 114.122 71.1763 113.624 71.1763 113.624C71.1763 113.624 70.3493 113.069 69.5793 112.884C68.8093 112.699 67.0411 112.812 65.5724 112.713C64.503 112.627 63.4193 112.812 62.3641 112.471C61.9506 112.343 61.5656 112.115 61.1663 111.773C59.7689 110.549 59.4409 109.112 59.9828 107.674C60.0826 107.404 60.1967 107.176 60.3107 106.991C60.7956 106.194 61.2804 106.094 61.2804 106.094C61.2804 106.094 61.7937 105.895 62.5352 105.739C63.2339 105.596 64.1465 105.497 65.0163 105.653C66.5135 105.924 67.8967 106.835 68.5526 107.247C68.5954 107.276 68.6382 107.304 68.6667 107.318C69.9215 108.116 70.3065 108.386 71.3189 108.884C72.3598 109.397 75.1831 110.407 75.6394 110.578C76.0815 110.749 76.7802 110.763 76.6804 111.375Z" fill="#F4DBB2"/>
<path d="M83.6817 86.9509C83.6817 87.4491 83.5961 87.933 83.4108 88.3885C83.311 88.6305 83.1969 88.8582 83.04 89.0717L68.6667 107.319L67.8254 108.386C66.4708 110.365 64.56 111.788 62.1217 110.123C61.7795 109.895 61.4943 109.639 61.2519 109.383C60.596 108.657 60.3108 107.831 60.2965 106.991C60.2823 105.952 60.6815 104.899 61.3374 103.96L74.1993 83.0653C74.2991 82.9229 74.4132 82.7806 74.5273 82.6525C75.1404 81.9978 75.9674 81.585 76.8943 81.4427C77.2508 81.3857 77.6215 81.3715 77.9923 81.4C79.0189 81.4569 80.1026 81.827 81.0723 82.4817C81.5713 82.8233 81.9991 83.2218 82.3698 83.6488C82.9117 84.2893 83.2824 85.001 83.4963 85.7126C83.5819 86.0115 83.6389 86.3104 83.6532 86.6093C83.6674 86.7232 83.6817 86.8371 83.6817 86.9509Z" fill="#A06552"/>
<path d="M94.0196 64.0355L84.5372 86.7802C84.4802 86.9367 84.4089 87.0933 84.3376 87.2499C84.3376 87.2641 84.3233 87.2641 84.3233 87.2783C84.0952 87.7053 83.7815 88.0896 83.4108 88.4028C82.1132 89.4987 80.0456 89.8403 78.0208 89.1429C76.495 88.6163 75.3258 87.6057 74.6841 86.4244C74.1422 85.428 73.9996 84.3178 74.3561 83.2788L74.5272 82.6525L77.0511 73.8279L81.2291 59.2531C82.0133 56.9758 84.8224 53.1043 89.9985 54.8408C95.3743 56.6199 94.8039 61.7724 94.0196 64.0355Z" fill="#A06552"/>
<path d="M98.7537 61.4874C98.7109 61.4874 98.6682 61.4874 98.6396 61.5017C96.9998 61.6013 95.5169 60.5908 94.975 59.1105C94.8609 58.8116 94.7896 58.4842 94.7611 58.1569L93.378 47.9801L91.9093 37.1913C91.7239 35.1702 94.1765 33.448 96.2013 33.263C96.7859 33.206 97.4419 33.3057 98.0835 33.5049C99.652 34.0173 101.121 35.2129 101.249 36.6647L102.076 57.1178L102.09 57.4737C102.276 59.509 100.779 61.3024 98.7537 61.4874Z" fill="#A06552"/>
<path d="M122.153 65.7005C121.996 66.1559 121.768 66.5118 121.483 66.7822C121.027 67.2092 120.414 67.4369 119.743 67.4796C119.601 67.4939 119.458 67.4939 119.301 67.4939C119.202 67.4939 119.087 67.4796 118.988 67.4796C118.631 67.4512 118.246 67.38 117.875 67.2804C117.747 67.2519 117.633 67.2092 117.505 67.1665L116.749 66.953L97.5275 61.4163C97.1282 61.2882 96.7574 61.0889 96.4437 60.8327C95.2317 59.9076 94.6899 58.285 95.2032 56.762C95.303 56.4631 95.4313 56.1927 95.5882 55.9507C95.9447 55.3956 96.4437 54.9544 97.0141 54.6555C97.0997 54.6128 97.1852 54.5701 97.2708 54.5416C98.0693 54.2 98.9819 54.1431 99.866 54.442L100.522 54.6982L119.23 62.0425C119.401 62.0995 119.572 62.1564 119.729 62.2276C120.057 62.3557 120.371 62.498 120.67 62.6688C121.868 63.3235 122.624 64.2914 122.153 65.7005Z" fill="#A06552"/>
<path d="M126.16 62.3276C125.96 62.1283 125.148 61.9432 124.677 61.7867C124.206 61.6443 120.613 62.5126 120.542 62.6976C120.328 63.267 121.554 63.7082 121.982 63.6797C122.41 63.6513 125.761 62.8969 125.761 62.8969L126.16 62.3276Z" fill="#F4DBB2"/>
<path d="M127.971 67.6221C127.971 67.6221 125.119 71.5647 124.734 71.522C124.734 71.522 121.069 69.7855 121.055 69.7855L119.615 68.7038L118.959 68.2199L118.346 67.7644C118.161 67.6221 118.004 67.4655 117.875 67.2805C117.69 67.0243 117.576 66.7254 117.519 66.4122C117.476 66.213 117.476 65.9995 117.505 65.786C117.505 65.7575 117.519 65.729 117.519 65.7006C117.576 65.3732 117.704 65.0458 117.918 64.7612L118.489 64.0068C119.045 63.2667 119.829 62.8112 120.67 62.6404C120.984 62.5835 121.298 62.5693 121.611 62.5835C122.267 62.6262 122.923 62.8539 123.493 63.2809L125.105 64.4765C125.575 64.8608 128.327 67.1524 127.971 67.6221Z" fill="#EAD1AD"/>
<path d="M97.5274 53.83C95.688 65.9994 88.6154 70.9953 81.1578 69.8709C76.3952 69.1592 72.7733 68.0063 70.9339 64.8465C69.3654 62.1422 69.8787 54.1574 70.5346 49.7593C71.6754 42.2157 71.6041 35.3837 75.2687 31.8824C77.1367 30.1032 79.9885 29.1781 84.4659 29.4485C85.3642 29.5054 86.3196 29.6051 87.3463 29.7616C88.3159 29.9039 89.2142 30.0747 90.0413 30.274C91.2105 30.5444 92.2515 30.8718 93.1641 31.2419C102.475 34.9994 99.0959 43.4255 97.5274 53.83Z" fill="#A06552"/>
<path d="M97.1424 52.0082C94.6327 66.0707 90.027 66.882 84.6798 66.0707C79.3325 65.2594 75.8818 59.5092 77.4646 49.0193C79.0474 38.5294 78.3059 29.7759 90.0127 31.4839C100.023 32.9357 99.0103 41.561 97.1424 52.0082Z" fill="#F4DBB2"/>
<path d="M97.0284 115.161C96.7147 115.247 96.4152 115.289 96.1158 115.304C93.9056 115.446 92.5224 113.895 91.9521 111.945C91.9235 111.845 91.895 111.76 91.8808 111.66L84.7654 88.4598L84.6798 88.1894C84.6513 88.0897 84.6371 87.9901 84.6228 87.8762C84.2663 85.6416 86.063 83.3501 88.8008 82.6526C89.3426 82.5103 89.8702 82.4534 90.3835 82.4534C92.3371 82.4534 94.0482 83.3643 94.7897 84.8446C94.9037 85.0723 94.9893 85.3 95.0463 85.5562L99.5095 109.738C99.6663 110.336 99.7662 110.934 99.7804 111.518C99.8232 113.169 99.1673 114.62 97.0284 115.161Z" fill="#A06552"/>
<path d="M91.8094 89.94C90.084 90.9221 88.1448 91.0075 86.6903 90.3386C85.9631 90.0112 85.3642 89.4846 84.9792 88.7871L84.7653 88.4598L84.3376 87.7908L77.0226 76.39L72.9301 70.0277L72.3883 69.1737L72.0461 68.6471L71.8607 68.3624L71.4757 67.7646C71.4472 67.7219 71.4329 67.6792 71.4044 67.6365C71.2903 67.423 71.1763 67.1811 71.0764 66.9249C70.5489 65.6439 70.2209 63.879 70.72 62.1425V62.1283C71.1335 60.7334 72.1031 59.3528 73.9568 58.2853C75.8248 57.2178 77.4789 57.1039 78.8905 57.4882C81.1863 58.1145 82.7976 60.0787 83.539 61.3881L84.6085 63.5801L94.3618 83.5351C94.6042 83.9621 94.7468 84.4318 94.8039 84.9015C95.0035 86.7233 93.8627 88.7871 91.8094 89.94Z" fill="#A06552"/>
<path d="M87.5745 54.8124C87.5745 62.7545 81.1293 69.2022 73.1584 69.2022C71.7895 69.2022 70.4634 69.0172 69.2228 68.6613C63.1769 66.9533 58.7565 61.4024 58.7565 54.8266C58.7565 54.6843 58.7565 54.5277 58.7565 54.3854C58.9704 47.0126 64.7454 41.0488 72.0319 40.4795C72.4026 40.451 72.7734 40.4368 73.1584 40.4368C81.115 40.4226 87.5745 46.8702 87.5745 54.8124Z" fill="#F3B92D"/>
<path d="M73.1584 67.0958C79.9231 67.0958 85.4071 61.6218 85.4071 54.8694C85.4071 48.117 79.9231 42.6431 73.1584 42.6431C66.3936 42.6431 60.9097 48.117 60.9097 54.8694C60.9097 61.6218 66.3936 67.0958 73.1584 67.0958Z" fill="#FDF1DB"/>
<path d="M67.4832 47.8807L72.9302 44.7351L78.3773 47.8807L76.381 49.0335L72.9302 47.0551L69.4795 49.0335L67.4832 47.8807ZM78.3773 51.8375L76.381 50.6846L72.9302 52.663L69.4795 50.6846L67.4832 51.8375V54.1575L70.9339 56.1359V60.0928L72.9302 61.2457L74.9265 60.0928V56.1359L78.3773 54.1575V51.8375ZM78.3773 58.1144V55.7943L76.381 56.9472V59.2673L78.3773 58.1144ZM79.8032 58.9399L76.3667 60.9183V63.2383L81.8138 60.0928V53.8159L79.8175 54.9688V58.9399H79.8032ZM77.8069 49.8591L79.8032 51.012V53.332L81.7995 52.1791V49.8591L79.8032 48.7062L77.8069 49.8591ZM70.9339 61.7581V64.0781L72.9302 65.231L74.9265 64.0781V61.7581L72.9302 62.911L70.9339 61.7581ZM67.4832 58.1144L69.4795 59.2673V56.9472L67.4832 55.7943V58.1144ZM70.9339 49.8591L72.9302 51.012L74.9265 49.8591L72.9302 48.7062L70.9339 49.8591ZM66.0573 51.0262L68.0536 49.8733L66.0573 48.7204L64.061 49.8733V52.1933L66.0573 53.3462V51.0262ZM66.0573 54.983L64.061 53.8302V60.107L69.508 63.2526V60.9183L66.0573 58.9399V54.983Z" fill="#F0B90B"/>
<path d="M72.3741 66.6685C70.9909 67.5937 69.5935 67.0101 68.4955 65.8572C68.2531 65.5868 68.0107 65.3021 67.8111 64.989L55.5909 48.1938C55.2915 47.7525 55.1061 47.2544 55.0205 46.7562C54.7924 45.3756 55.3628 43.9238 56.6176 43.084C57.245 42.6713 57.9579 42.4578 58.6567 42.4578C59.0131 42.4578 59.3839 42.5147 59.7261 42.6143C60.5104 42.8563 61.2376 43.3545 61.7224 44.0946L63.3907 46.9128L72.317 61.9573C73.4578 63.6653 74.0709 65.5299 72.3741 66.6685Z" fill="#A06552"/>
<path d="M79.3468 34.1882C79.3468 34.6152 79.3041 35.028 79.2043 35.4265C79.0331 36.1382 78.6767 36.7644 78.1348 37.163L63.3907 46.927L60.7385 48.6776C59.997 49.2327 59.113 49.4605 58.2574 49.3893C57.2307 49.3039 56.2468 48.7915 55.5909 47.9091C55.3342 47.5532 55.1346 47.1689 55.0205 46.7704C54.5928 45.3328 55.0918 43.7102 56.3752 42.7709L72.8304 29.4628C74.2135 28.438 76.3952 29.1354 77.7641 30.3737C78.0065 30.6014 78.2346 30.8434 78.42 31.0854C78.7622 31.5408 79.0189 32.1386 79.1757 32.7649C79.2756 33.2346 79.3468 33.7185 79.3468 34.1882Z" fill="#A06552"/>
<path d="M69.0517 67.9068L68.4813 65.1314C68.2104 63.7792 69.0802 62.4697 70.4348 62.1993C72.6878 61.7438 74.8837 63.1956 75.34 65.4445L75.5824 66.6543C75.725 67.3375 75.283 67.9922 74.5985 68.1346L70.6059 68.9459C69.893 69.0882 69.1943 68.6185 69.0517 67.9068Z" fill="#F4DBB2"/>
<path d="M75.9816 68.9174C75.9816 68.9743 75.9816 69.017 75.9674 69.0455C75.8818 69.444 75.7392 69.9706 75.2972 69.9849C74.8551 69.9991 74.3275 69.6717 74.3275 69.6717C74.3275 69.6717 74.2277 70.2838 73.7287 70.3407C73.4292 70.3692 73.1155 70.1841 72.9301 70.0133C72.8161 69.9137 72.7305 69.8283 72.7305 69.8283C72.7305 69.8283 72.5309 70.2553 72.1031 70.3549C72.0461 70.3692 71.989 70.3692 71.9177 70.3692C71.3759 70.3692 71.0051 69.8283 71.0051 69.8283C71.0051 69.8283 70.777 70.3976 70.2351 70.3976C69.6933 70.3976 69.5364 69.9706 69.5364 69.9706C69.5364 69.9706 69.3368 69.202 69.2085 68.6327C69.1799 68.5046 69.1657 68.3907 69.1372 68.2911C69.1229 68.1915 69.1087 68.1061 69.1229 68.0634L71.3901 67.5937L74.2277 67.0386L75.5966 66.7539C75.5966 66.7539 75.5966 66.7824 75.6109 66.8393C75.6109 66.8535 75.6251 66.882 75.6251 66.9105C75.6251 66.9247 75.6251 66.9247 75.6394 66.9389C75.7392 67.3802 75.9816 68.4619 75.9816 68.9174Z" fill="#F4DBB2"/>
<path d="M79.6463 11.9986C79.4181 12.8241 79.304 13.6781 79.304 14.5321C79.304 14.589 79.304 14.646 79.304 14.7029C79.3183 15.7419 79.19 16.7667 78.9618 17.763C78.4913 17.5922 77.9922 17.2506 77.5216 16.6671C76.2811 15.1157 76.6946 12.6106 78.2203 12.027C78.7907 11.7993 79.2755 11.842 79.6463 11.9986C79.6463 11.9843 79.6463 11.9843 79.6463 11.9986Z" fill="#A06552"/>
<path d="M79.6463 11.9986C79.4181 12.8241 79.304 13.6781 79.304 14.5321C79.304 14.589 79.304 14.646 79.304 14.7029C79.3183 15.7419 79.19 16.7667 78.9618 17.763C78.4913 17.5922 77.9922 17.2506 77.5216 16.6671C76.2811 15.1157 76.6946 12.6106 78.2203 12.027C78.7907 11.7993 79.2755 11.842 79.6463 11.9986C79.6463 11.9843 79.6463 11.9843 79.6463 11.9986Z" fill="#F4DBB2"/>
<path d="M102.361 16.667C101.891 17.2648 101.406 17.6064 100.921 17.763C100.693 16.7524 100.565 15.7276 100.579 14.7028C100.579 14.6459 100.579 14.589 100.579 14.532C100.579 13.678 100.465 12.8241 100.237 11.9985C100.607 11.8562 101.092 11.7993 101.663 12.027C103.174 12.5963 103.588 15.1014 102.361 16.667Z" fill="#A06552"/>
<path d="M102.361 16.667C101.891 17.2648 101.406 17.6064 100.921 17.763C100.693 16.7524 100.565 15.7276 100.579 14.7028C100.579 14.6459 100.579 14.589 100.579 14.532C100.579 13.678 100.465 12.8241 100.237 11.9985C100.607 11.8562 101.092 11.7993 101.663 12.027C103.174 12.5963 103.588 15.1014 102.361 16.667Z" fill="#F4DBB2"/>
<path d="M97.6272 17.7917C97.1852 18.4891 97.0569 19.3573 97.3278 20.1544C97.5274 20.7522 97.7128 21.4212 97.7128 21.9193C97.7128 25.5773 94.2335 28.552 89.9557 28.552C85.678 28.552 82.1987 25.5773 82.1987 21.9193C82.1987 21.4212 82.3841 20.7522 82.5837 20.1544C82.8546 19.3716 82.7263 18.5033 82.2843 17.7917C82.1702 17.6209 82.0846 17.4501 81.9991 17.265C81.7424 16.7099 81.6141 16.1122 81.6141 15.5001C81.6141 13.0662 83.6817 11.1021 86.2483 11.1021C87.0754 11.1021 87.8881 11.3155 88.6011 11.7141C89.4424 12.198 90.4833 12.198 91.3246 11.7141C92.0519 11.3155 92.8504 11.1021 93.6774 11.1021C96.2298 11.1021 98.3117 13.0662 98.3117 15.5001C98.3117 16.1122 98.1833 16.7099 97.9267 17.265C97.8269 17.4501 97.727 17.6209 97.6272 17.7917Z" fill="#A06552"/>
<path d="M97.6272 17.7917C97.1852 18.4891 97.0569 19.3573 97.3278 20.1544C97.5274 20.7522 97.7128 21.4212 97.7128 21.9193C97.7128 25.5773 94.2335 28.552 89.9557 28.552C85.678 28.552 82.1987 25.5773 82.1987 21.9193C82.1987 21.4212 82.3841 20.7522 82.5837 20.1544C82.8546 19.3716 82.7263 18.5033 82.2843 17.7917C82.1702 17.6209 82.0846 17.4501 81.9991 17.265C81.7424 16.7099 81.6141 16.1122 81.6141 15.5001C81.6141 13.0662 83.6817 11.1021 86.2483 11.1021C87.0754 11.1021 87.8881 11.3155 88.6011 11.7141C89.4424 12.198 90.4833 12.198 91.3246 11.7141C92.0519 11.3155 92.8504 11.1021 93.6774 11.1021C96.2298 11.1021 98.3117 13.0662 98.3117 15.5001C98.3117 16.1122 98.1833 16.7099 97.9267 17.265C97.8269 17.4501 97.727 17.6209 97.6272 17.7917Z" fill="#F4DBB2"/>
<path d="M85.9917 22.7446C85.7493 22.7446 85.5496 22.9439 85.5496 23.1859C85.5496 23.2001 85.5496 23.2286 85.5496 23.2428C85.8205 25.207 87.6885 26.7157 89.9415 26.7157C92.1944 26.7157 94.0624 25.1927 94.3333 23.2428C94.3618 23.0008 94.1907 22.7731 93.9483 22.7446C93.9341 22.7446 93.9056 22.7446 93.8913 22.7446H85.9917Z" fill="#4E3F3F"/>
<path d="M87.389 25.9899C88.9576 26.9578 90.9396 26.9578 92.4939 25.9899C92.1802 24.8797 91.1535 25.1359 89.9414 25.1359C88.7294 25.1359 87.7027 24.8797 87.389 25.9899Z" fill="#E5646E"/>
<path d="M102.19 11.2016C101.278 10.8458 100.536 11.0308 100.037 11.3297C99.9087 10.9596 99.7661 10.6038 99.6092 10.248C99.4952 9.99176 99.3668 9.73556 99.2242 9.47936C97.8126 6.91738 95.4598 4.78239 92.7363 3.8857L92.6792 2.43391L90.9253 3.48717C90.854 3.47293 90.7827 3.47293 90.7115 3.4587C90.5831 3.44447 90.4548 3.44447 90.3265 3.43023L90.0698 2.32004L89.9985 1.99268C89.9129 1.99268 89.8274 1.99268 89.7418 2.00691C88.102 2.13501 87.2892 3.61526 87.1752 3.87146C84.4659 4.76816 82.0989 6.90314 80.7015 9.46513C80.5589 9.72133 80.4305 9.97752 80.3165 10.2337C80.1596 10.5896 80.0027 10.9454 79.8887 11.3154C79.8744 11.3012 79.8459 11.287 79.8174 11.2727C79.304 11.0023 78.6053 10.8458 77.7213 11.1874C75.7963 11.9417 75.2687 15.1157 76.8372 17.0941C77.4789 17.9054 78.149 18.3467 78.7907 18.5317C78.7765 18.5744 78.7765 18.6029 78.7622 18.6456C78.6481 19.1722 78.5911 19.7273 78.5911 20.2682C78.5911 24.0542 81.3859 27.2994 85.3927 28.7369C86.3339 29.0785 87.3035 29.3063 88.3016 29.4201C88.815 29.4771 89.3283 29.5198 89.8559 29.5198C89.8987 29.5198 89.9415 29.5198 89.9842 29.5198C96.2726 29.5198 101.363 25.3779 101.363 20.2824C101.363 19.7415 101.306 19.2007 101.192 18.6598C101.178 18.6171 101.178 18.5886 101.163 18.5459C101.805 18.3467 102.475 17.9054 103.117 17.1084C104.628 15.1157 104.115 11.9417 102.19 11.2016ZM79.6463 11.9986C79.4181 12.8242 79.304 13.6782 79.304 14.5322C79.304 14.5891 79.304 14.646 79.304 14.703C79.3183 15.742 79.19 16.7668 78.9618 17.7631C78.4913 17.5923 77.9922 17.2507 77.5216 16.6671C76.2811 15.1157 76.6946 12.6107 78.2203 12.0271C78.7907 11.7994 79.2755 11.8421 79.6463 11.9986C79.6463 11.9844 79.6463 11.9844 79.6463 11.9986ZM97.9124 17.2649C97.8268 17.45 97.727 17.6208 97.6272 17.7916C97.1852 18.489 97.0568 19.3572 97.3277 20.1543C97.5274 20.7521 97.7128 21.4211 97.7128 21.9192C97.7128 25.5772 94.2335 28.5519 89.9557 28.5519C85.6637 28.5519 82.1844 25.5772 82.1844 21.9192C82.1844 21.4211 82.3698 20.7521 82.5694 20.1543C82.8403 19.3715 82.712 18.5032 82.27 17.7916C82.1559 17.6208 82.0703 17.45 81.9848 17.2649C81.7281 16.7098 81.5998 16.1121 81.5998 15.5C81.5998 13.0661 83.6674 11.102 86.234 11.102C87.0611 11.102 87.8739 11.3154 88.5868 11.714C89.4281 12.1979 90.469 12.1979 91.3103 11.714C92.0376 11.3154 92.8361 11.102 93.6631 11.102C96.2155 11.102 98.2974 13.0661 98.2974 15.5C98.2974 16.1121 98.169 16.7241 97.9124 17.2649ZM102.361 16.6671C101.891 17.2649 101.406 17.6065 100.921 17.7631C100.693 16.7525 100.565 15.7278 100.579 14.703C100.579 14.646 100.579 14.5891 100.579 14.5322C100.579 13.6782 100.465 12.8242 100.237 11.9986C100.607 11.8563 101.092 11.7994 101.663 12.0271C103.174 12.5964 103.588 15.1015 102.361 16.6671Z" fill="#A06552"/>
<path d="M88.0022 19.4426C88.0877 19.2576 88.3159 19.1722 88.5012 19.2576L89.3711 19.6561C89.5564 19.7415 89.642 19.9693 89.5564 20.1543C89.4709 20.3393 89.2427 20.4247 89.0573 20.3393L88.1875 19.9408C88.0022 19.8412 87.9166 19.6277 88.0022 19.4426Z" fill="#4E3F3F"/>
<path d="M90.3264 20.1401C90.2409 19.9551 90.3264 19.7274 90.5118 19.642L91.3816 19.2434C91.567 19.158 91.7951 19.2434 91.8807 19.4285C91.9663 19.6135 91.8807 19.8412 91.6953 19.9266L90.8255 20.3252C90.6401 20.4106 90.412 20.3252 90.3264 20.1401Z" fill="#4E3F3F"/>
<path d="M85.9489 17.265C85.2216 17.265 84.6227 16.6957 84.6227 16.0125V15.5997C84.6227 14.9023 85.2216 14.3472 85.9489 14.3472C86.6761 14.3472 87.275 14.9165 87.275 15.5997V16.0125C87.275 16.7099 86.6903 17.265 85.9489 17.265Z" fill="#4E3F3F"/>
<path d="M85.9489 14.333V15.799C85.9489 16.1406 86.2483 16.4253 86.619 16.4253C86.9898 16.4253 87.2892 16.1406 87.2892 15.799V15.5855C87.275 14.9023 86.6903 14.333 85.9489 14.333Z" fill="#5D5360"/>
<path d="M85.9489 15.5855C86.193 15.5855 86.3909 15.4007 86.3909 15.1728C86.3909 14.9448 86.193 14.76 85.9489 14.76C85.7047 14.76 85.5068 14.9448 85.5068 15.1728C85.5068 15.4007 85.7047 15.5855 85.9489 15.5855Z" fill="white"/>
<path d="M93.934 17.265C93.2068 17.265 92.6079 16.6957 92.6079 16.0125V15.5997C92.6079 14.9023 93.2068 14.3472 93.934 14.3472C94.6755 14.3472 95.2601 14.9165 95.2601 15.5997V16.0125C95.2601 16.7099 94.6612 17.265 93.934 17.265Z" fill="#4E3F3F"/>
<path d="M93.934 14.333V15.799C93.934 16.1406 94.2335 16.4253 94.6042 16.4253C94.9749 16.4253 95.2744 16.1406 95.2744 15.799V15.5855C95.2601 14.9023 94.6612 14.333 93.934 14.333Z" fill="#5D5360"/>
<path d="M93.934 15.5855C94.1782 15.5855 94.3761 15.4007 94.3761 15.1728C94.3761 14.9448 94.1782 14.76 93.934 14.76C93.6899 14.76 93.492 14.9448 93.492 15.1728C93.492 15.4007 93.6899 15.5855 93.934 15.5855Z" fill="white"/>
<path d="M74.5557 63.4802C74.8267 63.5514 75.397 64.1634 75.7535 64.4908C76.11 64.8324 77.1509 68.3765 77.0226 68.533C76.6376 69.0027 75.6394 68.163 75.4541 67.7644C75.2687 67.3801 74.2563 64.0923 74.2563 64.0923L74.5557 63.4802Z" fill="#F4DBB2"/>
<path d="M155.791 30.4734C155.591 30.6442 155.349 30.7581 155.078 30.8008L154.037 30.9573L149.06 31.7117C148.561 31.7829 148.076 31.5836 147.777 31.2278C147.706 31.1424 147.649 31.0427 147.592 30.9431C147.535 30.815 147.492 30.6869 147.463 30.5446L147.435 30.3595L147.064 27.8972L147.05 27.8402L146.75 25.8191C146.636 25.079 147.121 24.3958 147.848 24.2392C147.877 24.2392 147.891 24.225 147.92 24.225L153.923 23.3141C154.693 23.2002 155.406 23.7268 155.52 24.4812L155.862 26.7158L156.133 28.5519L156.233 29.2066C156.333 29.6906 156.147 30.1603 155.791 30.4734Z" fill="#A06552"/>
<path d="M196.7 21.3499C196.7 21.4068 196.7 21.4638 196.686 21.5207C196.672 21.6488 196.643 21.7484 196.615 21.8481C196.444 22.3178 196.03 22.5313 195.56 22.6451C195.089 22.759 194.576 22.759 194.191 22.8017C193.278 22.9156 191.111 23.371 189.514 24.1539C186.99 25.3922 185.806 26.7016 185.478 30.1034C185.35 31.3844 185.35 32.95 185.436 34.9427C185.635 39.5685 190.213 45.9307 190.712 49.119C191.539 54.2999 190.569 57.9009 187.903 60.8045C186.805 62.0001 185.407 63.0818 183.739 64.1066C180.402 66.142 173.629 64.3486 170.635 63.3949C170.25 63.2668 169.936 63.1672 169.693 63.0818C169.337 62.9537 169.137 62.8825 169.137 62.8825L169.537 61.8008L169.594 61.63L170.221 59.9363C170.221 59.9363 177.393 62.1282 180.416 61.1461C181.087 60.9326 182.17 60.4771 183.283 59.7512C186.092 57.9436 189.229 54.428 187.204 48.6351C184.38 40.5506 182.513 38.7572 182.427 33.3343C182.413 32.1245 182.427 31.0001 182.513 29.9468C182.826 25.748 184.081 22.8444 187.403 21.2503C191.553 19.2576 192.965 19.3857 193.72 19.343C194.462 19.3003 196.487 19.2719 196.686 21.051C196.686 21.1649 196.7 21.2503 196.7 21.3499Z" fill="#A06552"/>
<path d="M140.405 117.566C140.576 118.05 141.802 117.922 141.802 117.922L141.474 118.179C141.474 118.179 141.161 118.307 141.318 118.791C141.474 119.303 142.615 119.36 142.615 119.36C142.587 119.417 146.123 119.303 147.021 119.089C147.706 118.933 148.789 118.392 150.116 118.648C150.287 118.677 150.444 118.705 150.6 118.734C152.055 118.976 153.452 119.716 155.092 118.847C156.732 117.979 157.402 116.656 157.202 115.147C157.103 114.336 156.846 113.866 156.646 113.61C156.461 113.382 156.304 113.311 156.304 113.311C156.304 113.311 156.047 113.126 155.605 112.884C154.949 112.528 153.894 112.058 152.782 112.001C151.271 111.916 149.702 112.471 148.961 112.727C148.918 112.741 148.889 112.756 148.861 112.77C147.435 113.268 146.993 113.425 145.895 113.681C144.768 113.937 141.66 114.805 141.246 115.061C140.833 115.318 140.262 115.73 140.633 116.229C140.747 116.385 140.904 116.428 141.061 116.399C140.947 116.471 140.847 116.527 140.776 116.556C140.491 116.684 140.234 117.083 140.405 117.566Z" fill="#F4DBB2"/>
<path d="M174.228 113.112C173.814 113.425 173.401 113.624 172.987 113.738C171.918 114.022 170.848 113.766 169.779 113.78C168.296 113.809 166.542 113.581 165.758 113.709C164.974 113.852 164.118 114.35 164.118 114.35C164.118 114.35 162.464 114.748 161.523 114.72C160.582 114.691 160.268 114.677 160.083 114.578C159.954 114.506 159.641 114.094 159.826 113.937C160.011 113.766 160.582 113.595 160.582 113.595C160.582 113.595 158.828 113.667 158.814 113.168C158.785 112.656 159.241 112.485 159.569 112.485C159.869 112.485 160.468 112.343 160.482 112.329C160.453 112.329 159.298 112.329 158.899 112.001C158.814 111.944 158.771 111.859 158.757 111.774C158.7 111.162 159.398 111.19 159.855 111.033C160.311 110.877 163.206 110.051 164.275 109.596C165.287 109.169 165.701 108.927 166.956 108.23C166.97 108.215 166.998 108.201 167.013 108.201C167.056 108.173 167.098 108.158 167.141 108.13C167.526 107.916 168.168 107.546 168.923 107.247C169.494 107.02 170.121 106.82 170.763 106.749C171.647 106.65 172.545 106.806 173.23 106.991C173.957 107.19 174.456 107.432 174.456 107.432C174.456 107.432 174.912 107.546 175.326 108.286C175.34 108.315 175.369 108.358 175.383 108.386C175.483 108.585 175.583 108.813 175.668 109.084C176.11 110.55 175.697 111.973 174.228 113.112Z" fill="#F4DBB2"/>
<path d="M175.255 109.539C175.083 110.365 174.656 111.119 173.871 111.703C173.586 111.916 173.258 112.115 172.888 112.272C170.178 113.453 168.567 111.717 167.597 109.525L167.569 109.468L166.97 108.329L166.941 108.258L156.218 87.7481C156.119 87.5061 156.033 87.2642 155.99 87.008C155.891 86.5241 155.891 86.0259 155.99 85.542C156.019 85.4281 156.033 85.3142 156.076 85.2004C156.161 84.9157 156.261 84.631 156.404 84.3606C156.532 84.1044 156.675 83.8624 156.846 83.6205C157.131 83.2219 157.488 82.8519 157.887 82.5245C158.315 82.1687 158.828 81.8556 159.37 81.6136C160.453 81.1439 161.58 80.9873 162.607 81.1154C162.977 81.1581 163.334 81.2435 163.676 81.3716C164.56 81.6848 165.302 82.2398 165.772 82.9942C165.786 83.0227 165.801 83.0511 165.829 83.0796C165.901 83.1935 165.972 83.3216 166.029 83.4497L174.813 106.365C175.083 106.991 175.269 107.646 175.326 108.301C175.354 108.714 175.34 109.126 175.255 109.539Z" fill="#A06552"/>
<path d="M165.359 85.7269C164.731 86.9082 163.548 87.9188 162.022 88.4454C161.281 88.7016 160.525 88.8155 159.798 88.8013C158.571 88.7728 157.445 88.3885 156.632 87.7053C156.39 87.4918 156.161 87.2641 155.976 87.0079C155.876 86.8798 155.791 86.7374 155.719 86.5809C155.719 86.5666 155.705 86.5666 155.705 86.5524C155.634 86.3958 155.563 86.2535 155.506 86.0827L146.023 63.338C145.809 62.726 145.624 61.9147 145.553 61.018C145.453 59.7797 145.595 58.3848 146.251 57.1323C146.907 55.8798 148.076 54.7696 150.044 54.1149C155.22 52.3784 158.029 56.2641 158.814 58.5272L161.694 68.5616L162.992 73.1162L165.516 81.9408L165.687 82.5671C165.744 82.7237 165.786 82.8945 165.815 83.0653C166 83.962 165.815 84.8871 165.359 85.7269Z" fill="#A06552"/>
<path d="M151.47 35.7253L149.174 46.3433L147.706 53.1041L146.993 56.3777C146.936 56.7051 146.836 57.0182 146.708 57.3171C146.037 58.7547 144.497 59.6371 142.858 59.4094C142.815 59.4094 142.786 59.3952 142.744 59.3952C141.859 59.2386 141.104 58.7974 140.576 58.1711C140.191 57.7156 139.906 57.1748 139.778 56.5912C139.678 56.1357 139.649 55.6376 139.735 55.1536L139.778 54.7978L142.216 34.4728C142.302 33.9746 142.544 33.5191 142.9 33.1206C143.556 32.3805 144.583 31.8396 145.624 31.5834C146.28 31.4268 146.936 31.3841 147.52 31.4838C149.517 31.8111 151.812 33.7184 151.47 35.7253Z" fill="#A06552"/>
<path d="M148.134 55.2534C148.091 55.6519 147.977 56.0505 147.791 56.4348L138.494 74.1125L138.124 74.8099C137.895 75.2796 137.639 75.7066 137.339 76.0909C137.182 76.2901 136.997 76.4752 136.826 76.646C136.327 77.1014 135.742 77.3861 135.115 77.4146C134.716 77.443 134.302 77.3576 133.86 77.1441C132.648 76.5606 132.377 75.5215 132.591 74.3544C132.676 73.9132 132.819 73.4435 133.019 72.988C133.09 72.8315 133.161 72.6607 133.233 72.5041L139.763 56.6198L140.861 53.9439L141.118 53.3177L141.132 53.2892C141.531 52.4495 142.216 51.8232 143 51.4816C143.67 51.1969 144.44 51.0973 145.182 51.2539C145.467 51.3108 145.766 51.4104 146.037 51.5385C146.779 51.8944 147.335 52.4495 147.706 53.1184C148.062 53.7589 148.219 54.499 148.134 55.2534Z" fill="#A06552"/>
<path d="M132.391 78.8523L136.541 79.4786L136.783 79.5213C137.197 79.5782 137.582 79.4216 137.838 79.1227C137.952 78.9804 138.038 78.8096 138.081 78.6103C138.081 78.5961 138.081 78.5819 138.095 78.5676L138.608 75.2228C138.694 74.6677 138.551 74.1269 138.252 73.6856C138.138 73.5148 137.995 73.3583 137.824 73.2302C137.539 73.0024 137.197 72.8459 136.812 72.789L135.871 72.6466C134.616 72.4616 133.432 72.9313 132.648 73.8137C132.206 74.3119 131.907 74.9382 131.792 75.6356L131.493 77.614C131.393 78.2118 131.792 78.7527 132.391 78.8523Z" fill="#F4DBB2"/>
<path d="M131.935 75.5927C131.935 75.5927 130.823 78.6529 130.766 78.9518C130.695 79.2507 130.595 82.0404 130.652 82.3678C130.709 82.6951 131.735 84.3889 131.949 84.6736C132.177 84.9724 132.577 85.4137 133.047 85.1005C133.518 84.7874 133.546 84.4316 133.561 84.1469C133.575 83.8623 132.748 82.0262 132.748 82.0262L132.762 79.3361L133.874 76.1905C133.874 76.1905 133.946 75.6497 133.318 75.422C132.677 75.1658 131.935 75.5927 131.935 75.5927Z" fill="#F4DBB2"/>
<path d="M134.274 75.1943C134.274 75.1943 133.618 78.3826 133.603 78.6957C133.589 79.0088 133.874 81.7701 133.988 82.0832C134.088 82.3963 135.343 83.9193 135.6 84.1755C135.856 84.4317 136.327 84.816 136.755 84.4459C137.182 84.0759 137.14 83.7058 137.125 83.4211C137.097 83.1365 136.013 81.4427 136.013 81.4427L135.642 78.7811L136.284 75.5074C136.284 75.5074 136.284 74.9666 135.628 74.8242C134.944 74.6677 134.274 75.1943 134.274 75.1943Z" fill="#F4DBB2"/>
<path d="M135.828 74.4968C135.828 74.4968 135.172 77.6851 135.158 77.9982C135.143 78.3113 135.428 81.0726 135.543 81.3857C135.657 81.6988 136.897 83.2218 137.154 83.478C137.411 83.7342 137.881 84.1185 138.309 83.7484C138.737 83.3784 138.694 83.0083 138.68 82.7236C138.651 82.439 137.567 80.7452 137.567 80.7452L137.197 78.0836L137.838 74.8099C137.838 74.8099 137.838 74.2691 137.182 74.1267C136.498 73.9702 135.828 74.4968 135.828 74.4968Z" fill="#F4DBB2"/>
<path d="M137.282 80.6738C137.468 80.8731 138.979 81.6275 139.264 81.7413C139.564 81.8552 140.048 81.9833 140.248 81.5563C140.405 81.2147 140.348 80.9727 140.248 80.7877C140.22 80.7308 140.191 80.6881 140.177 80.6454C140.063 80.4319 138.623 79.4925 138.623 79.4925L138.066 78.61L137.624 77.8983L137.411 77.5568L137.168 76.532L136.769 74.8097C136.769 74.8097 136.569 74.397 136.013 74.5108C135.457 74.6247 135.129 75.2652 135.129 75.2652C135.129 75.2652 135.471 76.8166 135.685 77.6848C135.756 77.9553 135.799 78.1545 135.828 78.2115C135.871 78.3396 136.198 78.9231 136.541 79.5067C136.869 80.0333 137.197 80.5742 137.282 80.6738Z" fill="#F4DBB2"/>
<path d="M124.221 97.0564C126.844 104.557 135.058 108.514 142.572 105.895C143.856 105.44 145.054 104.828 146.109 104.088C151.256 100.487 153.595 93.7828 151.427 87.5771C151.385 87.4347 151.328 87.3066 151.271 87.1643C148.633 80.2754 141.204 76.5321 134.145 78.4109C133.789 78.5105 133.432 78.6101 133.076 78.7382C125.561 81.3571 121.597 89.5555 124.221 97.0564Z" fill="#F3B92D"/>
<path d="M137.853 104.586C144.617 104.586 150.101 99.1118 150.101 92.3594C150.101 85.607 144.617 80.1331 137.853 80.1331C131.088 80.1331 125.604 85.607 125.604 92.3594C125.604 99.1118 131.088 104.586 137.853 104.586Z" fill="#FDF1DB"/>
<path d="M137.881 81.4995L140.548 84.2181L133.846 90.9077L131.193 88.2461L137.881 81.4995Z" fill="#EFB80D" stroke="#EFB80D"/>
<path d="M141.916 85.5276L144.583 88.2461L133.846 98.9638L131.179 96.3021L141.916 85.5276Z" fill="#EFB80D" stroke="#EFB80D"/>
<path d="M129.81 89.5554L132.477 92.274L129.81 94.9356L127.144 92.274L129.81 89.5554Z" fill="#EFB80D" stroke="#EFB80D"/>
<path d="M145.952 89.5554L148.618 92.274L137.881 102.992L135.215 100.33L145.952 89.5554Z" fill="#EFB80D" stroke="#EFB80D"/>
<path d="M132.42 74.1693C131.963 74.8525 131.464 78.0692 131.579 78.5104C131.693 78.9517 132.89 81.9264 132.976 82.1257C133.061 82.3249 133.575 83.1362 133.946 83.0081C134.758 82.7092 134.815 81.8268 134.673 81.3144C134.601 81.0582 133.889 79.6206 133.889 79.1082C133.889 78.8378 134.844 77.9269 135.158 77.3433C135.471 76.7597 135.842 76.2331 134.858 74.9237C133.874 73.6142 132.876 73.4719 132.42 74.1693Z" fill="#F4DBB2"/>
<path d="M169.694 63.9356C168.154 66.5972 165.359 67.8213 161.68 68.5757C160.981 68.718 160.24 68.8461 159.484 68.96C155.363 69.5862 151.37 68.3337 148.305 65.0458C147.278 63.9499 146.351 62.6119 145.567 61.0463C144.455 58.8259 143.599 56.1216 143.114 52.9191C141.546 42.5004 138.166 34.0885 147.463 30.3452C148.105 30.089 148.818 29.847 149.588 29.6335C149.902 29.5481 150.244 29.4627 150.586 29.3773C151.413 29.178 152.311 29.0072 153.281 28.8649C154.308 28.7083 155.277 28.6087 156.176 28.5518C160.653 28.2671 163.491 29.1923 165.373 30.9857C169.052 34.487 168.966 41.319 170.107 48.8626C170.749 53.2465 171.262 61.2313 169.694 63.9356Z" fill="#A06552"/>
<path d="M143.599 51.7664C146.18 66.327 150.8 67.181 156.133 66.3839C161.48 65.5726 164.902 59.6374 163.263 48.7774C161.623 37.9174 162.307 28.8651 150.615 30.5588C140.619 32.0106 141.674 40.9491 143.599 51.7664Z" fill="#F4DBB2"/>
<path d="M152.212 116.912C152.54 116.954 152.839 116.969 153.139 116.954C155.349 116.826 156.532 115.118 156.874 113.126C156.889 113.026 156.903 112.941 156.917 112.841L161.166 88.9576L161.209 88.6872C161.224 88.5875 161.238 88.4737 161.238 88.3741C161.323 86.111 159.256 84.0471 156.461 83.6913C155.919 83.6201 155.377 83.6201 154.864 83.6913C152.925 83.9333 151.328 85.0435 150.786 86.6091C150.7 86.8511 150.643 87.0931 150.615 87.3493L149.117 111.859C149.046 112.471 149.018 113.083 149.06 113.652C149.203 115.289 150.03 116.641 152.212 116.912Z" fill="#A06552"/>
<path d="M154.864 91.1354C156.76 91.7332 158.671 91.4343 159.954 90.4949C160.596 90.0252 161.067 89.399 161.323 88.6304L161.466 88.2603L161.751 87.506L166.585 74.8526L169.28 67.7787L169.636 66.8393L169.865 66.2557L169.993 65.9426L170.25 65.2736C170.264 65.2309 170.278 65.174 170.292 65.1313C170.364 64.9036 170.421 64.6331 170.478 64.3627C170.734 62.9963 170.692 61.2029 169.85 59.6088C169.85 59.6088 169.85 59.5946 169.836 59.5946C169.152 58.3136 167.925 57.1607 165.886 56.4917C163.847 55.8228 162.193 56.0505 160.895 56.7195C158.785 57.8012 157.602 60.05 157.145 61.4734L156.546 63.8361L151.085 85.3567C150.928 85.8264 150.886 86.3104 150.928 86.7801C151.071 88.6446 152.611 90.4238 154.864 91.1354Z" fill="#A06552"/>
<path d="M124.891 66.028C125.818 67.3944 127.344 67.3944 128.784 66.7254C129.112 66.5689 129.44 66.3838 129.753 66.1704L147.406 55.2108C147.848 54.9119 148.205 54.5276 148.476 54.1006C149.217 52.905 149.232 51.3393 148.39 50.101C147.962 49.4748 147.378 49.0193 146.736 48.7631C146.394 48.6208 146.052 48.5354 145.681 48.5069C144.854 48.4357 144.013 48.635 143.271 49.1332L140.662 51.1116L126.702 61.7011C125.019 62.8398 123.75 64.3485 124.891 66.028Z" fill="#A06552"/>
<path d="M160.168 31.7973C159.741 31.7546 159.327 31.7688 158.928 31.8258C158.201 31.9396 157.545 32.2243 157.088 32.7224L145.98 46.4575L143.984 48.9341C143.371 49.6173 143.057 50.4855 143.043 51.3395C143.029 52.3643 143.442 53.3891 144.269 54.1292C144.597 54.4281 144.968 54.6416 145.353 54.7982C146.75 55.3533 148.404 55.0117 149.474 53.8304L164.261 38.7004C165.401 37.4194 164.917 35.1848 163.819 33.7188C163.619 33.4483 163.405 33.2064 163.163 32.9929C162.735 32.6086 162.179 32.3097 161.566 32.0962C161.124 31.9396 160.653 31.84 160.168 31.7973Z" fill="#A06552"/>
<path d="M127.5 68.4333L129.069 66.0705C129.825 64.9176 129.511 63.3805 128.37 62.6119C126.445 61.3451 123.864 61.8717 122.595 63.779L121.911 64.8038C121.526 65.3873 121.683 66.1559 122.267 66.5402L125.661 68.7891C126.274 69.2018 127.101 69.0453 127.5 68.4333Z" fill="#F4DBB2"/>
<path d="M119.087 68.6755C119.073 68.7182 119.059 68.7609 119.045 68.8036C118.973 69.2021 118.902 69.743 119.301 69.9138C119.701 70.0846 120.314 69.9849 120.314 69.9849C120.314 69.9849 120.171 70.597 120.613 70.8389C120.884 70.9813 121.241 70.9243 121.483 70.8389C121.626 70.7962 121.74 70.7393 121.74 70.7393C121.74 70.7393 121.768 71.209 122.125 71.4652C122.167 71.4937 122.224 71.5221 122.281 71.5506C122.795 71.7641 123.337 71.394 123.337 71.394C123.337 71.394 123.337 72.0061 123.836 72.2053C124.349 72.4188 124.649 72.0772 124.649 72.0772C124.649 72.0772 125.133 71.4367 125.447 70.9528C125.518 70.8389 127.258 68.7893 127.258 68.7466L121.554 65.0745C121.554 65.0745 120.214 66.8252 120.185 66.8678C120.171 66.8821 120.157 66.9106 120.143 66.9248C120.143 66.939 120.128 66.939 120.128 66.9533C119.872 67.3376 119.259 68.2485 119.087 68.6755Z" fill="#F4DBB2"/>
<path d="M139.464 10.7461C139.236 11.5717 139.122 12.4257 139.122 13.2797C139.122 13.3366 139.122 13.3935 139.122 13.4505C139.136 14.4895 139.008 15.5143 138.779 16.5106C138.309 16.3398 137.81 15.9982 137.339 15.4146C136.099 13.8632 136.512 11.3582 138.038 10.7746C138.608 10.5469 139.093 10.5896 139.464 10.7461Z" fill="#A06552"/>
<path d="M139.464 10.7461C139.236 11.5717 139.122 12.4257 139.122 13.2797C139.122 13.3366 139.122 13.3935 139.122 13.4505C139.136 14.4895 139.008 15.5143 138.779 16.5106C138.309 16.3398 137.81 15.9982 137.339 15.4146C136.099 13.8632 136.512 11.3582 138.038 10.7746C138.608 10.5469 139.093 10.5896 139.464 10.7461Z" fill="#F4DBB2"/>
<path d="M162.179 15.4148C161.708 16.0126 161.224 16.3542 160.739 16.5108C160.511 15.5002 160.382 14.4754 160.396 13.4506C160.396 13.3937 160.396 13.3368 160.396 13.2798C160.396 12.4259 160.282 11.5719 160.054 10.7463C160.425 10.604 160.91 10.5471 161.48 10.7748C162.992 11.3584 163.405 13.8492 162.179 15.4148Z" fill="#A06552"/>
<path d="M162.179 15.4148C161.708 16.0126 161.224 16.3542 160.739 16.5108C160.511 15.5002 160.382 14.4754 160.396 13.4506C160.396 13.3937 160.396 13.3368 160.396 13.2798C160.396 12.4259 160.282 11.5719 160.054 10.7463C160.425 10.604 160.91 10.5471 161.48 10.7748C162.992 11.3584 163.405 13.8492 162.179 15.4148Z" fill="#F4DBB2"/>
<path d="M157.445 16.5534C157.003 17.2508 156.874 18.1191 157.145 18.9161C157.345 19.5139 157.53 20.1829 157.53 20.681C157.53 24.339 154.051 27.3137 149.773 27.3137C145.481 27.3137 142.016 24.339 142.016 20.681C142.016 20.1829 142.202 19.5139 142.401 18.9161C142.672 18.1333 142.544 17.2651 142.102 16.5534C141.988 16.3826 141.902 16.2118 141.817 16.0268C141.56 15.4717 141.432 14.8739 141.432 14.2618C141.432 11.828 143.499 9.86377 146.066 9.86377C146.893 9.86377 147.706 10.0773 148.419 10.4758C149.26 10.9597 150.301 10.9597 151.142 10.4758C151.869 10.0773 152.668 9.86377 153.495 9.86377C156.047 9.86377 158.129 11.828 158.129 14.2618C158.129 14.8739 158.001 15.4717 157.744 16.0268C157.644 16.1976 157.545 16.3826 157.445 16.5534Z" fill="#A06552"/>
<path d="M157.445 16.5534C157.003 17.2508 156.874 18.1191 157.145 18.9161C157.345 19.5139 157.53 20.1829 157.53 20.681C157.53 24.339 154.051 27.3137 149.773 27.3137C145.481 27.3137 142.016 24.339 142.016 20.681C142.016 20.1829 142.202 19.5139 142.401 18.9161C142.672 18.1333 142.544 17.2651 142.102 16.5534C141.988 16.3826 141.902 16.2118 141.817 16.0268C141.56 15.4717 141.432 14.8739 141.432 14.2618C141.432 11.828 143.499 9.86377 146.066 9.86377C146.893 9.86377 147.706 10.0773 148.419 10.4758C149.26 10.9597 150.301 10.9597 151.142 10.4758C151.869 10.0773 152.668 9.86377 153.495 9.86377C156.047 9.86377 158.129 11.828 158.129 14.2618C158.129 14.8739 158.001 15.4717 157.744 16.0268C157.644 16.1976 157.545 16.3826 157.445 16.5534Z" fill="#F4DBB2"/>
<path d="M145.809 21.4922C145.567 21.4922 145.367 21.6915 145.367 21.9334C145.367 21.9477 145.367 21.9761 145.367 21.9904C145.638 23.9545 147.506 25.4633 149.759 25.4633C152.012 25.4633 153.88 23.9403 154.151 21.9904C154.179 21.7484 154.008 21.5207 153.766 21.4922C153.752 21.4922 153.723 21.4922 153.709 21.4922H145.809Z" fill="#4E3F3F"/>
<path d="M147.207 24.7375C148.775 25.7053 150.757 25.7053 152.311 24.7375C151.998 23.6273 150.971 23.8835 149.759 23.8835C148.547 23.8835 147.52 23.6273 147.207 24.7375Z" fill="#E5646E"/>
<path d="M162.008 9.94914C161.095 9.59331 160.354 9.77835 159.855 10.0772C159.726 9.70718 159.584 9.35135 159.427 8.99552C159.313 8.73932 159.184 8.48312 159.042 8.22692C157.63 5.66494 155.277 3.52995 152.554 2.63326L152.497 1.18147L150.743 2.23473C150.672 2.22049 150.6 2.22049 150.529 2.20626C150.401 2.19203 150.272 2.19203 150.144 2.17779L149.887 1.0676L149.816 0.740234C149.731 0.740234 149.645 0.740235 149.559 0.754468C147.92 0.882568 147.107 2.36282 146.993 2.61902C144.284 3.51572 141.916 5.6507 140.519 8.21269C140.376 8.46889 140.248 8.72509 140.134 8.98128C139.977 9.33712 139.82 9.69295 139.706 10.063C139.692 10.0488 139.664 10.0345 139.635 10.0203C139.122 9.74988 138.423 9.59331 137.539 9.93491C135.614 10.6893 135.086 13.8633 136.655 15.8417C137.296 16.653 137.967 17.0942 138.608 17.2793C138.594 17.322 138.594 17.3504 138.58 17.3931C138.466 17.9198 138.409 18.4749 138.409 19.0157C138.409 22.8018 141.204 26.0469 145.21 27.4845C146.151 27.8261 147.121 28.0538 148.119 28.1677C148.633 28.2246 149.146 28.2673 149.674 28.2673C149.716 28.2673 149.759 28.2673 149.802 28.2673C156.09 28.2673 161.181 24.1255 161.181 19.03C161.181 18.4891 161.124 17.9482 161.01 17.4074C160.995 17.3647 160.995 17.3362 160.981 17.2935C161.623 17.0942 162.293 16.653 162.935 15.8559C164.46 13.8775 163.933 10.6893 162.008 9.94914ZM139.464 10.7462C139.236 11.5717 139.122 12.4257 139.122 13.2797C139.122 13.3367 139.122 13.3936 139.122 13.4505C139.136 14.4895 139.008 15.5143 138.779 16.5107C138.309 16.3399 137.81 15.9983 137.339 15.4147C136.099 13.8633 136.512 11.3582 138.038 10.7747C138.608 10.5469 139.093 10.5896 139.464 10.7462ZM157.73 16.0267C157.644 16.2118 157.545 16.3826 157.445 16.5534C157.003 17.2508 156.874 18.119 157.145 18.9161C157.345 19.5139 157.53 20.1828 157.53 20.681C157.53 24.339 154.051 27.3137 149.773 27.3137C145.481 27.3137 142.002 24.339 142.002 20.681C142.002 20.1828 142.187 19.5139 142.387 18.9161C142.658 18.1333 142.53 17.265 142.088 16.5534C141.974 16.3826 141.888 16.2118 141.802 16.0267C141.546 15.4716 141.417 14.8738 141.417 14.2618C141.417 11.8279 143.485 9.86375 146.052 9.86375C146.879 9.86375 147.691 10.0772 148.404 10.4758C149.246 10.9597 150.287 10.9597 151.128 10.4758C151.855 10.0772 152.654 9.86375 153.481 9.86375C156.033 9.86375 158.115 11.8279 158.115 14.2618C158.115 14.8738 157.987 15.4716 157.73 16.0267ZM162.179 15.4147C161.708 16.0125 161.224 16.3541 160.739 16.5107C160.511 15.5001 160.382 14.4753 160.396 13.4505C160.396 13.3936 160.396 13.3367 160.396 13.2797C160.396 12.4257 160.282 11.5717 160.054 10.7462C160.425 10.6039 160.91 10.5469 161.48 10.7747C162.992 11.3582 163.405 13.8491 162.179 15.4147Z" fill="#A06552"/>
<path d="M147.82 18.1902C147.905 18.0052 148.133 17.9198 148.319 18.0052L149.189 18.4037C149.374 18.4891 149.46 18.7168 149.374 18.9019C149.288 19.0869 149.06 19.1723 148.875 19.0869L148.005 18.6884C147.82 18.603 147.734 18.3752 147.82 18.1902Z" fill="#4E3F3F"/>
<path d="M150.158 18.8877C150.073 18.7027 150.158 18.4749 150.344 18.3895L151.213 17.991C151.399 17.9056 151.627 17.991 151.713 18.176C151.798 18.3611 151.713 18.5888 151.527 18.6742L150.657 19.0727C150.458 19.1581 150.244 19.0727 150.158 18.8877Z" fill="#4E3F3F"/>
<path d="M145.766 16.0267C145.039 16.0267 144.44 15.4574 144.44 14.7742V14.3614C144.44 13.664 145.039 13.1089 145.766 13.1089C146.494 13.1089 147.093 13.6782 147.093 14.3614V14.7742C147.107 15.4574 146.508 16.0267 145.766 16.0267Z" fill="#4E3F3F"/>
<path d="M145.766 13.0806V14.5466C145.766 14.8882 146.066 15.1729 146.437 15.1729C146.807 15.1729 147.107 14.8882 147.107 14.5466V14.3331C147.107 13.6499 146.508 13.0806 145.766 13.0806Z" fill="#5D5360"/>
<path d="M145.766 14.3331C146.011 14.3331 146.209 14.1483 146.209 13.9203C146.209 13.6924 146.011 13.5076 145.766 13.5076C145.522 13.5076 145.324 13.6924 145.324 13.9203C145.324 14.1483 145.522 14.3331 145.766 14.3331Z" fill="white"/>
<path d="M153.752 16.0267C153.024 16.0267 152.426 15.4574 152.426 14.7742V14.3614C152.426 13.664 153.024 13.1089 153.752 13.1089C154.493 13.1089 155.078 13.6782 155.078 14.3614V14.7742C155.078 15.4574 154.479 16.0267 153.752 16.0267Z" fill="#4E3F3F"/>
<path d="M153.752 13.0806V14.5466C153.752 14.8882 154.051 15.1729 154.422 15.1729C154.793 15.1729 155.092 14.8882 155.092 14.5466V14.3331C155.078 13.6499 154.479 13.0806 153.752 13.0806Z" fill="#5D5360"/>
<path d="M153.752 14.3331C153.996 14.3331 154.194 14.1483 154.194 13.9203C154.194 13.6924 153.996 13.5076 153.752 13.5076C153.508 13.5076 153.31 13.6924 153.31 13.9203C153.31 14.1483 153.508 14.3331 153.752 14.3331Z" fill="white"/>
<path d="M129.354 67.4939C129.383 67.5224 129.411 67.5508 129.44 67.5793C129.654 67.864 129.924 68.2625 129.668 68.5614C129.411 68.8603 128.898 69.0169 128.898 69.0169C128.898 69.0169 129.24 69.4439 128.998 69.7997C128.841 70.0274 128.541 70.1128 128.313 70.1413C128.171 70.1698 128.085 70.1698 128.085 70.1698C128.085 70.1698 128.256 70.5541 128.071 70.8956C128.042 70.9383 128.014 70.9811 127.985 71.0238C127.671 71.3796 127.101 71.3084 127.101 71.3084C127.101 71.3084 127.344 71.7781 127.03 72.1482C126.716 72.504 126.345 72.3617 126.345 72.3617C126.345 72.3617 125.718 72.0485 125.276 71.7923C125.176 71.7354 124.706 71.4507 124.691 71.4223C124.691 71.4223 123.665 70.7818 123.864 70.3548C124.092 69.8709 124.706 69.9847 124.706 69.9847C124.706 69.9847 123.28 69.2304 123.722 68.661C124.249 67.9494 125.276 68.6468 125.276 68.6468C125.276 68.6468 124.178 68.0917 124.549 67.4085C124.905 66.7538 125.875 67.2093 125.875 67.2093C125.875 67.2093 125.162 66.7396 125.333 66.3695C125.49 65.9994 125.918 65.8002 126.36 65.9283C126.787 66.0564 127.743 66.5261 127.786 66.5403C127.8 66.5545 127.828 66.5545 127.843 66.5688C127.857 66.5688 127.857 66.583 127.871 66.583C128.199 66.7538 129.055 67.2235 129.354 67.4939Z" fill="#EAD1AD"/>
<path d="M120.214 62.6121C120.955 62.2278 124.206 62.0854 124.62 62.242C125.048 62.3986 127.885 63.9073 128.071 64.0212C128.256 64.135 129.012 64.7328 128.841 65.0744C128.456 65.843 127.557 65.8146 127.073 65.6153C126.83 65.5157 125.461 64.6474 124.962 64.6047C124.691 64.5763 123.679 65.4303 123.066 65.6722C122.453 65.9284 121.882 66.2273 120.684 65.1171C119.515 63.9927 119.487 62.9964 120.214 62.6121Z" fill="#EAD1AD"/>
</svg>
