<svg width="240" height="120" viewBox="0 0 240 120" fill="none" xmlns="http://www.w3.org/2000/svg">
<g clip-path="url(#clip0_11308_82707)">
<path d="M163.267 95.0332C162.989 95.0666 162.7 95.0888 162.411 95.0888H77.2889C70.7778 95.0888 66.4 85.511 69.6556 79.8666L112.522 8.67767C115.778 3.03322 123.922 3.03322 127.178 8.67767L170.389 80.2443C173.5 85.6221 169.322 94.2777 163.267 95.0332Z" fill="#3C3C3B"/>
<path opacity="0.51" d="M169.011 87.7222L163.267 95.0333C162.989 95.0666 162.7 95.0888 162.411 95.0888H78.5778L75 91.8111L75.3444 89.7111L169.011 87.7222Z" fill="#252524"/>
<mask id="mask0_11308_82707" style="mask-type:alpha" maskUnits="userSpaceOnUse" x="113" y="92" width="13" height="34">
<path d="M125.744 125.078H113.956V93.4778C113.956 93.4778 115.833 92.6889 119.678 92.7222C123.522 92.7556 125.756 93.4778 125.756 93.4778V125.078H125.744Z" fill="url(#paint0_linear_11308_82707)"/>
</mask>
<g mask="url(#mask0_11308_82707)">
<path d="M125.833 113.244C125.833 113.589 125.8 113.922 125.744 114.256C125.533 115.433 124.956 116.5 124.111 117.3C123.389 117.989 122.467 118.5 121.422 118.711C120.967 118.8 120.467 118.867 119.922 118.889C119.389 118.911 118.889 118.878 118.444 118.8C117.389 118.622 116.456 118.144 115.722 117.456C114.689 116.489 114.056 115.1 114.044 113.6L113.956 93.4111C113.956 93.4111 115.833 92.7 119.678 92.7333C123.522 92.7666 125.756 93.4111 125.756 93.4111L125.833 113.244Z" fill="#3C3C3B"/>
<path opacity="0.51" d="M125.744 93.4V114.244C125.533 115.422 124.956 116.489 124.111 117.289L124.156 95.0778C124.156 95.0778 121.567 95.1333 119.4 95.7222C117.222 96.3111 116.111 96.7222 115.756 98.1889C115.522 99.1666 115.622 110.156 115.722 117.433C114.689 116.467 114.056 115.078 114.044 113.578L113.956 93.3889C113.956 93.3889 115.833 92.6778 119.678 92.7111C123.522 92.7555 125.744 93.4 125.744 93.4Z" fill="#252524"/>
</g>
<path d="M162.411 91.7555H77.2889C75.3667 91.7555 73.6667 91.1444 72.2889 90.1333C70.6111 88.9 69.4445 87.0777 69 85.0666C68.5778 83.1333 68.8333 81.0111 69.9556 79.0666L112.522 5.34442C115.778 -0.300027 123.922 -0.300027 127.178 5.34442L135.067 19.0111L138.122 24.3111L140.856 29.0333L149.256 43.5778L169.744 79.0778C173 84.7 168.922 91.7555 162.411 91.7555Z" fill="#FFD44F"/>
<path d="M153.889 86.3334H85.8111C83.1444 86.3334 80.7667 84.9557 79.4333 82.6557C78.1 80.3446 78.1 77.6001 79.4333 75.289L113.478 16.3223C114.811 14.0112 117.189 12.6445 119.856 12.6445C122.522 12.6445 124.9 14.0223 126.233 16.3223L160.278 75.289C161.611 77.6001 161.611 80.3446 160.278 82.6557C158.944 84.9668 156.556 86.3334 153.889 86.3334ZM119.856 16.8112C118.7 16.8112 117.667 17.4112 117.089 18.4112L83.0333 77.3779C82.4556 78.3779 82.4556 79.5779 83.0333 80.5779C83.6111 81.5779 84.6444 82.1779 85.8 82.1779H153.889C155.044 82.1779 156.078 81.5779 156.656 80.5779C157.233 79.5779 157.233 78.3779 156.656 77.3779L122.622 18.4112C122.044 17.4112 121.011 16.8112 119.856 16.8112Z" fill="#1F1F1F"/>
<path d="M114.922 74.389C113.7 73.3112 113.1 71.9556 113.1 70.3223C113.1 68.6556 113.711 67.2667 114.922 66.1779C116.144 65.0779 117.756 64.5334 119.778 64.5334C121.767 64.5334 123.367 65.0779 124.578 66.1779C125.8 67.2779 126.4 68.6556 126.4 70.3223C126.4 71.9556 125.789 73.3112 124.578 74.389C123.356 75.4667 121.756 76.0112 119.778 76.0112C117.767 76.0112 116.144 75.4667 114.922 74.389ZM126.1 36.189L124.744 60.9223H114.833L113.478 36.189H126.1Z" fill="#1F1F1F"/>
<path opacity="0.22" d="M149.244 43.5667L101.067 91.7555H78.1222L140.856 29.0222L149.244 43.5667Z" fill="#FFF3D1"/>
<path opacity="0.22" d="M138.122 24.3L72.2889 90.1333C70.6111 88.9 69.4444 87.0778 69 85.0667L135.067 19L138.122 24.3Z" fill="#FFF3D1"/>
</g>
<defs>
<linearGradient id="paint0_linear_11308_82707" x1="119.85" y1="92.7264" x2="119.85" y2="125.082" gradientUnits="userSpaceOnUse">
<stop stop-color="white"/>
<stop offset="0.1826" stop-color="#FCFCFC"/>
<stop offset="0.3154" stop-color="#F3F3F3"/>
<stop offset="0.4324" stop-color="#E3E3E3"/>
<stop offset="0.5403" stop-color="#CCCCCC"/>
<stop offset="0.6419" stop-color="#AFAFAF"/>
<stop offset="0.739" stop-color="#8C8C8C"/>
<stop offset="0.8324" stop-color="#626262"/>
<stop offset="0.9204" stop-color="#323232"/>
<stop offset="1"/>
</linearGradient>
<clipPath id="clip0_11308_82707">
<rect width="120" height="120" fill="white" transform="translate(60)"/>
</clipPath>
</defs>
</svg>
